G75*
%MOIN*%
%OFA0B0*%
%FSLAX25Y25*%
%IPPOS*%
%LPD*%
%AMOC8*
5,1,8,0,0,1.08239X$1,22.5*
%
%ADD10R,0.08083X0.27572*%
%ADD11R,0.05131X0.05131*%
%ADD12R,0.07887X0.06706*%
%ADD13R,0.06706X0.12217*%
%ADD14OC8,0.13200*%
%ADD15C,0.13200*%
%ADD16R,0.07296X0.07296*%
%ADD17R,0.21194X0.28359*%
%ADD18R,0.06706X0.09658*%
%ADD19R,0.28359X0.21194*%
%ADD20R,0.09658X0.06706*%
%ADD21R,0.08674X0.05524*%
%ADD22R,0.06706X0.07887*%
%ADD23R,0.07099X0.07898*%
%ADD24R,0.09461X0.03162*%
%ADD25R,0.05524X0.01981*%
%ADD26C,0.06000*%
%ADD27R,0.07099X0.07887*%
%ADD28R,0.07887X0.07099*%
%ADD29C,0.21800*%
%ADD30C,0.09050*%
%ADD31R,0.22454X0.08083*%
%ADD32OC8,0.10800*%
%ADD33R,0.07898X0.07099*%
%ADD34C,0.04369*%
%ADD35C,0.03778*%
D10*
X0312212Y0219414D03*
X0332290Y0219414D03*
X0332763Y0308784D03*
X0312684Y0308784D03*
D11*
X0180440Y0230320D03*
X0180440Y0223627D03*
X0167920Y0211147D03*
X0167920Y0204454D03*
X0180282Y0174493D03*
X0180282Y0167800D03*
X0167842Y0153273D03*
X0167842Y0146580D03*
X0305164Y0146343D03*
X0311857Y0146343D03*
X0324456Y0152328D03*
X0331149Y0152328D03*
X0311857Y0139650D03*
X0305164Y0139650D03*
X0305164Y0132761D03*
X0311857Y0132761D03*
X0318708Y0130832D03*
X0325401Y0130832D03*
X0325401Y0123942D03*
X0318708Y0123942D03*
X0394574Y0140871D03*
X0401267Y0140871D03*
X0178983Y0288469D03*
X0178983Y0295162D03*
X0167645Y0272643D03*
X0167645Y0265950D03*
X0167802Y0325910D03*
X0167802Y0332603D03*
X0178668Y0345477D03*
X0178668Y0352170D03*
D12*
X0169771Y0346698D03*
X0169771Y0358115D03*
X0138531Y0353024D03*
X0138531Y0341631D03*
X0138531Y0304166D03*
X0138531Y0292773D03*
X0170164Y0297800D03*
X0170164Y0286383D03*
X0230528Y0308048D03*
X0241315Y0308048D03*
X0241315Y0319442D03*
X0230528Y0319442D03*
X0286238Y0301292D03*
X0286238Y0289898D03*
X0170479Y0236186D03*
X0170479Y0224769D03*
X0231158Y0192670D03*
X0241906Y0192631D03*
X0241906Y0181237D03*
X0231158Y0181276D03*
X0287025Y0174442D03*
X0287025Y0163048D03*
X0170282Y0166422D03*
X0170282Y0177839D03*
X0411660Y0227576D03*
X0411660Y0238969D03*
X0411700Y0250135D03*
X0411700Y0261528D03*
X0411700Y0272103D03*
X0411700Y0283497D03*
D13*
X0350716Y0356737D03*
X0338905Y0356737D03*
X0339220Y0194650D03*
X0351031Y0194650D03*
D14*
X0371031Y0209036D03*
X0371031Y0317036D03*
X0243471Y0386166D03*
X0172369Y0385733D03*
D15*
X0172369Y0415733D03*
X0243471Y0416166D03*
D16*
X0159790Y0355044D03*
X0159790Y0345044D03*
X0159790Y0335044D03*
X0159790Y0325044D03*
X0159790Y0295241D03*
X0159790Y0285241D03*
X0159790Y0275241D03*
X0159790Y0265241D03*
X0160420Y0233273D03*
X0160420Y0223273D03*
X0160420Y0213273D03*
X0160420Y0203273D03*
X0160696Y0175084D03*
X0160696Y0165084D03*
X0160696Y0155084D03*
X0160696Y0145084D03*
D17*
X0275657Y0196028D03*
X0274869Y0322839D03*
D18*
X0251877Y0313489D03*
X0251877Y0332190D03*
X0252664Y0205379D03*
X0252664Y0186678D03*
D19*
X0264869Y0152524D03*
X0264082Y0279336D03*
D20*
X0273432Y0302328D03*
X0254731Y0302328D03*
X0255519Y0175517D03*
X0274220Y0175517D03*
D21*
X0207408Y0154178D03*
X0207408Y0143902D03*
X0177881Y0143902D03*
X0177881Y0154178D03*
X0177960Y0202052D03*
X0177960Y0212328D03*
X0207487Y0212328D03*
X0207487Y0202052D03*
X0206857Y0264060D03*
X0206857Y0274336D03*
X0177330Y0274336D03*
X0177330Y0264060D03*
X0177566Y0324060D03*
X0177566Y0334336D03*
X0207094Y0334336D03*
X0207094Y0324060D03*
D22*
X0252617Y0345044D03*
X0264011Y0345044D03*
X0139405Y0330398D03*
X0128011Y0330398D03*
X0128011Y0315241D03*
X0139405Y0315241D03*
X0139405Y0281658D03*
X0128011Y0281658D03*
X0128011Y0364414D03*
X0139405Y0364414D03*
X0254074Y0218194D03*
X0265468Y0218194D03*
D23*
X0311653Y0390458D03*
X0322849Y0390458D03*
X0331613Y0390398D03*
X0342810Y0390398D03*
X0342928Y0410418D03*
X0331731Y0410418D03*
X0322849Y0410497D03*
X0311653Y0410497D03*
D24*
X0220125Y0366599D03*
X0220125Y0361599D03*
X0220125Y0356599D03*
X0220125Y0351599D03*
X0199653Y0351599D03*
X0199653Y0356599D03*
X0199653Y0361599D03*
X0199653Y0366599D03*
D25*
X0320349Y0145336D03*
X0320349Y0142776D03*
X0320349Y0140217D03*
X0320349Y0137658D03*
X0336983Y0137658D03*
X0336983Y0140217D03*
X0336983Y0142776D03*
X0336983Y0145336D03*
D26*
X0098316Y0151580D02*
X0093116Y0151580D01*
X0093116Y0161580D02*
X0098316Y0161580D01*
X0098316Y0171580D02*
X0093116Y0171580D01*
X0093116Y0181580D02*
X0098316Y0181580D01*
X0098316Y0191580D02*
X0093116Y0191580D01*
X0093116Y0201580D02*
X0098316Y0201580D01*
X0098316Y0211580D02*
X0093116Y0211580D01*
X0093116Y0221580D02*
X0098316Y0221580D01*
D27*
X0274416Y0217406D03*
X0285440Y0217406D03*
X0340007Y0183784D03*
X0351031Y0183784D03*
X0351109Y0173509D03*
X0340086Y0173509D03*
X0339456Y0334099D03*
X0350479Y0334099D03*
X0350401Y0345044D03*
X0339377Y0345044D03*
X0284141Y0344296D03*
X0273117Y0344296D03*
D28*
X0241906Y0298981D03*
X0232457Y0298981D03*
X0232457Y0287958D03*
X0241906Y0287958D03*
X0286238Y0280832D03*
X0286238Y0269808D03*
X0242654Y0172170D03*
X0233205Y0172170D03*
X0233205Y0161147D03*
X0242654Y0161147D03*
X0287025Y0153902D03*
X0287025Y0142879D03*
D29*
X0441660Y0120359D03*
X0096779Y0120359D03*
X0096779Y0427210D03*
X0441660Y0427210D03*
D30*
X0441691Y0281343D02*
X0433441Y0281343D01*
X0433441Y0261343D02*
X0441691Y0261343D01*
X0105628Y0333745D02*
X0097378Y0333745D01*
X0097378Y0363745D02*
X0105628Y0363745D01*
X0105628Y0393745D02*
X0097378Y0393745D01*
D31*
X0143944Y0387150D03*
X0143944Y0407229D03*
X0191503Y0411127D03*
X0191503Y0391048D03*
X0225086Y0391245D03*
X0225086Y0411324D03*
X0262251Y0411245D03*
X0262251Y0391166D03*
X0295794Y0390458D03*
X0295794Y0410536D03*
D32*
X0293432Y0337013D03*
X0372172Y0337013D03*
X0372094Y0191383D03*
X0293353Y0191383D03*
D33*
X0118590Y0385863D03*
X0118590Y0397060D03*
X0160401Y0401745D03*
X0160401Y0390548D03*
X0208235Y0395312D03*
X0208235Y0406509D03*
X0279220Y0405564D03*
X0279220Y0394367D03*
D34*
X0142999Y0115556D03*
X0130164Y0118784D03*
X0188393Y0156658D03*
X0186660Y0162406D03*
X0187802Y0178430D03*
X0187664Y0184513D03*
X0187960Y0195595D03*
X0201424Y0220832D03*
X0224534Y0227643D03*
X0228471Y0233036D03*
X0231503Y0237997D03*
X0234692Y0232761D03*
X0231660Y0228036D03*
X0238117Y0228076D03*
X0241227Y0232997D03*
X0247172Y0233036D03*
X0244849Y0228115D03*
X0244495Y0238194D03*
X0237920Y0237997D03*
X0224692Y0238391D03*
X0233511Y0218587D03*
X0237723Y0218587D03*
X0239141Y0202091D03*
X0223983Y0198784D03*
X0258511Y0190438D03*
X0267251Y0185674D03*
X0272448Y0185674D03*
X0269653Y0190950D03*
X0256936Y0169493D03*
X0267330Y0159847D03*
X0272251Y0155241D03*
X0276267Y0151501D03*
X0271779Y0147564D03*
X0275794Y0144611D03*
X0266739Y0144572D03*
X0257015Y0146895D03*
X0253629Y0142170D03*
X0247999Y0146540D03*
X0246267Y0141186D03*
X0240952Y0145713D03*
X0237290Y0141265D03*
X0233432Y0145635D03*
X0241621Y0154887D03*
X0252527Y0158036D03*
X0257566Y0155517D03*
X0252645Y0151068D03*
X0266818Y0152406D03*
X0276031Y0159729D03*
X0314810Y0152682D03*
X0318786Y0155044D03*
X0319023Y0150674D03*
X0330794Y0134336D03*
X0336779Y0123548D03*
X0313235Y0123902D03*
X0307999Y0123587D03*
X0301621Y0125871D03*
X0298471Y0130379D03*
X0346601Y0166836D03*
X0332527Y0174769D03*
X0332448Y0182013D03*
X0332448Y0190162D03*
X0326267Y0193981D03*
X0332684Y0197485D03*
X0299495Y0226698D03*
X0292842Y0226658D03*
X0287212Y0226698D03*
X0281109Y0226580D03*
X0284062Y0232485D03*
X0290204Y0232564D03*
X0292802Y0238115D03*
X0286857Y0238351D03*
X0280912Y0238076D03*
X0267605Y0233706D03*
X0267566Y0226461D03*
X0296857Y0232918D03*
X0298865Y0238509D03*
X0274574Y0272091D03*
X0271031Y0277210D03*
X0275637Y0281737D03*
X0270834Y0285713D03*
X0266031Y0281343D03*
X0257527Y0278784D03*
X0252723Y0281107D03*
X0257015Y0284729D03*
X0251542Y0275595D03*
X0257566Y0273391D03*
X0253117Y0270320D03*
X0247763Y0267367D03*
X0245991Y0272328D03*
X0239692Y0272170D03*
X0240991Y0267210D03*
X0233629Y0267131D03*
X0227979Y0262623D03*
X0217881Y0270753D03*
X0207369Y0282682D03*
X0225812Y0286469D03*
X0239653Y0280753D03*
X0255479Y0296422D03*
X0257857Y0310613D03*
X0266975Y0312485D03*
X0271779Y0312485D03*
X0269298Y0317603D03*
X0281031Y0313981D03*
X0285834Y0310438D03*
X0290243Y0314729D03*
X0294062Y0319217D03*
X0289456Y0323469D03*
X0282763Y0320123D03*
X0279574Y0324493D03*
X0282448Y0329296D03*
X0279141Y0333863D03*
X0276188Y0329139D03*
X0273078Y0333902D03*
X0270046Y0328981D03*
X0267251Y0333902D03*
X0245007Y0344060D03*
X0241975Y0349650D03*
X0244731Y0355241D03*
X0237763Y0355241D03*
X0234613Y0350005D03*
X0230637Y0355280D03*
X0227487Y0349808D03*
X0230794Y0344178D03*
X0237605Y0344060D03*
X0237920Y0336147D03*
X0242251Y0336186D03*
X0239685Y0327003D03*
X0222842Y0320792D03*
X0198944Y0339887D03*
X0205282Y0347013D03*
X0210401Y0350438D03*
X0221031Y0346186D03*
X0227487Y0364139D03*
X0230125Y0367879D03*
X0233668Y0364336D03*
X0236897Y0368233D03*
X0240479Y0364296D03*
X0244653Y0367879D03*
X0249141Y0364729D03*
X0251936Y0369021D03*
X0248078Y0372446D03*
X0240716Y0372446D03*
X0233117Y0372485D03*
X0225794Y0372446D03*
X0219495Y0372446D03*
X0209220Y0367958D03*
X0199534Y0370674D03*
X0192448Y0370910D03*
X0191542Y0383036D03*
X0197802Y0383036D03*
X0204692Y0383036D03*
X0183865Y0383076D03*
X0162330Y0379650D03*
X0155125Y0379690D03*
X0147015Y0379650D03*
X0139259Y0379650D03*
X0130558Y0379611D03*
X0143590Y0417249D03*
X0150401Y0424099D03*
X0157251Y0417249D03*
X0164062Y0423981D03*
X0180361Y0424139D03*
X0185952Y0418666D03*
X0191424Y0424099D03*
X0196345Y0419178D03*
X0201306Y0424099D03*
X0206385Y0419060D03*
X0211149Y0423745D03*
X0216385Y0418548D03*
X0221975Y0424178D03*
X0227645Y0418548D03*
X0232763Y0423745D03*
X0253708Y0424021D03*
X0259141Y0419296D03*
X0264298Y0423942D03*
X0271070Y0419414D03*
X0276503Y0424336D03*
X0285952Y0403587D03*
X0292487Y0403824D03*
X0299377Y0403942D03*
X0301109Y0383548D03*
X0307172Y0383587D03*
X0314101Y0383587D03*
X0326345Y0383351D03*
X0299023Y0363627D03*
X0293078Y0363233D03*
X0289968Y0358194D03*
X0286975Y0363391D03*
X0283590Y0358194D03*
X0279692Y0362761D03*
X0280046Y0352800D03*
X0286739Y0352761D03*
X0293196Y0352761D03*
X0299180Y0352721D03*
X0296267Y0358194D03*
X0265519Y0359532D03*
X0265755Y0352958D03*
X0293708Y0328706D03*
X0294613Y0309847D03*
X0325991Y0337958D03*
X0332487Y0333706D03*
X0332448Y0342918D03*
X0332527Y0351776D03*
X0332487Y0360320D03*
X0364908Y0390812D03*
X0415755Y0345989D03*
X0409731Y0339847D03*
X0429515Y0340615D03*
X0431050Y0319591D03*
X0408983Y0290084D03*
X0390164Y0283863D03*
X0384653Y0262170D03*
X0388196Y0244257D03*
X0426857Y0203469D03*
X0429968Y0197761D03*
X0445755Y0186107D03*
X0449968Y0193942D03*
X0433511Y0180832D03*
X0433668Y0169375D03*
X0435086Y0162328D03*
X0437842Y0154139D03*
X0411090Y0164080D03*
X0398471Y0164217D03*
X0393314Y0173233D03*
X0410361Y0188666D03*
X0401464Y0195713D03*
X0400282Y0146580D03*
X0394101Y0147091D03*
X0394495Y0134769D03*
X0384259Y0134647D03*
X0378629Y0126501D03*
X0359849Y0142170D03*
X0421227Y0117603D03*
X0227605Y0134060D03*
X0214456Y0152210D03*
X0208432Y0162721D03*
X0225125Y0160477D03*
X0128393Y0223194D03*
X0127881Y0227761D03*
X0123393Y0227879D03*
X0123511Y0223036D03*
X0097696Y0238233D03*
X0097759Y0243131D03*
X0097684Y0248154D03*
X0097326Y0253131D03*
X0097326Y0258210D03*
X0097172Y0263469D03*
X0112566Y0274139D03*
X0138471Y0268391D03*
X0186306Y0289847D03*
X0186739Y0298233D03*
X0186345Y0304611D03*
X0186345Y0312839D03*
X0187094Y0283194D03*
X0206897Y0258076D03*
X0266739Y0272249D03*
X0120440Y0323391D03*
X0254456Y0383430D03*
X0261424Y0383430D03*
X0267448Y0383430D03*
X0274101Y0383469D03*
X0280873Y0383509D03*
X0287251Y0383548D03*
X0294456Y0383548D03*
D35*
X0294849Y0207879D03*
X0292330Y0203548D03*
X0289416Y0207406D03*
X0286700Y0202800D03*
X0289692Y0199021D03*
X0295086Y0199375D03*
X0283983Y0197052D03*
X0278314Y0196304D03*
X0279220Y0191147D03*
X0284849Y0191265D03*
X0286739Y0184257D03*
X0281306Y0184611D03*
X0292842Y0183351D03*
X0281109Y0202210D03*
X0275637Y0202328D03*
X0269968Y0202131D03*
X0267448Y0207406D03*
X0272802Y0207328D03*
X0278393Y0207446D03*
X0283786Y0207367D03*
X0369849Y0167406D03*
X0374220Y0167406D03*
X0372251Y0171658D03*
X0377448Y0171658D03*
X0378944Y0167249D03*
X0377605Y0163509D03*
X0382369Y0164060D03*
X0387290Y0164099D03*
X0413786Y0115595D03*
X0292605Y0123430D03*
X0292212Y0133981D03*
M02*
