G75*
%MOIN*%
%OFA0B0*%
%FSLAX25Y25*%
%IPPOS*%
%LPD*%
%AMOC8*
5,1,8,0,0,1.08239X$1,22.5*
%
%ADD10C,0.00300*%
%ADD11C,0.06000*%
%ADD12C,0.06496*%
%ADD13C,0.07050*%
%ADD14C,0.05200*%
%ADD15C,0.15024*%
%ADD16C,0.08250*%
%ADD17C,0.07677*%
%ADD18C,0.03569*%
%ADD19C,0.01200*%
%ADD20C,0.02978*%
%ADD21C,0.04000*%
%ADD22C,0.10000*%
D10*
X0393422Y0412297D02*
X0394245Y0412297D01*
X0393834Y0412297D02*
X0393834Y0415997D01*
X0394245Y0415997D02*
X0393422Y0415997D01*
X0395806Y0415997D02*
X0397861Y0412297D01*
X0397861Y0415997D01*
X0399526Y0415174D02*
X0400554Y0415997D01*
X0400554Y0412297D01*
X0401581Y0412297D02*
X0399526Y0412297D01*
X0395806Y0412297D02*
X0395806Y0415997D01*
X0405173Y0415997D02*
X0405173Y0412297D01*
X0406817Y0412297D01*
X0407960Y0412297D02*
X0409194Y0415997D01*
X0410427Y0412297D01*
X0410119Y0413222D02*
X0408269Y0413222D01*
X0411560Y0415997D02*
X0412793Y0414249D01*
X0412793Y0412297D01*
X0412793Y0414249D02*
X0414027Y0415997D01*
X0415493Y0415997D02*
X0415493Y0412297D01*
X0417137Y0412297D01*
X0418628Y0412297D02*
X0418628Y0415997D01*
X0419656Y0415997D01*
X0419719Y0415995D01*
X0419782Y0415989D01*
X0419845Y0415979D01*
X0419907Y0415966D01*
X0419968Y0415949D01*
X0420027Y0415928D01*
X0420086Y0415903D01*
X0420142Y0415875D01*
X0420197Y0415843D01*
X0420250Y0415808D01*
X0420300Y0415770D01*
X0420349Y0415729D01*
X0420394Y0415685D01*
X0420437Y0415638D01*
X0420476Y0415589D01*
X0420513Y0415537D01*
X0420546Y0415483D01*
X0420576Y0415427D01*
X0420603Y0415370D01*
X0420626Y0415311D01*
X0420645Y0415250D01*
X0420660Y0415189D01*
X0420672Y0415127D01*
X0420680Y0415064D01*
X0420684Y0415001D01*
X0420684Y0414937D01*
X0420680Y0414874D01*
X0420672Y0414811D01*
X0420660Y0414749D01*
X0420645Y0414688D01*
X0420626Y0414627D01*
X0420603Y0414568D01*
X0420576Y0414511D01*
X0420546Y0414455D01*
X0420513Y0414401D01*
X0420476Y0414349D01*
X0420437Y0414300D01*
X0420394Y0414253D01*
X0420349Y0414209D01*
X0420300Y0414168D01*
X0420250Y0414130D01*
X0420197Y0414095D01*
X0420142Y0414063D01*
X0420086Y0414035D01*
X0420027Y0414010D01*
X0419968Y0413989D01*
X0419907Y0413972D01*
X0419845Y0413959D01*
X0419782Y0413949D01*
X0419719Y0413943D01*
X0419656Y0413941D01*
X0418628Y0413941D01*
X0419861Y0413941D02*
X0420684Y0412297D01*
X0416726Y0414352D02*
X0415493Y0414352D01*
X0415493Y0415997D02*
X0417137Y0415997D01*
D11*
X0243471Y0416166D03*
X0243471Y0386166D03*
X0172369Y0385733D03*
X0172369Y0415733D03*
D12*
X0159790Y0355044D03*
X0159790Y0345044D03*
X0159790Y0335044D03*
X0159790Y0325044D03*
X0159790Y0295241D03*
X0159790Y0285241D03*
X0159790Y0275241D03*
X0159790Y0265241D03*
X0160420Y0233273D03*
X0160420Y0223273D03*
X0160420Y0213273D03*
X0160420Y0203273D03*
X0160696Y0175084D03*
X0160696Y0165084D03*
X0160696Y0155084D03*
X0160696Y0145084D03*
D13*
X0371031Y0209036D03*
X0371031Y0317036D03*
D14*
X0095716Y0221580D03*
X0095716Y0211580D03*
X0095716Y0201580D03*
X0095716Y0191580D03*
X0095716Y0181580D03*
X0095716Y0171580D03*
X0095716Y0161580D03*
X0095716Y0151580D03*
D15*
X0096779Y0120359D03*
X0441660Y0120359D03*
X0441660Y0427210D03*
X0096779Y0427210D03*
D16*
X0101503Y0393745D03*
X0101503Y0363745D03*
X0101503Y0333745D03*
X0437566Y0281343D03*
X0437566Y0261343D03*
D17*
X0372094Y0191383D03*
X0293353Y0191383D03*
X0293432Y0337013D03*
X0372172Y0337013D03*
D18*
X0332487Y0333706D03*
X0325991Y0337958D03*
X0332448Y0342918D03*
X0332527Y0351776D03*
X0332487Y0360320D03*
X0326345Y0383351D03*
X0314101Y0383587D03*
X0307172Y0383587D03*
X0301109Y0383548D03*
X0294456Y0383548D03*
X0287251Y0383548D03*
X0280873Y0383509D03*
X0274101Y0383469D03*
X0267448Y0383430D03*
X0261424Y0383430D03*
X0254456Y0383430D03*
X0248078Y0372446D03*
X0251936Y0369021D03*
X0249141Y0364729D03*
X0244653Y0367879D03*
X0240479Y0364296D03*
X0236897Y0368233D03*
X0233668Y0364336D03*
X0230125Y0367879D03*
X0227487Y0364139D03*
X0225794Y0372446D03*
X0219495Y0372446D03*
X0209220Y0367958D03*
X0199534Y0370674D03*
X0192448Y0370910D03*
X0191542Y0383036D03*
X0197802Y0383036D03*
X0204692Y0383036D03*
X0183865Y0383076D03*
X0162330Y0379650D03*
X0155125Y0379690D03*
X0147015Y0379650D03*
X0139259Y0379650D03*
X0130558Y0379611D03*
X0143590Y0417249D03*
X0150401Y0424099D03*
X0157251Y0417249D03*
X0164062Y0423981D03*
X0180361Y0424139D03*
X0185952Y0418666D03*
X0191424Y0424099D03*
X0196345Y0419178D03*
X0201306Y0424099D03*
X0206385Y0419060D03*
X0211149Y0423745D03*
X0216385Y0418548D03*
X0221975Y0424178D03*
X0227645Y0418548D03*
X0232763Y0423745D03*
X0253708Y0424021D03*
X0259141Y0419296D03*
X0264298Y0423942D03*
X0271070Y0419414D03*
X0276503Y0424336D03*
X0285952Y0403587D03*
X0292487Y0403824D03*
X0299377Y0403942D03*
X0299023Y0363627D03*
X0293078Y0363233D03*
X0289968Y0358194D03*
X0286975Y0363391D03*
X0283590Y0358194D03*
X0279692Y0362761D03*
X0280046Y0352800D03*
X0286739Y0352761D03*
X0293196Y0352761D03*
X0299180Y0352721D03*
X0296267Y0358194D03*
X0265519Y0359532D03*
X0265755Y0352958D03*
X0244731Y0355241D03*
X0241975Y0349650D03*
X0245007Y0344060D03*
X0237605Y0344060D03*
X0234613Y0350005D03*
X0237763Y0355241D03*
X0230637Y0355280D03*
X0227487Y0349808D03*
X0230794Y0344178D03*
X0221031Y0346186D03*
X0210401Y0350438D03*
X0205282Y0347013D03*
X0198944Y0339887D03*
X0222842Y0320792D03*
X0239685Y0327003D03*
X0237920Y0336147D03*
X0242251Y0336186D03*
X0267251Y0333902D03*
X0270046Y0328981D03*
X0273078Y0333902D03*
X0276188Y0329139D03*
X0279141Y0333863D03*
X0282448Y0329296D03*
X0279574Y0324493D03*
X0282763Y0320123D03*
X0281031Y0313981D03*
X0285834Y0310438D03*
X0290243Y0314729D03*
X0294062Y0319217D03*
X0289456Y0323469D03*
X0293708Y0328706D03*
X0294613Y0309847D03*
X0271779Y0312485D03*
X0266975Y0312485D03*
X0269298Y0317603D03*
X0257857Y0310613D03*
X0255479Y0296422D03*
X0257015Y0284729D03*
X0252723Y0281107D03*
X0257527Y0278784D03*
X0257566Y0273391D03*
X0253117Y0270320D03*
X0247763Y0267367D03*
X0245991Y0272328D03*
X0239692Y0272170D03*
X0240991Y0267210D03*
X0233629Y0267131D03*
X0227979Y0262623D03*
X0217881Y0270753D03*
X0207369Y0282682D03*
X0225812Y0286469D03*
X0239653Y0280753D03*
X0251542Y0275595D03*
X0266739Y0272249D03*
X0271031Y0277210D03*
X0274574Y0272091D03*
X0275637Y0281737D03*
X0270834Y0285713D03*
X0266031Y0281343D03*
X0280912Y0238076D03*
X0286857Y0238351D03*
X0292802Y0238115D03*
X0298865Y0238509D03*
X0296857Y0232918D03*
X0290204Y0232564D03*
X0284062Y0232485D03*
X0287212Y0226698D03*
X0292842Y0226658D03*
X0299495Y0226698D03*
X0281109Y0226580D03*
X0267566Y0226461D03*
X0267605Y0233706D03*
X0247172Y0233036D03*
X0244849Y0228115D03*
X0241227Y0232997D03*
X0238117Y0228076D03*
X0234692Y0232761D03*
X0231660Y0228036D03*
X0228471Y0233036D03*
X0231503Y0237997D03*
X0237920Y0237997D03*
X0244495Y0238194D03*
X0224692Y0238391D03*
X0224534Y0227643D03*
X0233511Y0218587D03*
X0237723Y0218587D03*
X0239141Y0202091D03*
X0223983Y0198784D03*
X0201424Y0220832D03*
X0187960Y0195595D03*
X0187664Y0184513D03*
X0187802Y0178430D03*
X0186660Y0162406D03*
X0188393Y0156658D03*
X0208432Y0162721D03*
X0214456Y0152210D03*
X0225125Y0160477D03*
X0241621Y0154887D03*
X0240952Y0145713D03*
X0237290Y0141265D03*
X0233432Y0145635D03*
X0246267Y0141186D03*
X0247999Y0146540D03*
X0252645Y0151068D03*
X0257015Y0146895D03*
X0253629Y0142170D03*
X0266739Y0144572D03*
X0271779Y0147564D03*
X0275794Y0144611D03*
X0276267Y0151501D03*
X0272251Y0155241D03*
X0276031Y0159729D03*
X0267330Y0159847D03*
X0257566Y0155517D03*
X0252527Y0158036D03*
X0266818Y0152406D03*
X0256936Y0169493D03*
X0267251Y0185674D03*
X0272448Y0185674D03*
X0269653Y0190950D03*
X0258511Y0190438D03*
X0314810Y0152682D03*
X0318786Y0155044D03*
X0319023Y0150674D03*
X0330794Y0134336D03*
X0336779Y0123548D03*
X0313235Y0123902D03*
X0307999Y0123587D03*
X0301621Y0125871D03*
X0298471Y0130379D03*
X0346601Y0166836D03*
X0332527Y0174769D03*
X0332448Y0182013D03*
X0332448Y0190162D03*
X0326267Y0193981D03*
X0332684Y0197485D03*
X0393314Y0173233D03*
X0398471Y0164217D03*
X0411090Y0164080D03*
X0400282Y0146580D03*
X0394101Y0147091D03*
X0394495Y0134769D03*
X0384259Y0134647D03*
X0378629Y0126501D03*
X0359849Y0142170D03*
X0421227Y0117603D03*
X0437842Y0154139D03*
X0435086Y0162328D03*
X0433668Y0169375D03*
X0433511Y0180832D03*
X0445755Y0186107D03*
X0449968Y0193942D03*
X0429968Y0197761D03*
X0426857Y0203469D03*
X0410361Y0188666D03*
X0401464Y0195713D03*
X0388196Y0244257D03*
X0384653Y0262170D03*
X0390164Y0283863D03*
X0408983Y0290084D03*
X0431050Y0319591D03*
X0429515Y0340615D03*
X0415755Y0345989D03*
X0409731Y0339847D03*
X0364908Y0390812D03*
X0240716Y0372446D03*
X0233117Y0372485D03*
X0186345Y0312839D03*
X0186345Y0304611D03*
X0186739Y0298233D03*
X0186306Y0289847D03*
X0187094Y0283194D03*
X0206897Y0258076D03*
X0138471Y0268391D03*
X0112566Y0274139D03*
X0097172Y0263469D03*
X0097326Y0258210D03*
X0097326Y0253131D03*
X0097684Y0248154D03*
X0097759Y0243131D03*
X0097696Y0238233D03*
X0123393Y0227879D03*
X0127881Y0227761D03*
X0128393Y0223194D03*
X0123511Y0223036D03*
X0227605Y0134060D03*
X0142999Y0115556D03*
X0130164Y0118784D03*
X0120440Y0323391D03*
D19*
X0118708Y0114060D02*
X0125204Y0107564D01*
X0416936Y0107564D01*
X0423826Y0114454D01*
X0423826Y0130910D01*
X0436306Y0143391D01*
X0447881Y0143391D01*
X0451345Y0146855D01*
X0451345Y0190633D01*
X0450680Y0190358D01*
X0449255Y0190358D01*
X0447937Y0190903D01*
X0446929Y0191911D01*
X0446383Y0193229D01*
X0446383Y0194655D01*
X0446929Y0195972D01*
X0447937Y0196980D01*
X0449255Y0197526D01*
X0450680Y0197526D01*
X0451345Y0197251D01*
X0451345Y0236658D01*
X0445755Y0242249D01*
X0427684Y0242249D01*
X0421503Y0248430D01*
X0421503Y0293351D01*
X0425873Y0297721D01*
X0445794Y0297721D01*
X0450834Y0302761D01*
X0450834Y0388627D01*
X0444456Y0395005D01*
X0398590Y0395005D01*
X0392212Y0388627D01*
X0392212Y0286885D01*
X0393203Y0285893D01*
X0393749Y0284576D01*
X0393749Y0283150D01*
X0393203Y0281833D01*
X0392212Y0280841D01*
X0392212Y0176656D01*
X0392601Y0176817D01*
X0394027Y0176817D01*
X0395344Y0176272D01*
X0396353Y0175263D01*
X0396898Y0173946D01*
X0396898Y0172520D01*
X0396353Y0171203D01*
X0395344Y0170195D01*
X0394027Y0169649D01*
X0392601Y0169649D01*
X0392212Y0169810D01*
X0392212Y0166895D01*
X0390430Y0165113D01*
X0390579Y0164754D01*
X0390579Y0163445D01*
X0390079Y0162236D01*
X0389153Y0161311D01*
X0387945Y0160810D01*
X0386636Y0160810D01*
X0386276Y0160959D01*
X0384062Y0158745D01*
X0321975Y0158745D01*
X0316306Y0153076D01*
X0316306Y0131304D01*
X0311424Y0126422D01*
X0310233Y0126422D01*
X0311038Y0125618D01*
X0311583Y0124300D01*
X0311583Y0122875D01*
X0311038Y0121557D01*
X0310029Y0120549D01*
X0308712Y0120003D01*
X0307286Y0120003D01*
X0305969Y0120549D01*
X0304960Y0121557D01*
X0304415Y0122875D01*
X0304415Y0123596D01*
X0303651Y0122832D01*
X0302334Y0122287D01*
X0300908Y0122287D01*
X0299591Y0122832D01*
X0298582Y0123841D01*
X0298037Y0125158D01*
X0298037Y0126422D01*
X0227881Y0126422D01*
X0219220Y0135084D01*
X0219220Y0267428D01*
X0218594Y0267169D01*
X0217168Y0267169D01*
X0215851Y0267714D01*
X0214842Y0268723D01*
X0214297Y0270040D01*
X0214297Y0271466D01*
X0214842Y0272783D01*
X0215851Y0273791D01*
X0217168Y0274337D01*
X0218594Y0274337D01*
X0219220Y0274078D01*
X0219220Y0343056D01*
X0219000Y0343147D01*
X0217992Y0344156D01*
X0217446Y0345473D01*
X0217446Y0346899D01*
X0217992Y0348216D01*
X0219000Y0349224D01*
X0219220Y0349315D01*
X0219220Y0357091D01*
X0213432Y0362879D01*
X0119968Y0362879D01*
X0116897Y0359808D01*
X0116897Y0330477D01*
X0102408Y0315989D01*
X0102408Y0142721D01*
X0118708Y0126422D01*
X0118708Y0114060D01*
X0118708Y0114370D02*
X0139611Y0114370D01*
X0139415Y0114843D02*
X0139960Y0113526D01*
X0140969Y0112517D01*
X0142286Y0111972D01*
X0143712Y0111972D01*
X0145029Y0112517D01*
X0146038Y0113526D01*
X0146583Y0114843D01*
X0146583Y0116269D01*
X0146038Y0117586D01*
X0145029Y0118595D01*
X0143712Y0119140D01*
X0142286Y0119140D01*
X0140969Y0118595D01*
X0139960Y0117586D01*
X0139415Y0116269D01*
X0139415Y0114843D01*
X0139415Y0115568D02*
X0131766Y0115568D01*
X0132195Y0115746D02*
X0133203Y0116754D01*
X0133749Y0118071D01*
X0133749Y0119497D01*
X0133203Y0120815D01*
X0132195Y0121823D01*
X0130877Y0122369D01*
X0129451Y0122369D01*
X0128134Y0121823D01*
X0127126Y0120815D01*
X0126580Y0119497D01*
X0126580Y0118071D01*
X0127126Y0116754D01*
X0128134Y0115746D01*
X0129451Y0115200D01*
X0130877Y0115200D01*
X0132195Y0115746D01*
X0133208Y0116767D02*
X0139621Y0116767D01*
X0140339Y0117965D02*
X0133705Y0117965D01*
X0133749Y0119164D02*
X0423826Y0119164D01*
X0423826Y0120362D02*
X0338453Y0120362D01*
X0338809Y0120510D02*
X0339817Y0121518D01*
X0340363Y0122835D01*
X0340363Y0124261D01*
X0339817Y0125578D01*
X0338809Y0126587D01*
X0337492Y0127132D01*
X0336066Y0127132D01*
X0334748Y0126587D01*
X0333740Y0125578D01*
X0333194Y0124261D01*
X0333194Y0122835D01*
X0333740Y0121518D01*
X0334748Y0120510D01*
X0336066Y0119964D01*
X0337492Y0119964D01*
X0338809Y0120510D01*
X0339835Y0121561D02*
X0423826Y0121561D01*
X0423826Y0122759D02*
X0340331Y0122759D01*
X0340363Y0123958D02*
X0423826Y0123958D01*
X0423826Y0125156D02*
X0339992Y0125156D01*
X0339041Y0126355D02*
X0423826Y0126355D01*
X0423826Y0127553D02*
X0312555Y0127553D01*
X0313754Y0128752D02*
X0423826Y0128752D01*
X0423826Y0129950D02*
X0314952Y0129950D01*
X0316151Y0131149D02*
X0329122Y0131149D01*
X0328764Y0131297D02*
X0330081Y0130751D01*
X0331507Y0130751D01*
X0332825Y0131297D01*
X0333833Y0132305D01*
X0334379Y0133623D01*
X0334379Y0135048D01*
X0333833Y0136366D01*
X0332825Y0137374D01*
X0331507Y0137920D01*
X0330081Y0137920D01*
X0328764Y0137374D01*
X0327756Y0136366D01*
X0327210Y0135048D01*
X0327210Y0133623D01*
X0327756Y0132305D01*
X0328764Y0131297D01*
X0327738Y0132347D02*
X0316306Y0132347D01*
X0316306Y0133546D02*
X0327242Y0133546D01*
X0327210Y0134744D02*
X0316306Y0134744D01*
X0316306Y0135943D02*
X0327580Y0135943D01*
X0328531Y0137141D02*
X0316306Y0137141D01*
X0316306Y0138340D02*
X0393751Y0138340D01*
X0393782Y0138353D02*
X0392465Y0137807D01*
X0391457Y0136799D01*
X0390911Y0135482D01*
X0390911Y0134056D01*
X0391457Y0132738D01*
X0392465Y0131730D01*
X0393782Y0131184D01*
X0395208Y0131184D01*
X0396525Y0131730D01*
X0397534Y0132738D01*
X0398079Y0134056D01*
X0398079Y0135482D01*
X0397534Y0136799D01*
X0396525Y0137807D01*
X0395208Y0138353D01*
X0393782Y0138353D01*
X0395240Y0138340D02*
X0431255Y0138340D01*
X0432454Y0139538D02*
X0362286Y0139538D01*
X0361880Y0139132D02*
X0362888Y0140140D01*
X0363434Y0141457D01*
X0363434Y0142883D01*
X0362888Y0144200D01*
X0361880Y0145209D01*
X0360562Y0145754D01*
X0359136Y0145754D01*
X0357819Y0145209D01*
X0356811Y0144200D01*
X0356265Y0142883D01*
X0356265Y0141457D01*
X0356811Y0140140D01*
X0357819Y0139132D01*
X0359136Y0138586D01*
X0360562Y0138586D01*
X0361880Y0139132D01*
X0363135Y0140737D02*
X0433652Y0140737D01*
X0434851Y0141935D02*
X0363434Y0141935D01*
X0363330Y0143134D02*
X0399235Y0143134D01*
X0399570Y0142995D02*
X0400995Y0142995D01*
X0402313Y0143541D01*
X0403321Y0144549D01*
X0403867Y0145867D01*
X0403867Y0147293D01*
X0403321Y0148610D01*
X0402313Y0149618D01*
X0400995Y0150164D01*
X0399570Y0150164D01*
X0398252Y0149618D01*
X0397320Y0148686D01*
X0397140Y0149122D01*
X0396132Y0150130D01*
X0394814Y0150676D01*
X0393388Y0150676D01*
X0392071Y0150130D01*
X0391063Y0149122D01*
X0390517Y0147804D01*
X0390517Y0146378D01*
X0391063Y0145061D01*
X0392071Y0144053D01*
X0393388Y0143507D01*
X0394814Y0143507D01*
X0396132Y0144053D01*
X0397064Y0144985D01*
X0397244Y0144549D01*
X0398252Y0143541D01*
X0399570Y0142995D01*
X0401330Y0143134D02*
X0436049Y0143134D01*
X0430057Y0137141D02*
X0397191Y0137141D01*
X0397888Y0135943D02*
X0428858Y0135943D01*
X0427660Y0134744D02*
X0398079Y0134744D01*
X0397868Y0133546D02*
X0426461Y0133546D01*
X0425263Y0132347D02*
X0397143Y0132347D01*
X0391848Y0132347D02*
X0333850Y0132347D01*
X0334347Y0133546D02*
X0391122Y0133546D01*
X0390911Y0134744D02*
X0334379Y0134744D01*
X0334008Y0135943D02*
X0391102Y0135943D01*
X0391799Y0137141D02*
X0333057Y0137141D01*
X0332467Y0131149D02*
X0424064Y0131149D01*
X0423826Y0117965D02*
X0416068Y0117965D01*
X0415649Y0118384D02*
X0414441Y0118884D01*
X0413132Y0118884D01*
X0411923Y0118384D01*
X0410998Y0117458D01*
X0410497Y0116250D01*
X0410497Y0114941D01*
X0410998Y0113732D01*
X0411923Y0112807D01*
X0413132Y0112306D01*
X0414441Y0112306D01*
X0415649Y0112807D01*
X0416575Y0113732D01*
X0417075Y0114941D01*
X0417075Y0116250D01*
X0416575Y0117458D01*
X0415649Y0118384D01*
X0416861Y0116767D02*
X0423826Y0116767D01*
X0423826Y0115568D02*
X0417075Y0115568D01*
X0416839Y0114370D02*
X0423742Y0114370D01*
X0422543Y0113171D02*
X0416013Y0113171D01*
X0411559Y0113171D02*
X0145683Y0113171D01*
X0146387Y0114370D02*
X0410734Y0114370D01*
X0410497Y0115568D02*
X0146583Y0115568D01*
X0146377Y0116767D02*
X0410712Y0116767D01*
X0411505Y0117965D02*
X0145659Y0117965D01*
X0143714Y0111973D02*
X0421345Y0111973D01*
X0420146Y0110774D02*
X0121994Y0110774D01*
X0123192Y0109575D02*
X0418948Y0109575D01*
X0417749Y0108377D02*
X0124391Y0108377D01*
X0120795Y0111973D02*
X0142284Y0111973D01*
X0140315Y0113171D02*
X0119597Y0113171D01*
X0118708Y0115568D02*
X0128563Y0115568D01*
X0127121Y0116767D02*
X0118708Y0116767D01*
X0118708Y0117965D02*
X0126624Y0117965D01*
X0126580Y0119164D02*
X0118708Y0119164D01*
X0118708Y0120362D02*
X0126938Y0120362D01*
X0127872Y0121561D02*
X0118708Y0121561D01*
X0118708Y0122759D02*
X0299768Y0122759D01*
X0298534Y0123958D02*
X0118708Y0123958D01*
X0118708Y0125156D02*
X0298038Y0125156D01*
X0298037Y0126355D02*
X0118708Y0126355D01*
X0117577Y0127553D02*
X0226750Y0127553D01*
X0225551Y0128752D02*
X0116378Y0128752D01*
X0115180Y0129950D02*
X0224353Y0129950D01*
X0223154Y0131149D02*
X0113981Y0131149D01*
X0112783Y0132347D02*
X0221956Y0132347D01*
X0220757Y0133546D02*
X0111584Y0133546D01*
X0110386Y0134744D02*
X0219559Y0134744D01*
X0219220Y0135943D02*
X0109187Y0135943D01*
X0107989Y0137141D02*
X0219220Y0137141D01*
X0219220Y0138340D02*
X0106790Y0138340D01*
X0105592Y0139538D02*
X0219220Y0139538D01*
X0219220Y0140737D02*
X0163393Y0140737D01*
X0163555Y0140804D02*
X0164975Y0142224D01*
X0165744Y0144079D01*
X0165744Y0146088D01*
X0164975Y0147943D01*
X0163555Y0149363D01*
X0161816Y0150084D01*
X0163555Y0150804D01*
X0164975Y0152224D01*
X0165744Y0154079D01*
X0165744Y0156088D01*
X0164975Y0157943D01*
X0163555Y0159363D01*
X0161816Y0160084D01*
X0163555Y0160804D01*
X0164975Y0162224D01*
X0165744Y0164079D01*
X0165744Y0166088D01*
X0164975Y0167943D01*
X0163555Y0169363D01*
X0161700Y0170132D01*
X0159692Y0170132D01*
X0157836Y0169363D01*
X0156416Y0167943D01*
X0155648Y0166088D01*
X0155648Y0164079D01*
X0156416Y0162224D01*
X0157836Y0160804D01*
X0159576Y0160084D01*
X0157836Y0159363D01*
X0156416Y0157943D01*
X0155648Y0156088D01*
X0155648Y0154079D01*
X0156416Y0152224D01*
X0157836Y0150804D01*
X0159576Y0150084D01*
X0157836Y0149363D01*
X0156416Y0147943D01*
X0155648Y0146088D01*
X0155648Y0144079D01*
X0156416Y0142224D01*
X0157836Y0140804D01*
X0159692Y0140036D01*
X0161700Y0140036D01*
X0163555Y0140804D01*
X0164687Y0141935D02*
X0219220Y0141935D01*
X0219220Y0143134D02*
X0165352Y0143134D01*
X0165744Y0144332D02*
X0219220Y0144332D01*
X0219220Y0145531D02*
X0165744Y0145531D01*
X0165478Y0146729D02*
X0219220Y0146729D01*
X0219220Y0147928D02*
X0164982Y0147928D01*
X0163792Y0149126D02*
X0212533Y0149126D01*
X0212425Y0149171D02*
X0213743Y0148625D01*
X0215169Y0148625D01*
X0216486Y0149171D01*
X0217494Y0150179D01*
X0218040Y0151497D01*
X0218040Y0152922D01*
X0217494Y0154240D01*
X0216486Y0155248D01*
X0215169Y0155794D01*
X0213743Y0155794D01*
X0212425Y0155248D01*
X0211417Y0154240D01*
X0210871Y0152922D01*
X0210871Y0151497D01*
X0211417Y0150179D01*
X0212425Y0149171D01*
X0211357Y0150325D02*
X0162399Y0150325D01*
X0164275Y0151523D02*
X0210871Y0151523D01*
X0210871Y0152722D02*
X0165182Y0152722D01*
X0165678Y0153920D02*
X0211285Y0153920D01*
X0212296Y0155119D02*
X0165744Y0155119D01*
X0165649Y0156317D02*
X0219220Y0156317D01*
X0219220Y0155119D02*
X0216615Y0155119D01*
X0217627Y0153920D02*
X0219220Y0153920D01*
X0219220Y0152722D02*
X0218040Y0152722D01*
X0218040Y0151523D02*
X0219220Y0151523D01*
X0219220Y0150325D02*
X0217555Y0150325D01*
X0216378Y0149126D02*
X0219220Y0149126D01*
X0219220Y0157516D02*
X0165152Y0157516D01*
X0164204Y0158714D02*
X0219220Y0158714D01*
X0219220Y0159913D02*
X0210693Y0159913D01*
X0210462Y0159683D02*
X0211471Y0160691D01*
X0212016Y0162008D01*
X0212016Y0163434D01*
X0211471Y0164752D01*
X0210462Y0165760D01*
X0209145Y0166306D01*
X0207719Y0166306D01*
X0206402Y0165760D01*
X0205394Y0164752D01*
X0204848Y0163434D01*
X0204848Y0162008D01*
X0205394Y0160691D01*
X0206402Y0159683D01*
X0207719Y0159137D01*
X0209145Y0159137D01*
X0210462Y0159683D01*
X0211645Y0161111D02*
X0219220Y0161111D01*
X0219220Y0162310D02*
X0212016Y0162310D01*
X0211986Y0163508D02*
X0219220Y0163508D01*
X0219220Y0164707D02*
X0211489Y0164707D01*
X0210111Y0165906D02*
X0219220Y0165906D01*
X0219220Y0167104D02*
X0165323Y0167104D01*
X0165744Y0165906D02*
X0185742Y0165906D01*
X0185947Y0165991D02*
X0184630Y0165445D01*
X0183622Y0164437D01*
X0183076Y0163119D01*
X0183076Y0161693D01*
X0183622Y0160376D01*
X0184630Y0159368D01*
X0185947Y0158822D01*
X0187373Y0158822D01*
X0188691Y0159368D01*
X0189699Y0160376D01*
X0190245Y0161693D01*
X0190245Y0163119D01*
X0189699Y0164437D01*
X0188691Y0165445D01*
X0187373Y0165991D01*
X0185947Y0165991D01*
X0187579Y0165906D02*
X0206753Y0165906D01*
X0205375Y0164707D02*
X0189429Y0164707D01*
X0190083Y0163508D02*
X0204879Y0163508D01*
X0204848Y0162310D02*
X0190245Y0162310D01*
X0190004Y0161111D02*
X0205219Y0161111D01*
X0206172Y0159913D02*
X0189236Y0159913D01*
X0184085Y0159913D02*
X0162228Y0159913D01*
X0163863Y0161111D02*
X0183317Y0161111D01*
X0183076Y0162310D02*
X0165011Y0162310D01*
X0165507Y0163508D02*
X0183237Y0163508D01*
X0183892Y0164707D02*
X0165744Y0164707D01*
X0164616Y0168303D02*
X0219220Y0168303D01*
X0219220Y0169501D02*
X0163222Y0169501D01*
X0158170Y0169501D02*
X0102408Y0169501D01*
X0102408Y0168303D02*
X0156776Y0168303D01*
X0156069Y0167104D02*
X0102408Y0167104D01*
X0102408Y0165906D02*
X0155648Y0165906D01*
X0155648Y0164707D02*
X0102408Y0164707D01*
X0102408Y0163508D02*
X0155884Y0163508D01*
X0156381Y0162310D02*
X0102408Y0162310D01*
X0102408Y0161111D02*
X0157529Y0161111D01*
X0159164Y0159913D02*
X0102408Y0159913D01*
X0102408Y0158714D02*
X0157188Y0158714D01*
X0156239Y0157516D02*
X0102408Y0157516D01*
X0102408Y0156317D02*
X0155743Y0156317D01*
X0155648Y0155119D02*
X0102408Y0155119D01*
X0102408Y0153920D02*
X0155714Y0153920D01*
X0156210Y0152722D02*
X0102408Y0152722D01*
X0102408Y0151523D02*
X0157117Y0151523D01*
X0158993Y0150325D02*
X0102408Y0150325D01*
X0102408Y0149126D02*
X0157600Y0149126D01*
X0156410Y0147928D02*
X0102408Y0147928D01*
X0102408Y0146729D02*
X0155914Y0146729D01*
X0155648Y0145531D02*
X0102408Y0145531D01*
X0102408Y0144332D02*
X0155648Y0144332D01*
X0156040Y0143134D02*
X0102408Y0143134D01*
X0103195Y0141935D02*
X0156705Y0141935D01*
X0157999Y0140737D02*
X0104393Y0140737D01*
X0132457Y0121561D02*
X0304959Y0121561D01*
X0304463Y0122759D02*
X0303475Y0122759D01*
X0306420Y0120362D02*
X0133390Y0120362D01*
X0102408Y0170700D02*
X0219220Y0170700D01*
X0219220Y0171898D02*
X0102408Y0171898D01*
X0102408Y0173097D02*
X0219220Y0173097D01*
X0219220Y0174295D02*
X0102408Y0174295D01*
X0102408Y0175494D02*
X0219220Y0175494D01*
X0219220Y0176692D02*
X0102408Y0176692D01*
X0102408Y0177891D02*
X0219220Y0177891D01*
X0219220Y0179089D02*
X0102408Y0179089D01*
X0102408Y0180288D02*
X0219220Y0180288D01*
X0219220Y0181486D02*
X0189707Y0181486D01*
X0189695Y0181474D02*
X0190703Y0182482D01*
X0191249Y0183800D01*
X0191249Y0185226D01*
X0190703Y0186543D01*
X0189695Y0187551D01*
X0188377Y0188097D01*
X0186951Y0188097D01*
X0185634Y0187551D01*
X0184626Y0186543D01*
X0184080Y0185226D01*
X0184080Y0183800D01*
X0184626Y0182482D01*
X0185634Y0181474D01*
X0186951Y0180928D01*
X0188377Y0180928D01*
X0189695Y0181474D01*
X0190787Y0182685D02*
X0219220Y0182685D01*
X0219220Y0183883D02*
X0191249Y0183883D01*
X0191249Y0185082D02*
X0219220Y0185082D01*
X0219220Y0186280D02*
X0190812Y0186280D01*
X0189767Y0187479D02*
X0219220Y0187479D01*
X0219220Y0188677D02*
X0102408Y0188677D01*
X0102408Y0187479D02*
X0185562Y0187479D01*
X0184517Y0186280D02*
X0102408Y0186280D01*
X0102408Y0185082D02*
X0184080Y0185082D01*
X0184080Y0183883D02*
X0102408Y0183883D01*
X0102408Y0182685D02*
X0184542Y0182685D01*
X0185622Y0181486D02*
X0102408Y0181486D01*
X0102408Y0189876D02*
X0219220Y0189876D01*
X0219220Y0191074D02*
X0102408Y0191074D01*
X0102408Y0192273D02*
X0219220Y0192273D01*
X0219220Y0193471D02*
X0102408Y0193471D01*
X0102408Y0194670D02*
X0219220Y0194670D01*
X0219220Y0195868D02*
X0102408Y0195868D01*
X0102408Y0197067D02*
X0219220Y0197067D01*
X0219220Y0198265D02*
X0161523Y0198265D01*
X0161424Y0198224D02*
X0163280Y0198993D01*
X0164700Y0200413D01*
X0165468Y0202268D01*
X0165468Y0204277D01*
X0164700Y0206132D01*
X0163280Y0207552D01*
X0161540Y0208273D01*
X0163280Y0208993D01*
X0164700Y0210413D01*
X0165468Y0212268D01*
X0165468Y0214277D01*
X0164700Y0216132D01*
X0163280Y0217552D01*
X0161540Y0218273D01*
X0163280Y0218993D01*
X0164700Y0220413D01*
X0165468Y0222268D01*
X0165468Y0224277D01*
X0164700Y0226132D01*
X0163280Y0227552D01*
X0161424Y0228321D01*
X0159416Y0228321D01*
X0157561Y0227552D01*
X0156141Y0226132D01*
X0155372Y0224277D01*
X0155372Y0222268D01*
X0156141Y0220413D01*
X0157561Y0218993D01*
X0159300Y0218273D01*
X0157561Y0217552D01*
X0156141Y0216132D01*
X0155372Y0214277D01*
X0155372Y0212268D01*
X0156141Y0210413D01*
X0157561Y0208993D01*
X0159300Y0208273D01*
X0157561Y0207552D01*
X0156141Y0206132D01*
X0155372Y0204277D01*
X0155372Y0202268D01*
X0156141Y0200413D01*
X0157561Y0198993D01*
X0159416Y0198224D01*
X0161424Y0198224D01*
X0159318Y0198265D02*
X0102408Y0198265D01*
X0102408Y0199464D02*
X0157090Y0199464D01*
X0156038Y0200662D02*
X0102408Y0200662D01*
X0102408Y0201861D02*
X0155541Y0201861D01*
X0155372Y0203059D02*
X0102408Y0203059D01*
X0102408Y0204258D02*
X0155372Y0204258D01*
X0155861Y0205456D02*
X0102408Y0205456D01*
X0102408Y0206655D02*
X0156664Y0206655D01*
X0158288Y0207853D02*
X0102408Y0207853D01*
X0102408Y0209052D02*
X0157502Y0209052D01*
X0156303Y0210250D02*
X0102408Y0210250D01*
X0102408Y0211449D02*
X0155712Y0211449D01*
X0155372Y0212647D02*
X0102408Y0212647D01*
X0102408Y0213846D02*
X0155372Y0213846D01*
X0155690Y0215044D02*
X0102408Y0215044D01*
X0102408Y0216243D02*
X0156252Y0216243D01*
X0157450Y0217441D02*
X0102408Y0217441D01*
X0102408Y0218640D02*
X0158413Y0218640D01*
X0156715Y0219839D02*
X0102408Y0219839D01*
X0102408Y0221037D02*
X0155882Y0221037D01*
X0155386Y0222236D02*
X0102408Y0222236D01*
X0102408Y0223434D02*
X0155372Y0223434D01*
X0155520Y0224633D02*
X0102408Y0224633D01*
X0102408Y0225831D02*
X0156016Y0225831D01*
X0157038Y0227030D02*
X0102408Y0227030D01*
X0102408Y0228228D02*
X0159193Y0228228D01*
X0161648Y0228228D02*
X0219220Y0228228D01*
X0219220Y0227030D02*
X0163802Y0227030D01*
X0164824Y0225831D02*
X0219220Y0225831D01*
X0219220Y0224633D02*
X0165321Y0224633D01*
X0165468Y0223434D02*
X0198958Y0223434D01*
X0199394Y0223870D02*
X0198386Y0222862D01*
X0197840Y0221545D01*
X0197840Y0220119D01*
X0198386Y0218801D01*
X0199394Y0217793D01*
X0200711Y0217247D01*
X0202137Y0217247D01*
X0203455Y0217793D01*
X0204463Y0218801D01*
X0205008Y0220119D01*
X0205008Y0221545D01*
X0204463Y0222862D01*
X0203455Y0223870D01*
X0202137Y0224416D01*
X0200711Y0224416D01*
X0199394Y0223870D01*
X0198126Y0222236D02*
X0165455Y0222236D01*
X0164958Y0221037D02*
X0197840Y0221037D01*
X0197956Y0219839D02*
X0164125Y0219839D01*
X0162428Y0218640D02*
X0198547Y0218640D01*
X0200242Y0217441D02*
X0163390Y0217441D01*
X0164589Y0216243D02*
X0219220Y0216243D01*
X0219220Y0217441D02*
X0202606Y0217441D01*
X0204302Y0218640D02*
X0219220Y0218640D01*
X0219220Y0219839D02*
X0204892Y0219839D01*
X0205008Y0221037D02*
X0219220Y0221037D01*
X0219220Y0222236D02*
X0204722Y0222236D01*
X0203891Y0223434D02*
X0219220Y0223434D01*
X0219220Y0229427D02*
X0102408Y0229427D01*
X0102408Y0230625D02*
X0219220Y0230625D01*
X0219220Y0231824D02*
X0102408Y0231824D01*
X0102408Y0233022D02*
X0219220Y0233022D01*
X0219220Y0234221D02*
X0102408Y0234221D01*
X0102408Y0235419D02*
X0219220Y0235419D01*
X0219220Y0236618D02*
X0102408Y0236618D01*
X0102408Y0237816D02*
X0219220Y0237816D01*
X0219220Y0239015D02*
X0102408Y0239015D01*
X0102408Y0240213D02*
X0219220Y0240213D01*
X0219220Y0241412D02*
X0102408Y0241412D01*
X0102408Y0242610D02*
X0219220Y0242610D01*
X0219220Y0243809D02*
X0102408Y0243809D01*
X0102408Y0245007D02*
X0219220Y0245007D01*
X0219220Y0246206D02*
X0102408Y0246206D01*
X0102408Y0247404D02*
X0219220Y0247404D01*
X0219220Y0248603D02*
X0102408Y0248603D01*
X0102408Y0249801D02*
X0219220Y0249801D01*
X0219220Y0251000D02*
X0102408Y0251000D01*
X0102408Y0252198D02*
X0219220Y0252198D01*
X0219220Y0253397D02*
X0102408Y0253397D01*
X0102408Y0254595D02*
X0205933Y0254595D01*
X0206184Y0254491D02*
X0207610Y0254491D01*
X0208927Y0255037D01*
X0209935Y0256045D01*
X0210481Y0257363D01*
X0210481Y0258789D01*
X0209935Y0260106D01*
X0208927Y0261114D01*
X0207610Y0261660D01*
X0206184Y0261660D01*
X0204866Y0261114D01*
X0203858Y0260106D01*
X0203312Y0258789D01*
X0203312Y0257363D01*
X0203858Y0256045D01*
X0204866Y0255037D01*
X0206184Y0254491D01*
X0207861Y0254595D02*
X0219220Y0254595D01*
X0219220Y0255794D02*
X0209684Y0255794D01*
X0210328Y0256992D02*
X0219220Y0256992D01*
X0219220Y0258191D02*
X0210481Y0258191D01*
X0210232Y0259389D02*
X0219220Y0259389D01*
X0219220Y0260588D02*
X0209453Y0260588D01*
X0204340Y0260588D02*
X0161748Y0260588D01*
X0162650Y0260962D02*
X0160794Y0260193D01*
X0158786Y0260193D01*
X0156931Y0260962D01*
X0155511Y0262382D01*
X0154742Y0264237D01*
X0154742Y0266245D01*
X0155511Y0268100D01*
X0156931Y0269521D01*
X0158670Y0270241D01*
X0156931Y0270962D01*
X0155511Y0272382D01*
X0154742Y0274237D01*
X0154742Y0276245D01*
X0155511Y0278100D01*
X0156931Y0279521D01*
X0158670Y0280241D01*
X0156931Y0280962D01*
X0155511Y0282382D01*
X0154742Y0284237D01*
X0154742Y0286245D01*
X0155511Y0288100D01*
X0156931Y0289521D01*
X0158786Y0290289D01*
X0160794Y0290289D01*
X0162650Y0289521D01*
X0164070Y0288100D01*
X0164838Y0286245D01*
X0164838Y0284237D01*
X0164070Y0282382D01*
X0162650Y0280962D01*
X0160910Y0280241D01*
X0162650Y0279521D01*
X0164070Y0278100D01*
X0164838Y0276245D01*
X0164838Y0274237D01*
X0164070Y0272382D01*
X0162650Y0270962D01*
X0160910Y0270241D01*
X0162650Y0269521D01*
X0164070Y0268100D01*
X0164838Y0266245D01*
X0164838Y0264237D01*
X0164070Y0262382D01*
X0162650Y0260962D01*
X0163475Y0261786D02*
X0219220Y0261786D01*
X0219220Y0262985D02*
X0164320Y0262985D01*
X0164816Y0264183D02*
X0219220Y0264183D01*
X0219220Y0265382D02*
X0164838Y0265382D01*
X0164699Y0266580D02*
X0219220Y0266580D01*
X0215786Y0267779D02*
X0164203Y0267779D01*
X0163193Y0268977D02*
X0214737Y0268977D01*
X0214297Y0270176D02*
X0161067Y0270176D01*
X0163063Y0271375D02*
X0214297Y0271375D01*
X0214755Y0272573D02*
X0164149Y0272573D01*
X0164646Y0273772D02*
X0215831Y0273772D01*
X0219220Y0274970D02*
X0164838Y0274970D01*
X0164838Y0276169D02*
X0219220Y0276169D01*
X0219220Y0277367D02*
X0164374Y0277367D01*
X0163605Y0278566D02*
X0219220Y0278566D01*
X0219220Y0279764D02*
X0209520Y0279764D01*
X0209399Y0279643D02*
X0210408Y0280652D01*
X0210953Y0281969D01*
X0210953Y0283395D01*
X0210408Y0284712D01*
X0209399Y0285721D01*
X0208082Y0286266D01*
X0206656Y0286266D01*
X0205339Y0285721D01*
X0204331Y0284712D01*
X0203785Y0283395D01*
X0203785Y0281969D01*
X0204331Y0280652D01*
X0205339Y0279643D01*
X0206656Y0279098D01*
X0208082Y0279098D01*
X0209399Y0279643D01*
X0210536Y0280963D02*
X0219220Y0280963D01*
X0219220Y0282161D02*
X0210953Y0282161D01*
X0210953Y0283360D02*
X0219220Y0283360D01*
X0219220Y0284558D02*
X0210472Y0284558D01*
X0209312Y0285757D02*
X0219220Y0285757D01*
X0219220Y0286955D02*
X0188483Y0286955D01*
X0188336Y0286809D02*
X0189345Y0287817D01*
X0189890Y0289134D01*
X0189890Y0290560D01*
X0189345Y0291878D01*
X0188336Y0292886D01*
X0187019Y0293432D01*
X0185593Y0293432D01*
X0184276Y0292886D01*
X0183268Y0291878D01*
X0182722Y0290560D01*
X0182722Y0289134D01*
X0183268Y0287817D01*
X0184276Y0286809D01*
X0185593Y0286263D01*
X0187019Y0286263D01*
X0188336Y0286809D01*
X0189484Y0288154D02*
X0219220Y0288154D01*
X0219220Y0289352D02*
X0189890Y0289352D01*
X0189890Y0290551D02*
X0219220Y0290551D01*
X0219220Y0291749D02*
X0189398Y0291749D01*
X0188187Y0292948D02*
X0219220Y0292948D01*
X0219220Y0294146D02*
X0102408Y0294146D01*
X0102408Y0292948D02*
X0184425Y0292948D01*
X0183214Y0291749D02*
X0102408Y0291749D01*
X0102408Y0290551D02*
X0182722Y0290551D01*
X0182722Y0289352D02*
X0162818Y0289352D01*
X0164017Y0288154D02*
X0183128Y0288154D01*
X0184129Y0286955D02*
X0164544Y0286955D01*
X0164838Y0285757D02*
X0205426Y0285757D01*
X0204267Y0284558D02*
X0164838Y0284558D01*
X0164475Y0283360D02*
X0203785Y0283360D01*
X0203785Y0282161D02*
X0163849Y0282161D01*
X0162651Y0280963D02*
X0204202Y0280963D01*
X0205218Y0279764D02*
X0162062Y0279764D01*
X0157519Y0279764D02*
X0102408Y0279764D01*
X0102408Y0278566D02*
X0155976Y0278566D01*
X0155207Y0277367D02*
X0114138Y0277367D01*
X0114596Y0277177D02*
X0113279Y0277723D01*
X0111853Y0277723D01*
X0110536Y0277177D01*
X0109527Y0276169D01*
X0108982Y0274852D01*
X0108982Y0273426D01*
X0109527Y0272108D01*
X0110536Y0271100D01*
X0111853Y0270554D01*
X0113279Y0270554D01*
X0114596Y0271100D01*
X0115605Y0272108D01*
X0116150Y0273426D01*
X0116150Y0274852D01*
X0115605Y0276169D01*
X0114596Y0277177D01*
X0115605Y0276169D02*
X0154742Y0276169D01*
X0154742Y0274970D02*
X0116101Y0274970D01*
X0116150Y0273772D02*
X0154935Y0273772D01*
X0155432Y0272573D02*
X0115797Y0272573D01*
X0114871Y0271375D02*
X0136386Y0271375D01*
X0136441Y0271429D02*
X0135433Y0270421D01*
X0134887Y0269104D01*
X0134887Y0267678D01*
X0135433Y0266360D01*
X0136441Y0265352D01*
X0137759Y0264806D01*
X0139184Y0264806D01*
X0140502Y0265352D01*
X0141510Y0266360D01*
X0142056Y0267678D01*
X0142056Y0269104D01*
X0141510Y0270421D01*
X0140502Y0271429D01*
X0139184Y0271975D01*
X0137759Y0271975D01*
X0136441Y0271429D01*
X0135331Y0270176D02*
X0102408Y0270176D01*
X0102408Y0268977D02*
X0134887Y0268977D01*
X0134887Y0267779D02*
X0102408Y0267779D01*
X0102408Y0266580D02*
X0135342Y0266580D01*
X0136411Y0265382D02*
X0102408Y0265382D01*
X0102408Y0264183D02*
X0154764Y0264183D01*
X0154742Y0265382D02*
X0140532Y0265382D01*
X0141601Y0266580D02*
X0154881Y0266580D01*
X0155378Y0267779D02*
X0142056Y0267779D01*
X0142056Y0268977D02*
X0156388Y0268977D01*
X0156518Y0271375D02*
X0140556Y0271375D01*
X0141612Y0270176D02*
X0158513Y0270176D01*
X0155261Y0262985D02*
X0102408Y0262985D01*
X0102408Y0261786D02*
X0156106Y0261786D01*
X0157833Y0260588D02*
X0102408Y0260588D01*
X0102408Y0259389D02*
X0203561Y0259389D01*
X0203312Y0258191D02*
X0102408Y0258191D01*
X0102408Y0256992D02*
X0203466Y0256992D01*
X0204110Y0255794D02*
X0102408Y0255794D01*
X0102408Y0271375D02*
X0110261Y0271375D01*
X0109335Y0272573D02*
X0102408Y0272573D01*
X0102408Y0273772D02*
X0108982Y0273772D01*
X0109031Y0274970D02*
X0102408Y0274970D01*
X0102408Y0276169D02*
X0109527Y0276169D01*
X0110994Y0277367D02*
X0102408Y0277367D01*
X0102408Y0280963D02*
X0156930Y0280963D01*
X0155731Y0282161D02*
X0102408Y0282161D01*
X0102408Y0283360D02*
X0155106Y0283360D01*
X0154742Y0284558D02*
X0102408Y0284558D01*
X0102408Y0285757D02*
X0154742Y0285757D01*
X0155036Y0286955D02*
X0102408Y0286955D01*
X0102408Y0288154D02*
X0155564Y0288154D01*
X0156763Y0289352D02*
X0102408Y0289352D01*
X0102408Y0295345D02*
X0219220Y0295345D01*
X0219220Y0296543D02*
X0102408Y0296543D01*
X0102408Y0297742D02*
X0219220Y0297742D01*
X0219220Y0298940D02*
X0102408Y0298940D01*
X0102408Y0300139D02*
X0219220Y0300139D01*
X0219220Y0301337D02*
X0187808Y0301337D01*
X0188376Y0301573D02*
X0189384Y0302581D01*
X0189930Y0303898D01*
X0189930Y0305324D01*
X0189384Y0306641D01*
X0188376Y0307650D01*
X0187058Y0308195D01*
X0185633Y0308195D01*
X0184315Y0307650D01*
X0183307Y0306641D01*
X0182761Y0305324D01*
X0182761Y0303898D01*
X0183307Y0302581D01*
X0184315Y0301573D01*
X0185633Y0301027D01*
X0187058Y0301027D01*
X0188376Y0301573D01*
X0189339Y0302536D02*
X0219220Y0302536D01*
X0219220Y0303734D02*
X0189862Y0303734D01*
X0189930Y0304933D02*
X0219220Y0304933D01*
X0219220Y0306131D02*
X0189595Y0306131D01*
X0188696Y0307330D02*
X0219220Y0307330D01*
X0219220Y0308528D02*
X0102408Y0308528D01*
X0102408Y0307330D02*
X0183995Y0307330D01*
X0183096Y0306131D02*
X0102408Y0306131D01*
X0102408Y0304933D02*
X0182761Y0304933D01*
X0182829Y0303734D02*
X0102408Y0303734D01*
X0102408Y0302536D02*
X0183352Y0302536D01*
X0184883Y0301337D02*
X0102408Y0301337D01*
X0102408Y0309727D02*
X0219220Y0309727D01*
X0219220Y0310925D02*
X0102408Y0310925D01*
X0102408Y0312124D02*
X0219220Y0312124D01*
X0219220Y0313322D02*
X0102408Y0313322D01*
X0102408Y0314521D02*
X0219220Y0314521D01*
X0219220Y0315719D02*
X0102408Y0315719D01*
X0103337Y0316918D02*
X0219220Y0316918D01*
X0219220Y0318116D02*
X0104536Y0318116D01*
X0105734Y0319315D02*
X0219220Y0319315D01*
X0219220Y0320513D02*
X0162043Y0320513D01*
X0162650Y0320765D02*
X0164070Y0322185D01*
X0164838Y0324040D01*
X0164838Y0326048D01*
X0164070Y0327904D01*
X0162650Y0329324D01*
X0160910Y0330044D01*
X0162650Y0330765D01*
X0164070Y0332185D01*
X0164838Y0334040D01*
X0164838Y0336048D01*
X0164070Y0337904D01*
X0162650Y0339324D01*
X0160910Y0340044D01*
X0162650Y0340765D01*
X0164070Y0342185D01*
X0164838Y0344040D01*
X0164838Y0346048D01*
X0164070Y0347904D01*
X0162650Y0349324D01*
X0160794Y0350092D01*
X0158786Y0350092D01*
X0156931Y0349324D01*
X0155511Y0347904D01*
X0154742Y0346048D01*
X0154742Y0344040D01*
X0155511Y0342185D01*
X0156931Y0340765D01*
X0158670Y0340044D01*
X0156931Y0339324D01*
X0155511Y0337904D01*
X0154742Y0336048D01*
X0154742Y0334040D01*
X0155511Y0332185D01*
X0156931Y0330765D01*
X0158670Y0330044D01*
X0156931Y0329324D01*
X0155511Y0327904D01*
X0154742Y0326048D01*
X0154742Y0324040D01*
X0155511Y0322185D01*
X0156931Y0320765D01*
X0158786Y0319996D01*
X0160794Y0319996D01*
X0162650Y0320765D01*
X0163597Y0321712D02*
X0219220Y0321712D01*
X0219220Y0322910D02*
X0164371Y0322910D01*
X0164838Y0324109D02*
X0219220Y0324109D01*
X0219220Y0325308D02*
X0164838Y0325308D01*
X0164649Y0326506D02*
X0219220Y0326506D01*
X0219220Y0327705D02*
X0164152Y0327705D01*
X0163070Y0328903D02*
X0219220Y0328903D01*
X0219220Y0330102D02*
X0161049Y0330102D01*
X0163185Y0331300D02*
X0219220Y0331300D01*
X0219220Y0332499D02*
X0164200Y0332499D01*
X0164696Y0333697D02*
X0219220Y0333697D01*
X0219220Y0334896D02*
X0164838Y0334896D01*
X0164819Y0336094D02*
X0219220Y0336094D01*
X0219220Y0337293D02*
X0201419Y0337293D01*
X0200974Y0336848D02*
X0201982Y0337856D01*
X0202528Y0339174D01*
X0202528Y0340600D01*
X0201982Y0341917D01*
X0200974Y0342925D01*
X0199657Y0343471D01*
X0198231Y0343471D01*
X0196914Y0342925D01*
X0195905Y0341917D01*
X0195360Y0340600D01*
X0195360Y0339174D01*
X0195905Y0337856D01*
X0196914Y0336848D01*
X0198231Y0336302D01*
X0199657Y0336302D01*
X0200974Y0336848D01*
X0202245Y0338491D02*
X0219220Y0338491D01*
X0219220Y0339690D02*
X0202528Y0339690D01*
X0202409Y0340888D02*
X0219220Y0340888D01*
X0219220Y0342087D02*
X0201813Y0342087D01*
X0200105Y0343285D02*
X0218862Y0343285D01*
X0217856Y0344484D02*
X0207822Y0344484D01*
X0208321Y0344982D02*
X0208867Y0346300D01*
X0208867Y0347194D01*
X0209688Y0346854D01*
X0211114Y0346854D01*
X0212431Y0347399D01*
X0213439Y0348408D01*
X0213985Y0349725D01*
X0213985Y0351151D01*
X0213439Y0352468D01*
X0212431Y0353476D01*
X0211114Y0354022D01*
X0209688Y0354022D01*
X0208370Y0353476D01*
X0207362Y0352468D01*
X0206816Y0351151D01*
X0206816Y0350257D01*
X0205995Y0350597D01*
X0204570Y0350597D01*
X0203252Y0350051D01*
X0202244Y0349043D01*
X0201698Y0347726D01*
X0201698Y0346300D01*
X0202244Y0344982D01*
X0203252Y0343974D01*
X0204570Y0343428D01*
X0205995Y0343428D01*
X0207313Y0343974D01*
X0208321Y0344982D01*
X0208611Y0345682D02*
X0217446Y0345682D01*
X0217446Y0346881D02*
X0211179Y0346881D01*
X0209622Y0346881D02*
X0208867Y0346881D01*
X0206816Y0350476D02*
X0206287Y0350476D01*
X0207033Y0351675D02*
X0116897Y0351675D01*
X0116897Y0352873D02*
X0207767Y0352873D01*
X0204278Y0350476D02*
X0116897Y0350476D01*
X0116897Y0349278D02*
X0156885Y0349278D01*
X0155686Y0348079D02*
X0116897Y0348079D01*
X0116897Y0346881D02*
X0155087Y0346881D01*
X0154742Y0345682D02*
X0116897Y0345682D01*
X0116897Y0344484D02*
X0154742Y0344484D01*
X0155055Y0343285D02*
X0116897Y0343285D01*
X0116897Y0342087D02*
X0155609Y0342087D01*
X0156807Y0340888D02*
X0116897Y0340888D01*
X0116897Y0339690D02*
X0157814Y0339690D01*
X0156098Y0338491D02*
X0116897Y0338491D01*
X0116897Y0337293D02*
X0155258Y0337293D01*
X0154761Y0336094D02*
X0116897Y0336094D01*
X0116897Y0334896D02*
X0154742Y0334896D01*
X0154884Y0333697D02*
X0116897Y0333697D01*
X0116897Y0332499D02*
X0155381Y0332499D01*
X0156395Y0331300D02*
X0116897Y0331300D01*
X0116521Y0330102D02*
X0158532Y0330102D01*
X0156510Y0328903D02*
X0115322Y0328903D01*
X0114124Y0327705D02*
X0155428Y0327705D01*
X0154932Y0326506D02*
X0122285Y0326506D01*
X0122470Y0326429D02*
X0121153Y0326975D01*
X0119727Y0326975D01*
X0118410Y0326429D01*
X0117401Y0325421D01*
X0116856Y0324104D01*
X0116856Y0322678D01*
X0117401Y0321360D01*
X0118410Y0320352D01*
X0119727Y0319806D01*
X0121153Y0319806D01*
X0122470Y0320352D01*
X0123479Y0321360D01*
X0124024Y0322678D01*
X0124024Y0324104D01*
X0123479Y0325421D01*
X0122470Y0326429D01*
X0123526Y0325308D02*
X0154742Y0325308D01*
X0154742Y0324109D02*
X0124022Y0324109D01*
X0124024Y0322910D02*
X0155210Y0322910D01*
X0155984Y0321712D02*
X0123624Y0321712D01*
X0122632Y0320513D02*
X0157537Y0320513D01*
X0164323Y0337293D02*
X0196469Y0337293D01*
X0195642Y0338491D02*
X0163482Y0338491D01*
X0161766Y0339690D02*
X0195360Y0339690D01*
X0195479Y0340888D02*
X0162773Y0340888D01*
X0163972Y0342087D02*
X0196075Y0342087D01*
X0197783Y0343285D02*
X0164526Y0343285D01*
X0164838Y0344484D02*
X0202743Y0344484D01*
X0201954Y0345682D02*
X0164838Y0345682D01*
X0164494Y0346881D02*
X0201698Y0346881D01*
X0201845Y0348079D02*
X0163894Y0348079D01*
X0162696Y0349278D02*
X0202479Y0349278D01*
X0213111Y0348079D02*
X0217935Y0348079D01*
X0219129Y0349278D02*
X0213800Y0349278D01*
X0213985Y0350476D02*
X0219220Y0350476D01*
X0219220Y0351675D02*
X0213768Y0351675D01*
X0213034Y0352873D02*
X0219220Y0352873D01*
X0219220Y0354072D02*
X0116897Y0354072D01*
X0116897Y0355270D02*
X0219220Y0355270D01*
X0219220Y0356469D02*
X0116897Y0356469D01*
X0116897Y0357667D02*
X0218644Y0357667D01*
X0217445Y0358866D02*
X0116897Y0358866D01*
X0117153Y0360064D02*
X0216247Y0360064D01*
X0215048Y0361263D02*
X0118352Y0361263D01*
X0119550Y0362461D02*
X0213850Y0362461D01*
X0215941Y0364858D02*
X0223906Y0364858D01*
X0223903Y0364852D02*
X0223903Y0363426D01*
X0224449Y0362108D01*
X0225457Y0361100D01*
X0226774Y0360554D01*
X0228200Y0360554D01*
X0229518Y0361100D01*
X0230526Y0362108D01*
X0230619Y0362332D01*
X0230630Y0362305D01*
X0231638Y0361297D01*
X0232955Y0360751D01*
X0234381Y0360751D01*
X0235699Y0361297D01*
X0236707Y0362305D01*
X0237066Y0363171D01*
X0237441Y0362266D01*
X0238449Y0361258D01*
X0239766Y0360712D01*
X0241192Y0360712D01*
X0242510Y0361258D01*
X0243518Y0362266D01*
X0244064Y0363583D01*
X0244064Y0364295D01*
X0245366Y0364295D01*
X0245557Y0364374D01*
X0245557Y0364016D01*
X0246102Y0362699D01*
X0247110Y0361691D01*
X0248428Y0361145D01*
X0249854Y0361145D01*
X0251171Y0361691D01*
X0252179Y0362699D01*
X0252725Y0364016D01*
X0252725Y0365442D01*
X0252716Y0365464D01*
X0253966Y0365982D01*
X0254975Y0366990D01*
X0255520Y0368308D01*
X0255520Y0369734D01*
X0254975Y0371051D01*
X0253966Y0372059D01*
X0252649Y0372605D01*
X0251662Y0372605D01*
X0251662Y0373159D01*
X0251116Y0374476D01*
X0250108Y0375484D01*
X0248791Y0376030D01*
X0247365Y0376030D01*
X0246047Y0375484D01*
X0245039Y0374476D01*
X0244494Y0373159D01*
X0244494Y0371733D01*
X0244605Y0371463D01*
X0244188Y0371463D01*
X0244300Y0371733D01*
X0244300Y0373159D01*
X0243754Y0374476D01*
X0242746Y0375484D01*
X0241429Y0376030D01*
X0240003Y0376030D01*
X0238685Y0375484D01*
X0237677Y0374476D01*
X0237131Y0373159D01*
X0237131Y0371817D01*
X0236701Y0371817D01*
X0236701Y0373198D01*
X0236156Y0374515D01*
X0235147Y0375524D01*
X0233830Y0376069D01*
X0232404Y0376069D01*
X0231087Y0375524D01*
X0230079Y0374515D01*
X0229533Y0373198D01*
X0229533Y0371772D01*
X0229661Y0371463D01*
X0229412Y0371463D01*
X0229237Y0371390D01*
X0229379Y0371733D01*
X0229379Y0373159D01*
X0228833Y0374476D01*
X0227825Y0375484D01*
X0226507Y0376030D01*
X0225081Y0376030D01*
X0223764Y0375484D01*
X0222756Y0374476D01*
X0222645Y0374208D01*
X0222534Y0374476D01*
X0221525Y0375484D01*
X0220208Y0376030D01*
X0218782Y0376030D01*
X0217465Y0375484D01*
X0216457Y0374476D01*
X0215911Y0373159D01*
X0215911Y0371733D01*
X0216457Y0370415D01*
X0217465Y0369407D01*
X0218782Y0368861D01*
X0220208Y0368861D01*
X0221525Y0369407D01*
X0222534Y0370415D01*
X0222645Y0370683D01*
X0222756Y0370415D01*
X0223764Y0369407D01*
X0225081Y0368861D01*
X0226507Y0368861D01*
X0226683Y0368934D01*
X0226541Y0368592D01*
X0226541Y0367626D01*
X0225457Y0367177D01*
X0224449Y0366169D01*
X0223903Y0364852D01*
X0223903Y0363660D02*
X0217139Y0363660D01*
X0218338Y0362461D02*
X0224302Y0362461D01*
X0225294Y0361263D02*
X0219536Y0361263D01*
X0220735Y0360064D02*
X0388983Y0360064D01*
X0388983Y0358866D02*
X0221933Y0358866D01*
X0222408Y0358391D02*
X0214692Y0366107D01*
X0212333Y0366107D01*
X0212804Y0367245D01*
X0212804Y0368671D01*
X0212258Y0369988D01*
X0211250Y0370996D01*
X0209932Y0371542D01*
X0208507Y0371542D01*
X0207189Y0370996D01*
X0206181Y0369988D01*
X0205635Y0368671D01*
X0205635Y0367245D01*
X0206106Y0366107D01*
X0119968Y0366107D01*
X0116582Y0369493D01*
X0116582Y0370713D01*
X0116582Y0370851D02*
X0188864Y0370851D01*
X0188864Y0370197D02*
X0189409Y0368880D01*
X0190418Y0367872D01*
X0191735Y0367326D01*
X0193161Y0367326D01*
X0194478Y0367872D01*
X0195486Y0368880D01*
X0195950Y0370000D01*
X0195950Y0369961D01*
X0196496Y0368644D01*
X0197504Y0367636D01*
X0198821Y0367090D01*
X0200247Y0367090D01*
X0201565Y0367636D01*
X0202573Y0368644D01*
X0203119Y0369961D01*
X0203119Y0371387D01*
X0202573Y0372704D01*
X0201565Y0373713D01*
X0200247Y0374258D01*
X0198821Y0374258D01*
X0197504Y0373713D01*
X0196496Y0372704D01*
X0196032Y0371585D01*
X0196032Y0371623D01*
X0195486Y0372941D01*
X0194478Y0373949D01*
X0193161Y0374495D01*
X0191735Y0374495D01*
X0190418Y0373949D01*
X0189409Y0372941D01*
X0188864Y0371623D01*
X0188864Y0370197D01*
X0189089Y0369652D02*
X0116582Y0369652D01*
X0116582Y0369493D02*
X0116582Y0384847D01*
X0126109Y0394375D01*
X0383196Y0394375D01*
X0388983Y0388587D01*
X0388983Y0287253D01*
X0388134Y0286902D01*
X0387126Y0285893D01*
X0386580Y0284576D01*
X0386580Y0283150D01*
X0387126Y0281833D01*
X0388134Y0280824D01*
X0388983Y0280473D01*
X0388983Y0247810D01*
X0388909Y0247841D01*
X0387483Y0247841D01*
X0386166Y0247295D01*
X0385157Y0246287D01*
X0384612Y0244970D01*
X0384612Y0243544D01*
X0385157Y0242226D01*
X0386166Y0241218D01*
X0387483Y0240673D01*
X0388909Y0240673D01*
X0388983Y0240703D01*
X0388983Y0168312D01*
X0388026Y0167355D01*
X0387945Y0167388D01*
X0386636Y0167388D01*
X0385427Y0166888D01*
X0384810Y0166270D01*
X0384232Y0166848D01*
X0383023Y0167349D01*
X0382233Y0167349D01*
X0382233Y0167903D01*
X0381732Y0169112D01*
X0380807Y0170037D01*
X0380405Y0170204D01*
X0380737Y0171004D01*
X0380737Y0172313D01*
X0380236Y0173521D01*
X0379311Y0174447D01*
X0378102Y0174947D01*
X0376794Y0174947D01*
X0375585Y0174447D01*
X0374849Y0173711D01*
X0374114Y0174447D01*
X0372905Y0174947D01*
X0371597Y0174947D01*
X0370388Y0174447D01*
X0369463Y0173521D01*
X0368962Y0172313D01*
X0368962Y0171004D01*
X0369105Y0170658D01*
X0367986Y0170195D01*
X0367061Y0169269D01*
X0366560Y0168061D01*
X0366560Y0166752D01*
X0367061Y0165543D01*
X0367986Y0164618D01*
X0369195Y0164117D01*
X0370504Y0164117D01*
X0371712Y0164618D01*
X0372034Y0164940D01*
X0372356Y0164618D01*
X0373565Y0164117D01*
X0374316Y0164117D01*
X0374316Y0162855D01*
X0374681Y0161973D01*
X0320676Y0161973D01*
X0316806Y0158104D01*
X0316756Y0158083D01*
X0315748Y0157074D01*
X0315727Y0157024D01*
X0314969Y0156266D01*
X0314097Y0156266D01*
X0312780Y0155721D01*
X0311771Y0154712D01*
X0311226Y0153395D01*
X0311226Y0151969D01*
X0311771Y0150652D01*
X0312780Y0149643D01*
X0313038Y0149536D01*
X0313038Y0132997D01*
X0309731Y0129690D01*
X0302056Y0129690D01*
X0302056Y0131092D01*
X0301510Y0132409D01*
X0300502Y0133417D01*
X0299184Y0133963D01*
X0297759Y0133963D01*
X0296441Y0133417D01*
X0295433Y0132409D01*
X0294887Y0131092D01*
X0294887Y0129690D01*
X0266306Y0129690D01*
X0263865Y0132131D01*
X0263865Y0160162D01*
X0265794Y0162091D01*
X0295952Y0162091D01*
X0300952Y0167091D01*
X0300952Y0213784D01*
X0291385Y0223351D01*
X0265676Y0223351D01*
X0263196Y0225832D01*
X0263196Y0285753D01*
X0266424Y0288981D01*
X0294731Y0288981D01*
X0300912Y0295162D01*
X0300912Y0344414D01*
X0294731Y0350595D01*
X0280125Y0350595D01*
X0278157Y0348627D01*
X0278157Y0341619D01*
X0276897Y0340360D01*
X0227443Y0340127D01*
X0223742Y0343829D01*
X0224069Y0344156D01*
X0224615Y0345473D01*
X0224615Y0346899D01*
X0224069Y0348216D01*
X0223061Y0349224D01*
X0222408Y0349495D01*
X0222408Y0358391D01*
X0222408Y0357667D02*
X0227955Y0357667D01*
X0227598Y0357311D02*
X0228607Y0358319D01*
X0229924Y0358865D01*
X0231350Y0358865D01*
X0232667Y0358319D01*
X0233675Y0357311D01*
X0234208Y0356025D01*
X0234724Y0357271D01*
X0235732Y0358280D01*
X0237050Y0358825D01*
X0238476Y0358825D01*
X0239793Y0358280D01*
X0240801Y0357271D01*
X0241247Y0356195D01*
X0241693Y0357271D01*
X0242701Y0358280D01*
X0244018Y0358825D01*
X0245444Y0358825D01*
X0246762Y0358280D01*
X0247770Y0357271D01*
X0248316Y0355954D01*
X0248316Y0354528D01*
X0247770Y0353211D01*
X0246762Y0352202D01*
X0245444Y0351657D01*
X0245024Y0351657D01*
X0245560Y0350363D01*
X0245560Y0348937D01*
X0245024Y0347644D01*
X0245720Y0347644D01*
X0247037Y0347098D01*
X0248045Y0346090D01*
X0248591Y0344773D01*
X0248591Y0343347D01*
X0248045Y0342030D01*
X0247037Y0341021D01*
X0245720Y0340476D01*
X0244294Y0340476D01*
X0242977Y0341021D01*
X0241968Y0342030D01*
X0241423Y0343347D01*
X0241423Y0344773D01*
X0241958Y0346066D01*
X0241262Y0346066D01*
X0240247Y0346487D01*
X0240644Y0346090D01*
X0241190Y0344773D01*
X0241190Y0343347D01*
X0240644Y0342030D01*
X0239636Y0341021D01*
X0238318Y0340476D01*
X0236892Y0340476D01*
X0235575Y0341021D01*
X0234567Y0342030D01*
X0234175Y0342975D01*
X0233833Y0342148D01*
X0232825Y0341139D01*
X0231507Y0340594D01*
X0230081Y0340594D01*
X0228764Y0341139D01*
X0227756Y0342148D01*
X0227210Y0343465D01*
X0227210Y0344891D01*
X0227756Y0346208D01*
X0227771Y0346224D01*
X0226774Y0346224D01*
X0225457Y0346769D01*
X0224449Y0347778D01*
X0223903Y0349095D01*
X0223903Y0350521D01*
X0224449Y0351838D01*
X0225457Y0352847D01*
X0226774Y0353392D01*
X0227539Y0353392D01*
X0227053Y0354567D01*
X0227053Y0355993D01*
X0227598Y0357311D01*
X0227250Y0356469D02*
X0222408Y0356469D01*
X0222408Y0355270D02*
X0227053Y0355270D01*
X0227258Y0354072D02*
X0222408Y0354072D01*
X0222408Y0352873D02*
X0225522Y0352873D01*
X0224381Y0351675D02*
X0222408Y0351675D01*
X0222408Y0350476D02*
X0223903Y0350476D01*
X0223903Y0349278D02*
X0222932Y0349278D01*
X0224126Y0348079D02*
X0224324Y0348079D01*
X0224615Y0346881D02*
X0225346Y0346881D01*
X0224615Y0345682D02*
X0227538Y0345682D01*
X0227210Y0344484D02*
X0224205Y0344484D01*
X0224286Y0343285D02*
X0227285Y0343285D01*
X0227817Y0342087D02*
X0225484Y0342087D01*
X0226683Y0340888D02*
X0229371Y0340888D01*
X0232218Y0340888D02*
X0235897Y0340888D01*
X0234543Y0342087D02*
X0233772Y0342087D01*
X0234224Y0345263D02*
X0233833Y0346208D01*
X0233423Y0346618D01*
X0233900Y0346421D01*
X0234897Y0346421D01*
X0234567Y0346090D01*
X0234224Y0345263D01*
X0234051Y0345682D02*
X0234398Y0345682D01*
X0231985Y0347565D02*
X0231507Y0347762D01*
X0230510Y0347762D01*
X0230526Y0347778D01*
X0231071Y0349095D01*
X0231071Y0349189D01*
X0231575Y0347974D01*
X0231985Y0347565D01*
X0231531Y0348079D02*
X0230651Y0348079D01*
X0231029Y0350624D02*
X0230585Y0351696D01*
X0231350Y0351696D01*
X0231452Y0351738D01*
X0231029Y0350718D01*
X0231029Y0350624D01*
X0231425Y0351675D02*
X0230594Y0351675D01*
X0233798Y0353547D02*
X0234192Y0354496D01*
X0234568Y0353589D01*
X0233900Y0353589D01*
X0233798Y0353547D01*
X0234016Y0354072D02*
X0234368Y0354072D01*
X0234392Y0356469D02*
X0234024Y0356469D01*
X0233319Y0357667D02*
X0235120Y0357667D01*
X0235616Y0361263D02*
X0238444Y0361263D01*
X0237360Y0362461D02*
X0236772Y0362461D01*
X0231720Y0361263D02*
X0229680Y0361263D01*
X0224402Y0366057D02*
X0214742Y0366057D01*
X0212804Y0367255D02*
X0225646Y0367255D01*
X0226541Y0368454D02*
X0212804Y0368454D01*
X0212397Y0369652D02*
X0217220Y0369652D01*
X0216276Y0370851D02*
X0211395Y0370851D01*
X0207044Y0370851D02*
X0203119Y0370851D01*
X0202991Y0369652D02*
X0206042Y0369652D01*
X0205635Y0368454D02*
X0202383Y0368454D01*
X0200647Y0367255D02*
X0205635Y0367255D01*
X0202844Y0372049D02*
X0215911Y0372049D01*
X0215948Y0373248D02*
X0202029Y0373248D01*
X0197039Y0373248D02*
X0195179Y0373248D01*
X0195856Y0372049D02*
X0196225Y0372049D01*
X0196078Y0369652D02*
X0195806Y0369652D01*
X0195060Y0368454D02*
X0196686Y0368454D01*
X0198422Y0367255D02*
X0118819Y0367255D01*
X0119968Y0366107D02*
X0116582Y0369493D01*
X0117621Y0368454D02*
X0189835Y0368454D01*
X0189040Y0372049D02*
X0116582Y0372049D01*
X0116582Y0373248D02*
X0189717Y0373248D01*
X0191619Y0374446D02*
X0116582Y0374446D01*
X0116582Y0375645D02*
X0217853Y0375645D01*
X0216444Y0374446D02*
X0193277Y0374446D01*
X0176303Y0383322D02*
X0176632Y0383967D01*
X0176856Y0384656D01*
X0176963Y0385333D01*
X0172769Y0385333D01*
X0172769Y0381139D01*
X0173446Y0381246D01*
X0174135Y0381470D01*
X0174780Y0381799D01*
X0175366Y0382224D01*
X0175878Y0382736D01*
X0176303Y0383322D01*
X0175950Y0382836D02*
X0240296Y0382836D01*
X0240475Y0382658D02*
X0241061Y0382232D01*
X0241706Y0381903D01*
X0242394Y0381679D01*
X0243071Y0381572D01*
X0243071Y0385766D01*
X0238877Y0385766D01*
X0238985Y0385089D01*
X0239208Y0384400D01*
X0239537Y0383755D01*
X0239963Y0383170D01*
X0240475Y0382658D01*
X0239395Y0384035D02*
X0176654Y0384035D01*
X0176947Y0385233D02*
X0238962Y0385233D01*
X0238877Y0386566D02*
X0243071Y0386566D01*
X0243071Y0385766D01*
X0243871Y0385766D01*
X0243871Y0381572D01*
X0244549Y0381679D01*
X0245237Y0381903D01*
X0245882Y0382232D01*
X0246468Y0382658D01*
X0246980Y0383170D01*
X0247406Y0383755D01*
X0247734Y0384400D01*
X0247958Y0385089D01*
X0248065Y0385766D01*
X0243872Y0385766D01*
X0243872Y0386566D01*
X0248065Y0386566D01*
X0247958Y0387243D01*
X0247734Y0387932D01*
X0247406Y0388577D01*
X0246980Y0389163D01*
X0246468Y0389675D01*
X0245882Y0390100D01*
X0245237Y0390429D01*
X0244549Y0390653D01*
X0243871Y0390760D01*
X0243871Y0386566D01*
X0243071Y0386566D01*
X0243071Y0390760D01*
X0242394Y0390653D01*
X0241706Y0390429D01*
X0241061Y0390100D01*
X0240475Y0389675D01*
X0239963Y0389163D01*
X0239537Y0388577D01*
X0239208Y0387932D01*
X0238985Y0387243D01*
X0238877Y0386566D01*
X0239110Y0387630D02*
X0176565Y0387630D01*
X0176632Y0387499D02*
X0176303Y0388144D01*
X0175878Y0388730D01*
X0175366Y0389242D01*
X0174780Y0389667D01*
X0174135Y0389996D01*
X0173446Y0390220D01*
X0172769Y0390327D01*
X0172769Y0386133D01*
X0176963Y0386133D01*
X0176856Y0386810D01*
X0176632Y0387499D01*
X0176916Y0386432D02*
X0243071Y0386432D01*
X0243872Y0386432D02*
X0324416Y0386432D01*
X0324315Y0386390D02*
X0323307Y0385382D01*
X0322761Y0384064D01*
X0322761Y0382638D01*
X0323307Y0381321D01*
X0324315Y0380313D01*
X0325633Y0379767D01*
X0327058Y0379767D01*
X0328376Y0380313D01*
X0329384Y0381321D01*
X0329930Y0382638D01*
X0329930Y0384064D01*
X0329384Y0385382D01*
X0328376Y0386390D01*
X0327058Y0386935D01*
X0325633Y0386935D01*
X0324315Y0386390D01*
X0323245Y0385233D02*
X0247981Y0385233D01*
X0247548Y0384035D02*
X0322761Y0384035D01*
X0322761Y0382836D02*
X0246647Y0382836D01*
X0244284Y0381638D02*
X0323176Y0381638D01*
X0324189Y0380439D02*
X0116582Y0380439D01*
X0116582Y0379241D02*
X0388983Y0379241D01*
X0388983Y0380439D02*
X0328502Y0380439D01*
X0329515Y0381638D02*
X0388983Y0381638D01*
X0388983Y0382836D02*
X0329930Y0382836D01*
X0329930Y0384035D02*
X0388983Y0384035D01*
X0388983Y0385233D02*
X0329446Y0385233D01*
X0328275Y0386432D02*
X0388983Y0386432D01*
X0388983Y0387630D02*
X0247833Y0387630D01*
X0247223Y0388829D02*
X0388742Y0388829D01*
X0387544Y0390027D02*
X0245983Y0390027D01*
X0243871Y0390027D02*
X0243071Y0390027D01*
X0243071Y0388829D02*
X0243871Y0388829D01*
X0243871Y0387630D02*
X0243071Y0387630D01*
X0243071Y0385233D02*
X0243871Y0385233D01*
X0243871Y0384035D02*
X0243071Y0384035D01*
X0243071Y0382836D02*
X0243871Y0382836D01*
X0243871Y0381638D02*
X0243071Y0381638D01*
X0242659Y0381638D02*
X0174463Y0381638D01*
X0172769Y0381638D02*
X0171969Y0381638D01*
X0171969Y0381139D02*
X0171969Y0385333D01*
X0172769Y0385333D01*
X0172769Y0386133D01*
X0171969Y0386133D01*
X0171969Y0385333D01*
X0167775Y0385333D01*
X0167882Y0384656D01*
X0168106Y0383967D01*
X0168435Y0383322D01*
X0168860Y0382736D01*
X0169372Y0382224D01*
X0169958Y0381799D01*
X0170603Y0381470D01*
X0171292Y0381246D01*
X0171969Y0381139D01*
X0171969Y0382836D02*
X0172769Y0382836D01*
X0172769Y0384035D02*
X0171969Y0384035D01*
X0171969Y0385233D02*
X0172769Y0385233D01*
X0172769Y0386432D02*
X0171969Y0386432D01*
X0171969Y0386133D02*
X0171969Y0390327D01*
X0171292Y0390220D01*
X0170603Y0389996D01*
X0169958Y0389667D01*
X0169372Y0389242D01*
X0168860Y0388730D01*
X0168435Y0388144D01*
X0168106Y0387499D01*
X0167882Y0386810D01*
X0167775Y0386133D01*
X0171969Y0386133D01*
X0171969Y0387630D02*
X0172769Y0387630D01*
X0172769Y0388829D02*
X0171969Y0388829D01*
X0171969Y0390027D02*
X0172769Y0390027D01*
X0174039Y0390027D02*
X0240960Y0390027D01*
X0239720Y0388829D02*
X0175779Y0388829D01*
X0170699Y0390027D02*
X0121762Y0390027D01*
X0122960Y0391226D02*
X0386345Y0391226D01*
X0385147Y0392424D02*
X0124159Y0392424D01*
X0125357Y0393623D02*
X0383948Y0393623D01*
X0392413Y0388829D02*
X0450632Y0388829D01*
X0450834Y0387630D02*
X0392212Y0387630D01*
X0392212Y0386432D02*
X0450834Y0386432D01*
X0450834Y0385233D02*
X0392212Y0385233D01*
X0392212Y0384035D02*
X0450834Y0384035D01*
X0450834Y0382836D02*
X0392212Y0382836D01*
X0392212Y0381638D02*
X0450834Y0381638D01*
X0450834Y0380439D02*
X0392212Y0380439D01*
X0392212Y0379241D02*
X0450834Y0379241D01*
X0450834Y0378042D02*
X0392212Y0378042D01*
X0392212Y0376844D02*
X0450834Y0376844D01*
X0450834Y0375645D02*
X0392212Y0375645D01*
X0392212Y0374446D02*
X0450834Y0374446D01*
X0450834Y0373248D02*
X0392212Y0373248D01*
X0392212Y0372049D02*
X0450834Y0372049D01*
X0450834Y0370851D02*
X0392212Y0370851D01*
X0392212Y0369652D02*
X0450834Y0369652D01*
X0450834Y0368454D02*
X0392212Y0368454D01*
X0392212Y0367255D02*
X0450834Y0367255D01*
X0450834Y0366057D02*
X0392212Y0366057D01*
X0392212Y0364858D02*
X0450834Y0364858D01*
X0450834Y0363660D02*
X0392212Y0363660D01*
X0392212Y0362461D02*
X0450834Y0362461D01*
X0450834Y0361263D02*
X0392212Y0361263D01*
X0392212Y0360064D02*
X0450834Y0360064D01*
X0450834Y0358866D02*
X0392212Y0358866D01*
X0392212Y0357667D02*
X0450834Y0357667D01*
X0450834Y0356469D02*
X0392212Y0356469D01*
X0392212Y0355270D02*
X0450834Y0355270D01*
X0450834Y0354072D02*
X0392212Y0354072D01*
X0392212Y0352873D02*
X0450834Y0352873D01*
X0450834Y0351675D02*
X0392212Y0351675D01*
X0392212Y0350476D02*
X0450834Y0350476D01*
X0450834Y0349278D02*
X0417181Y0349278D01*
X0417785Y0349028D02*
X0416468Y0349573D01*
X0415042Y0349573D01*
X0413725Y0349028D01*
X0412716Y0348019D01*
X0412171Y0346702D01*
X0412171Y0345276D01*
X0412716Y0343959D01*
X0413725Y0342950D01*
X0415042Y0342405D01*
X0416468Y0342405D01*
X0417785Y0342950D01*
X0418794Y0343959D01*
X0419339Y0345276D01*
X0419339Y0346702D01*
X0418794Y0348019D01*
X0417785Y0349028D01*
X0418734Y0348079D02*
X0450834Y0348079D01*
X0450834Y0346881D02*
X0419265Y0346881D01*
X0419339Y0345682D02*
X0450834Y0345682D01*
X0450834Y0344484D02*
X0419011Y0344484D01*
X0418120Y0343285D02*
X0427116Y0343285D01*
X0427484Y0343654D02*
X0426476Y0342645D01*
X0425931Y0341328D01*
X0425931Y0339902D01*
X0426476Y0338585D01*
X0427484Y0337576D01*
X0428802Y0337031D01*
X0430228Y0337031D01*
X0431545Y0337576D01*
X0432553Y0338585D01*
X0433099Y0339902D01*
X0433099Y0341328D01*
X0432553Y0342645D01*
X0431545Y0343654D01*
X0430228Y0344199D01*
X0428802Y0344199D01*
X0427484Y0343654D01*
X0426245Y0342087D02*
X0412561Y0342087D01*
X0412770Y0341878D02*
X0411762Y0342886D01*
X0410444Y0343432D01*
X0409018Y0343432D01*
X0407701Y0342886D01*
X0406693Y0341878D01*
X0406147Y0340560D01*
X0406147Y0339134D01*
X0406693Y0337817D01*
X0407701Y0336809D01*
X0409018Y0336263D01*
X0410444Y0336263D01*
X0411762Y0336809D01*
X0412770Y0337817D01*
X0413316Y0339134D01*
X0413316Y0340560D01*
X0412770Y0341878D01*
X0413180Y0340888D02*
X0425931Y0340888D01*
X0426019Y0339690D02*
X0413316Y0339690D01*
X0413049Y0338491D02*
X0426570Y0338491D01*
X0428170Y0337293D02*
X0412246Y0337293D01*
X0407217Y0337293D02*
X0392212Y0337293D01*
X0392212Y0338491D02*
X0406413Y0338491D01*
X0406147Y0339690D02*
X0392212Y0339690D01*
X0392212Y0340888D02*
X0406283Y0340888D01*
X0406902Y0342087D02*
X0392212Y0342087D01*
X0392212Y0343285D02*
X0408665Y0343285D01*
X0410798Y0343285D02*
X0413390Y0343285D01*
X0412499Y0344484D02*
X0392212Y0344484D01*
X0392212Y0345682D02*
X0412171Y0345682D01*
X0412245Y0346881D02*
X0392212Y0346881D01*
X0392212Y0348079D02*
X0412776Y0348079D01*
X0414328Y0349278D02*
X0392212Y0349278D01*
X0388983Y0349278D02*
X0296049Y0349278D01*
X0294850Y0350476D02*
X0388983Y0350476D01*
X0388983Y0351675D02*
X0245488Y0351675D01*
X0245513Y0350476D02*
X0280006Y0350476D01*
X0278807Y0349278D02*
X0245560Y0349278D01*
X0245204Y0348079D02*
X0278157Y0348079D01*
X0278157Y0346881D02*
X0247255Y0346881D01*
X0248214Y0345682D02*
X0278157Y0345682D01*
X0278157Y0344484D02*
X0248591Y0344484D01*
X0248566Y0343285D02*
X0278157Y0343285D01*
X0278157Y0342087D02*
X0248069Y0342087D01*
X0246716Y0340888D02*
X0277426Y0340888D01*
X0266779Y0337131D02*
X0295716Y0337131D01*
X0297842Y0335005D01*
X0297842Y0309729D01*
X0295912Y0307800D01*
X0280204Y0307800D01*
X0277842Y0310162D01*
X0277842Y0320477D01*
X0273275Y0325044D01*
X0266818Y0325044D01*
X0265243Y0326619D01*
X0265243Y0335595D01*
X0266779Y0337131D01*
X0265742Y0336094D02*
X0296752Y0336094D01*
X0297842Y0334896D02*
X0265243Y0334896D01*
X0265243Y0333697D02*
X0297842Y0333697D01*
X0297842Y0332499D02*
X0265243Y0332499D01*
X0265243Y0331300D02*
X0297842Y0331300D01*
X0297842Y0330102D02*
X0265243Y0330102D01*
X0265243Y0328903D02*
X0297842Y0328903D01*
X0297842Y0327705D02*
X0265243Y0327705D01*
X0265356Y0326506D02*
X0297842Y0326506D01*
X0297842Y0325308D02*
X0266555Y0325308D01*
X0272015Y0321855D02*
X0274653Y0319217D01*
X0274653Y0310320D01*
X0273387Y0309054D01*
X0261060Y0308979D01*
X0261442Y0309900D01*
X0261442Y0311326D01*
X0260896Y0312643D01*
X0259888Y0313651D01*
X0258570Y0314197D01*
X0257144Y0314197D01*
X0255827Y0313651D01*
X0254819Y0312643D01*
X0254273Y0311326D01*
X0254273Y0309900D01*
X0254671Y0308940D01*
X0231450Y0308798D01*
X0229338Y0310910D01*
X0229338Y0334769D01*
X0232408Y0337839D01*
X0245464Y0337815D01*
X0246464Y0336816D01*
X0246464Y0324926D01*
X0249534Y0321855D01*
X0272015Y0321855D01*
X0272158Y0321712D02*
X0229338Y0321712D01*
X0229338Y0322910D02*
X0248479Y0322910D01*
X0247281Y0324109D02*
X0241859Y0324109D01*
X0241715Y0323965D02*
X0242723Y0324973D01*
X0243269Y0326290D01*
X0243269Y0327716D01*
X0242723Y0329034D01*
X0241715Y0330042D01*
X0240398Y0330587D01*
X0238972Y0330587D01*
X0237654Y0330042D01*
X0236646Y0329034D01*
X0236100Y0327716D01*
X0236100Y0326290D01*
X0236646Y0324973D01*
X0237654Y0323965D01*
X0238972Y0323419D01*
X0240398Y0323419D01*
X0241715Y0323965D01*
X0242862Y0325308D02*
X0246464Y0325308D01*
X0246464Y0326506D02*
X0243269Y0326506D01*
X0243269Y0327705D02*
X0246464Y0327705D01*
X0246464Y0328903D02*
X0242777Y0328903D01*
X0241571Y0330102D02*
X0246464Y0330102D01*
X0246464Y0331300D02*
X0229338Y0331300D01*
X0229338Y0330102D02*
X0237799Y0330102D01*
X0236592Y0328903D02*
X0229338Y0328903D01*
X0229338Y0327705D02*
X0236100Y0327705D01*
X0236100Y0326506D02*
X0229338Y0326506D01*
X0229338Y0325308D02*
X0236507Y0325308D01*
X0237510Y0324109D02*
X0229338Y0324109D01*
X0229338Y0320513D02*
X0273356Y0320513D01*
X0274555Y0319315D02*
X0229338Y0319315D01*
X0229338Y0318116D02*
X0274653Y0318116D01*
X0274653Y0316918D02*
X0229338Y0316918D01*
X0229338Y0315719D02*
X0274653Y0315719D01*
X0274653Y0314521D02*
X0229338Y0314521D01*
X0229338Y0313322D02*
X0255498Y0313322D01*
X0254604Y0312124D02*
X0229338Y0312124D01*
X0229338Y0310925D02*
X0254273Y0310925D01*
X0254345Y0309727D02*
X0230521Y0309727D01*
X0230991Y0301619D02*
X0244298Y0301619D01*
X0245991Y0299926D01*
X0245991Y0291580D01*
X0248629Y0288942D01*
X0256680Y0288942D01*
X0259968Y0285654D01*
X0259968Y0267564D01*
X0257290Y0264887D01*
X0230755Y0264887D01*
X0228826Y0266816D01*
X0228826Y0284641D01*
X0229296Y0285776D01*
X0229296Y0287162D01*
X0228826Y0288298D01*
X0228826Y0299454D01*
X0230991Y0301619D01*
X0230709Y0301337D02*
X0244580Y0301337D01*
X0245778Y0300139D02*
X0229511Y0300139D01*
X0228826Y0298940D02*
X0245991Y0298940D01*
X0245991Y0297742D02*
X0228826Y0297742D01*
X0228826Y0296543D02*
X0245991Y0296543D01*
X0245991Y0295345D02*
X0228826Y0295345D01*
X0228826Y0294146D02*
X0245991Y0294146D01*
X0245991Y0292948D02*
X0228826Y0292948D01*
X0228826Y0291749D02*
X0245991Y0291749D01*
X0247020Y0290551D02*
X0228826Y0290551D01*
X0228826Y0289352D02*
X0248219Y0289352D01*
X0241973Y0283360D02*
X0259968Y0283360D01*
X0259968Y0284558D02*
X0228826Y0284558D01*
X0228826Y0283360D02*
X0237332Y0283360D01*
X0237679Y0283707D02*
X0236699Y0282726D01*
X0236168Y0281446D01*
X0236168Y0280060D01*
X0236699Y0278779D01*
X0237679Y0277799D01*
X0238959Y0277269D01*
X0240346Y0277269D01*
X0241626Y0277799D01*
X0242606Y0278779D01*
X0243137Y0280060D01*
X0243137Y0281446D01*
X0242606Y0282726D01*
X0241626Y0283707D01*
X0240346Y0284237D01*
X0238959Y0284237D01*
X0237679Y0283707D01*
X0236465Y0282161D02*
X0228826Y0282161D01*
X0228826Y0280963D02*
X0236168Y0280963D01*
X0236291Y0279764D02*
X0228826Y0279764D01*
X0228826Y0278566D02*
X0236912Y0278566D01*
X0238722Y0277367D02*
X0228826Y0277367D01*
X0228826Y0276169D02*
X0259968Y0276169D01*
X0259968Y0277367D02*
X0240583Y0277367D01*
X0242393Y0278566D02*
X0259968Y0278566D01*
X0259968Y0279764D02*
X0243014Y0279764D01*
X0243137Y0280963D02*
X0259968Y0280963D01*
X0259968Y0282161D02*
X0242841Y0282161D01*
X0229288Y0285757D02*
X0259865Y0285757D01*
X0258667Y0286955D02*
X0229296Y0286955D01*
X0228885Y0288154D02*
X0257468Y0288154D01*
X0263200Y0285757D02*
X0387069Y0285757D01*
X0386580Y0284558D02*
X0263196Y0284558D01*
X0263196Y0283360D02*
X0386580Y0283360D01*
X0386990Y0282161D02*
X0263196Y0282161D01*
X0263196Y0280963D02*
X0387996Y0280963D01*
X0388983Y0279764D02*
X0263196Y0279764D01*
X0263196Y0278566D02*
X0388983Y0278566D01*
X0388983Y0277367D02*
X0263196Y0277367D01*
X0263196Y0276169D02*
X0388983Y0276169D01*
X0388983Y0274970D02*
X0263196Y0274970D01*
X0263196Y0273772D02*
X0388983Y0273772D01*
X0388983Y0272573D02*
X0263196Y0272573D01*
X0263196Y0271375D02*
X0388983Y0271375D01*
X0388983Y0270176D02*
X0263196Y0270176D01*
X0263196Y0268977D02*
X0388983Y0268977D01*
X0388983Y0267779D02*
X0263196Y0267779D01*
X0263196Y0266580D02*
X0388983Y0266580D01*
X0388983Y0265382D02*
X0263196Y0265382D01*
X0263196Y0264183D02*
X0388983Y0264183D01*
X0388983Y0262985D02*
X0263196Y0262985D01*
X0263196Y0261786D02*
X0388983Y0261786D01*
X0388983Y0260588D02*
X0263196Y0260588D01*
X0263196Y0259389D02*
X0388983Y0259389D01*
X0388983Y0258191D02*
X0263196Y0258191D01*
X0263196Y0256992D02*
X0388983Y0256992D01*
X0388983Y0255794D02*
X0263196Y0255794D01*
X0263196Y0254595D02*
X0388983Y0254595D01*
X0388983Y0253397D02*
X0263196Y0253397D01*
X0263196Y0252198D02*
X0388983Y0252198D01*
X0388983Y0251000D02*
X0263196Y0251000D01*
X0263196Y0249801D02*
X0388983Y0249801D01*
X0388983Y0248603D02*
X0263196Y0248603D01*
X0263196Y0247404D02*
X0386429Y0247404D01*
X0385124Y0246206D02*
X0263196Y0246206D01*
X0263196Y0245007D02*
X0384627Y0245007D01*
X0384612Y0243809D02*
X0263196Y0243809D01*
X0263196Y0242610D02*
X0384998Y0242610D01*
X0385972Y0241412D02*
X0263196Y0241412D01*
X0263196Y0240213D02*
X0388983Y0240213D01*
X0388983Y0239015D02*
X0263196Y0239015D01*
X0263196Y0237816D02*
X0388983Y0237816D01*
X0388983Y0236618D02*
X0263196Y0236618D01*
X0263196Y0235419D02*
X0388983Y0235419D01*
X0388983Y0234221D02*
X0263196Y0234221D01*
X0263196Y0233022D02*
X0388983Y0233022D01*
X0388983Y0231824D02*
X0263196Y0231824D01*
X0263196Y0230625D02*
X0388983Y0230625D01*
X0388983Y0229427D02*
X0263196Y0229427D01*
X0263196Y0228228D02*
X0388983Y0228228D01*
X0388983Y0227030D02*
X0263196Y0227030D01*
X0263196Y0225831D02*
X0388983Y0225831D01*
X0388983Y0224633D02*
X0264395Y0224633D01*
X0265593Y0223434D02*
X0388983Y0223434D01*
X0388983Y0222236D02*
X0292501Y0222236D01*
X0293699Y0221037D02*
X0388983Y0221037D01*
X0388983Y0219839D02*
X0294898Y0219839D01*
X0296096Y0218640D02*
X0388983Y0218640D01*
X0388983Y0217441D02*
X0297295Y0217441D01*
X0298493Y0216243D02*
X0388983Y0216243D01*
X0388983Y0215044D02*
X0299692Y0215044D01*
X0300890Y0213846D02*
X0368727Y0213846D01*
X0368014Y0213551D02*
X0366516Y0212053D01*
X0365706Y0210095D01*
X0365706Y0207977D01*
X0366516Y0206020D01*
X0368014Y0204522D01*
X0369971Y0203711D01*
X0372090Y0203711D01*
X0374047Y0204522D01*
X0375545Y0206020D01*
X0376356Y0207977D01*
X0376356Y0210095D01*
X0375545Y0212053D01*
X0374047Y0213551D01*
X0372090Y0214361D01*
X0369971Y0214361D01*
X0368014Y0213551D01*
X0367111Y0212647D02*
X0300952Y0212647D01*
X0300952Y0211449D02*
X0366266Y0211449D01*
X0365770Y0210250D02*
X0300952Y0210250D01*
X0300952Y0209052D02*
X0365706Y0209052D01*
X0365757Y0207853D02*
X0300952Y0207853D01*
X0300952Y0206655D02*
X0366253Y0206655D01*
X0367080Y0205456D02*
X0300952Y0205456D01*
X0300952Y0204258D02*
X0368652Y0204258D01*
X0373409Y0204258D02*
X0388983Y0204258D01*
X0388983Y0205456D02*
X0374981Y0205456D01*
X0375808Y0206655D02*
X0388983Y0206655D01*
X0388983Y0207853D02*
X0376304Y0207853D01*
X0376356Y0209052D02*
X0388983Y0209052D01*
X0388983Y0210250D02*
X0376291Y0210250D01*
X0375795Y0211449D02*
X0388983Y0211449D01*
X0388983Y0212647D02*
X0374950Y0212647D01*
X0373334Y0213846D02*
X0388983Y0213846D01*
X0392212Y0213846D02*
X0451345Y0213846D01*
X0451345Y0215044D02*
X0392212Y0215044D01*
X0392212Y0216243D02*
X0451345Y0216243D01*
X0451345Y0217441D02*
X0392212Y0217441D01*
X0392212Y0218640D02*
X0451345Y0218640D01*
X0451345Y0219839D02*
X0392212Y0219839D01*
X0392212Y0221037D02*
X0451345Y0221037D01*
X0451345Y0222236D02*
X0392212Y0222236D01*
X0392212Y0223434D02*
X0451345Y0223434D01*
X0451345Y0224633D02*
X0392212Y0224633D01*
X0392212Y0225831D02*
X0451345Y0225831D01*
X0451345Y0227030D02*
X0392212Y0227030D01*
X0392212Y0228228D02*
X0451345Y0228228D01*
X0451345Y0229427D02*
X0392212Y0229427D01*
X0392212Y0230625D02*
X0451345Y0230625D01*
X0451345Y0231824D02*
X0392212Y0231824D01*
X0392212Y0233022D02*
X0451345Y0233022D01*
X0451345Y0234221D02*
X0392212Y0234221D01*
X0392212Y0235419D02*
X0451345Y0235419D01*
X0451345Y0236618D02*
X0392212Y0236618D01*
X0392212Y0237816D02*
X0450188Y0237816D01*
X0448989Y0239015D02*
X0392212Y0239015D01*
X0392212Y0240213D02*
X0447791Y0240213D01*
X0446592Y0241412D02*
X0392212Y0241412D01*
X0392212Y0242610D02*
X0427323Y0242610D01*
X0426124Y0243809D02*
X0392212Y0243809D01*
X0392212Y0245007D02*
X0424926Y0245007D01*
X0423727Y0246206D02*
X0392212Y0246206D01*
X0392212Y0247404D02*
X0422529Y0247404D01*
X0421503Y0248603D02*
X0392212Y0248603D01*
X0392212Y0249801D02*
X0421503Y0249801D01*
X0421503Y0251000D02*
X0392212Y0251000D01*
X0392212Y0252198D02*
X0421503Y0252198D01*
X0421503Y0253397D02*
X0392212Y0253397D01*
X0392212Y0254595D02*
X0421503Y0254595D01*
X0421503Y0255794D02*
X0392212Y0255794D01*
X0392212Y0256992D02*
X0421503Y0256992D01*
X0421503Y0258191D02*
X0392212Y0258191D01*
X0392212Y0259389D02*
X0421503Y0259389D01*
X0421503Y0260588D02*
X0392212Y0260588D01*
X0392212Y0261786D02*
X0421503Y0261786D01*
X0421503Y0262985D02*
X0392212Y0262985D01*
X0392212Y0264183D02*
X0421503Y0264183D01*
X0421503Y0265382D02*
X0392212Y0265382D01*
X0392212Y0266580D02*
X0421503Y0266580D01*
X0421503Y0267779D02*
X0392212Y0267779D01*
X0392212Y0268977D02*
X0421503Y0268977D01*
X0421503Y0270176D02*
X0392212Y0270176D01*
X0392212Y0271375D02*
X0421503Y0271375D01*
X0421503Y0272573D02*
X0392212Y0272573D01*
X0392212Y0273772D02*
X0421503Y0273772D01*
X0421503Y0274970D02*
X0392212Y0274970D01*
X0392212Y0276169D02*
X0421503Y0276169D01*
X0421503Y0277367D02*
X0392212Y0277367D01*
X0392212Y0278566D02*
X0421503Y0278566D01*
X0421503Y0279764D02*
X0392212Y0279764D01*
X0392333Y0280963D02*
X0421503Y0280963D01*
X0421503Y0282161D02*
X0393339Y0282161D01*
X0393749Y0283360D02*
X0421503Y0283360D01*
X0421503Y0284558D02*
X0393749Y0284558D01*
X0393260Y0285757D02*
X0421503Y0285757D01*
X0421503Y0286955D02*
X0410797Y0286955D01*
X0411014Y0287045D02*
X0412022Y0288053D01*
X0412568Y0289371D01*
X0412568Y0290796D01*
X0412022Y0292114D01*
X0411014Y0293122D01*
X0409696Y0293668D01*
X0408270Y0293668D01*
X0406953Y0293122D01*
X0405945Y0292114D01*
X0405399Y0290796D01*
X0405399Y0289371D01*
X0405945Y0288053D01*
X0406953Y0287045D01*
X0408270Y0286499D01*
X0409696Y0286499D01*
X0411014Y0287045D01*
X0412063Y0288154D02*
X0421503Y0288154D01*
X0421503Y0289352D02*
X0412560Y0289352D01*
X0412568Y0290551D02*
X0421503Y0290551D01*
X0421503Y0291749D02*
X0412173Y0291749D01*
X0411188Y0292948D02*
X0421503Y0292948D01*
X0422298Y0294146D02*
X0392212Y0294146D01*
X0392212Y0292948D02*
X0406779Y0292948D01*
X0405794Y0291749D02*
X0392212Y0291749D01*
X0392212Y0290551D02*
X0405399Y0290551D01*
X0405407Y0289352D02*
X0392212Y0289352D01*
X0392212Y0288154D02*
X0405903Y0288154D01*
X0407170Y0286955D02*
X0392212Y0286955D01*
X0388983Y0288154D02*
X0265597Y0288154D01*
X0264398Y0286955D02*
X0388263Y0286955D01*
X0388983Y0289352D02*
X0295102Y0289352D01*
X0296301Y0290551D02*
X0388983Y0290551D01*
X0388983Y0291749D02*
X0297499Y0291749D01*
X0298698Y0292948D02*
X0388983Y0292948D01*
X0388983Y0294146D02*
X0299896Y0294146D01*
X0300912Y0295345D02*
X0388983Y0295345D01*
X0388983Y0296543D02*
X0300912Y0296543D01*
X0300912Y0297742D02*
X0388983Y0297742D01*
X0388983Y0298940D02*
X0300912Y0298940D01*
X0300912Y0300139D02*
X0388983Y0300139D01*
X0388983Y0301337D02*
X0300912Y0301337D01*
X0300912Y0302536D02*
X0388983Y0302536D01*
X0388983Y0303734D02*
X0300912Y0303734D01*
X0300912Y0304933D02*
X0388983Y0304933D01*
X0388983Y0306131D02*
X0300912Y0306131D01*
X0300912Y0307330D02*
X0388983Y0307330D01*
X0388983Y0308528D02*
X0300912Y0308528D01*
X0300912Y0309727D02*
X0388983Y0309727D01*
X0388983Y0310925D02*
X0300912Y0310925D01*
X0300912Y0312124D02*
X0368975Y0312124D01*
X0368014Y0312522D02*
X0369971Y0311711D01*
X0372090Y0311711D01*
X0374047Y0312522D01*
X0375545Y0314020D01*
X0376356Y0315977D01*
X0376356Y0318095D01*
X0375545Y0320053D01*
X0374047Y0321551D01*
X0372090Y0322361D01*
X0369971Y0322361D01*
X0368014Y0321551D01*
X0366516Y0320053D01*
X0365706Y0318095D01*
X0365706Y0315977D01*
X0366516Y0314020D01*
X0368014Y0312522D01*
X0367214Y0313322D02*
X0300912Y0313322D01*
X0300912Y0314521D02*
X0366309Y0314521D01*
X0365812Y0315719D02*
X0300912Y0315719D01*
X0300912Y0316918D02*
X0365706Y0316918D01*
X0365714Y0318116D02*
X0300912Y0318116D01*
X0300912Y0319315D02*
X0366211Y0319315D01*
X0366977Y0320513D02*
X0300912Y0320513D01*
X0300912Y0321712D02*
X0368404Y0321712D01*
X0373657Y0321712D02*
X0388983Y0321712D01*
X0388983Y0322910D02*
X0300912Y0322910D01*
X0300912Y0324109D02*
X0388983Y0324109D01*
X0388983Y0325308D02*
X0300912Y0325308D01*
X0300912Y0326506D02*
X0388983Y0326506D01*
X0388983Y0327705D02*
X0300912Y0327705D01*
X0300912Y0328903D02*
X0388983Y0328903D01*
X0388983Y0330102D02*
X0300912Y0330102D01*
X0300912Y0331300D02*
X0388983Y0331300D01*
X0388983Y0332499D02*
X0375632Y0332499D01*
X0375366Y0332233D02*
X0376952Y0333819D01*
X0377811Y0335891D01*
X0377811Y0338134D01*
X0376952Y0340207D01*
X0375366Y0341793D01*
X0373294Y0342651D01*
X0371051Y0342651D01*
X0368978Y0341793D01*
X0367392Y0340207D01*
X0366534Y0338134D01*
X0366534Y0335891D01*
X0367392Y0333819D01*
X0368978Y0332233D01*
X0371051Y0331374D01*
X0373294Y0331374D01*
X0375366Y0332233D01*
X0376831Y0333697D02*
X0388983Y0333697D01*
X0388983Y0334896D02*
X0377398Y0334896D01*
X0377811Y0336094D02*
X0388983Y0336094D01*
X0388983Y0337293D02*
X0377811Y0337293D01*
X0377663Y0338491D02*
X0388983Y0338491D01*
X0388983Y0339690D02*
X0377167Y0339690D01*
X0376271Y0340888D02*
X0388983Y0340888D01*
X0388983Y0342087D02*
X0374657Y0342087D01*
X0369688Y0342087D02*
X0300912Y0342087D01*
X0300912Y0343285D02*
X0388983Y0343285D01*
X0388983Y0344484D02*
X0300843Y0344484D01*
X0299644Y0345682D02*
X0388983Y0345682D01*
X0388983Y0346881D02*
X0298446Y0346881D01*
X0297247Y0348079D02*
X0388983Y0348079D01*
X0388983Y0352873D02*
X0247432Y0352873D01*
X0248127Y0354072D02*
X0388983Y0354072D01*
X0388983Y0355270D02*
X0248316Y0355270D01*
X0248102Y0356469D02*
X0388983Y0356469D01*
X0388983Y0357667D02*
X0247374Y0357667D01*
X0248143Y0361263D02*
X0242515Y0361263D01*
X0243599Y0362461D02*
X0246340Y0362461D01*
X0245704Y0363660D02*
X0244064Y0363660D01*
X0241068Y0367880D02*
X0240481Y0367880D01*
X0240481Y0368861D01*
X0241180Y0368861D01*
X0241068Y0368592D01*
X0241068Y0367880D01*
X0241068Y0368454D02*
X0240481Y0368454D01*
X0237131Y0372049D02*
X0236701Y0372049D01*
X0236681Y0373248D02*
X0237168Y0373248D01*
X0237665Y0374446D02*
X0236184Y0374446D01*
X0234855Y0375645D02*
X0239073Y0375645D01*
X0242358Y0375645D02*
X0246435Y0375645D01*
X0245027Y0374446D02*
X0243766Y0374446D01*
X0244263Y0373248D02*
X0244530Y0373248D01*
X0244494Y0372049D02*
X0244300Y0372049D01*
X0248125Y0368861D02*
X0248352Y0368861D01*
X0248352Y0368308D01*
X0248361Y0368286D01*
X0248237Y0368234D01*
X0248237Y0368592D01*
X0248125Y0368861D01*
X0248237Y0368454D02*
X0248352Y0368454D01*
X0252725Y0364858D02*
X0388983Y0364858D01*
X0388983Y0363660D02*
X0252577Y0363660D01*
X0251942Y0362461D02*
X0388983Y0362461D01*
X0388983Y0361263D02*
X0250138Y0361263D01*
X0254041Y0366057D02*
X0388983Y0366057D01*
X0388983Y0367255D02*
X0255084Y0367255D01*
X0255520Y0368454D02*
X0388983Y0368454D01*
X0388983Y0369652D02*
X0255520Y0369652D01*
X0255057Y0370851D02*
X0388983Y0370851D01*
X0388983Y0372049D02*
X0253976Y0372049D01*
X0251625Y0373248D02*
X0388983Y0373248D01*
X0388983Y0374446D02*
X0251129Y0374446D01*
X0249720Y0375645D02*
X0388983Y0375645D01*
X0388983Y0376844D02*
X0116582Y0376844D01*
X0116582Y0378042D02*
X0388983Y0378042D01*
X0393612Y0390027D02*
X0449433Y0390027D01*
X0448235Y0391226D02*
X0394810Y0391226D01*
X0396009Y0392424D02*
X0447036Y0392424D01*
X0445838Y0393623D02*
X0397207Y0393623D01*
X0398406Y0394821D02*
X0444639Y0394821D01*
X0450834Y0343285D02*
X0431913Y0343285D01*
X0432785Y0342087D02*
X0450834Y0342087D01*
X0450834Y0340888D02*
X0433099Y0340888D01*
X0433011Y0339690D02*
X0450834Y0339690D01*
X0450834Y0338491D02*
X0432460Y0338491D01*
X0430860Y0337293D02*
X0450834Y0337293D01*
X0450834Y0336094D02*
X0392212Y0336094D01*
X0392212Y0334896D02*
X0450834Y0334896D01*
X0450834Y0333697D02*
X0392212Y0333697D01*
X0392212Y0332499D02*
X0450834Y0332499D01*
X0450834Y0331300D02*
X0392212Y0331300D01*
X0392212Y0330102D02*
X0450834Y0330102D01*
X0450834Y0328903D02*
X0392212Y0328903D01*
X0392212Y0327705D02*
X0450834Y0327705D01*
X0450834Y0326506D02*
X0392212Y0326506D01*
X0392212Y0325308D02*
X0450834Y0325308D01*
X0450834Y0324109D02*
X0392212Y0324109D01*
X0392212Y0322910D02*
X0450834Y0322910D01*
X0450834Y0321712D02*
X0392212Y0321712D01*
X0392212Y0320513D02*
X0450834Y0320513D01*
X0450834Y0319315D02*
X0392212Y0319315D01*
X0392212Y0318116D02*
X0450834Y0318116D01*
X0450834Y0316918D02*
X0392212Y0316918D01*
X0392212Y0315719D02*
X0450834Y0315719D01*
X0450834Y0314521D02*
X0392212Y0314521D01*
X0392212Y0313322D02*
X0450834Y0313322D01*
X0450834Y0312124D02*
X0392212Y0312124D01*
X0392212Y0310925D02*
X0450834Y0310925D01*
X0450834Y0309727D02*
X0392212Y0309727D01*
X0392212Y0308528D02*
X0450834Y0308528D01*
X0450834Y0307330D02*
X0392212Y0307330D01*
X0392212Y0306131D02*
X0450834Y0306131D01*
X0450834Y0304933D02*
X0392212Y0304933D01*
X0392212Y0303734D02*
X0450834Y0303734D01*
X0450609Y0302536D02*
X0392212Y0302536D01*
X0392212Y0301337D02*
X0449410Y0301337D01*
X0448212Y0300139D02*
X0392212Y0300139D01*
X0392212Y0298940D02*
X0447013Y0298940D01*
X0445815Y0297742D02*
X0392212Y0297742D01*
X0392212Y0296543D02*
X0424695Y0296543D01*
X0423496Y0295345D02*
X0392212Y0295345D01*
X0388983Y0312124D02*
X0373086Y0312124D01*
X0374847Y0313322D02*
X0388983Y0313322D01*
X0388983Y0314521D02*
X0375752Y0314521D01*
X0376249Y0315719D02*
X0388983Y0315719D01*
X0388983Y0316918D02*
X0376356Y0316918D01*
X0376347Y0318116D02*
X0388983Y0318116D01*
X0388983Y0319315D02*
X0375850Y0319315D01*
X0375084Y0320513D02*
X0388983Y0320513D01*
X0368712Y0332499D02*
X0300912Y0332499D01*
X0300912Y0333697D02*
X0367514Y0333697D01*
X0366946Y0334896D02*
X0300912Y0334896D01*
X0300912Y0336094D02*
X0366534Y0336094D01*
X0366534Y0337293D02*
X0300912Y0337293D01*
X0300912Y0338491D02*
X0366682Y0338491D01*
X0367178Y0339690D02*
X0300912Y0339690D01*
X0300912Y0340888D02*
X0368074Y0340888D01*
X0297842Y0324109D02*
X0274210Y0324109D01*
X0275408Y0322910D02*
X0297842Y0322910D01*
X0297842Y0321712D02*
X0276607Y0321712D01*
X0277805Y0320513D02*
X0297842Y0320513D01*
X0297842Y0319315D02*
X0277842Y0319315D01*
X0277842Y0318116D02*
X0297842Y0318116D01*
X0297842Y0316918D02*
X0277842Y0316918D01*
X0277842Y0315719D02*
X0297842Y0315719D01*
X0297842Y0314521D02*
X0277842Y0314521D01*
X0277842Y0313322D02*
X0297842Y0313322D01*
X0297842Y0312124D02*
X0277842Y0312124D01*
X0277842Y0310925D02*
X0297842Y0310925D01*
X0297839Y0309727D02*
X0278277Y0309727D01*
X0279475Y0308528D02*
X0296641Y0308528D01*
X0274653Y0310925D02*
X0261442Y0310925D01*
X0261370Y0309727D02*
X0274060Y0309727D01*
X0274653Y0312124D02*
X0261111Y0312124D01*
X0260216Y0313322D02*
X0274653Y0313322D01*
X0246464Y0332499D02*
X0229338Y0332499D01*
X0229338Y0333697D02*
X0246464Y0333697D01*
X0246464Y0334896D02*
X0229465Y0334896D01*
X0230663Y0336094D02*
X0246464Y0336094D01*
X0245987Y0337293D02*
X0231862Y0337293D01*
X0239314Y0340888D02*
X0243298Y0340888D01*
X0241945Y0342087D02*
X0240668Y0342087D01*
X0241164Y0343285D02*
X0241448Y0343285D01*
X0241423Y0344484D02*
X0241190Y0344484D01*
X0240813Y0345682D02*
X0241799Y0345682D01*
X0239333Y0347224D02*
X0238318Y0347644D01*
X0237321Y0347644D01*
X0237652Y0347974D01*
X0238197Y0349292D01*
X0238197Y0350718D01*
X0237808Y0351657D01*
X0238476Y0351657D01*
X0239222Y0351966D01*
X0238937Y0351681D01*
X0238391Y0350363D01*
X0238391Y0348937D01*
X0238937Y0347620D01*
X0239333Y0347224D01*
X0238747Y0348079D02*
X0237695Y0348079D01*
X0238192Y0349278D02*
X0238391Y0349278D01*
X0238438Y0350476D02*
X0238197Y0350476D01*
X0238519Y0351675D02*
X0238934Y0351675D01*
X0240516Y0352926D02*
X0240801Y0353211D01*
X0241247Y0354287D01*
X0241683Y0353235D01*
X0241262Y0353235D01*
X0240516Y0352926D01*
X0241158Y0354072D02*
X0241336Y0354072D01*
X0241360Y0356469D02*
X0241134Y0356469D01*
X0240405Y0357667D02*
X0242089Y0357667D01*
X0229533Y0372049D02*
X0229379Y0372049D01*
X0229342Y0373248D02*
X0229554Y0373248D01*
X0230050Y0374446D02*
X0228845Y0374446D01*
X0227437Y0375645D02*
X0231380Y0375645D01*
X0224152Y0375645D02*
X0221137Y0375645D01*
X0222546Y0374446D02*
X0222743Y0374446D01*
X0223519Y0369652D02*
X0221771Y0369652D01*
X0170275Y0381638D02*
X0116582Y0381638D01*
X0116582Y0382836D02*
X0168788Y0382836D01*
X0168084Y0384035D02*
X0116582Y0384035D01*
X0116967Y0385233D02*
X0167791Y0385233D01*
X0167822Y0386432D02*
X0118166Y0386432D01*
X0119364Y0387630D02*
X0168173Y0387630D01*
X0168959Y0388829D02*
X0120563Y0388829D01*
X0119141Y0394650D02*
X0107566Y0394650D01*
X0103275Y0390359D01*
X0091424Y0390359D01*
X0089810Y0391973D01*
X0089810Y0406737D01*
X0092645Y0409572D01*
X0119849Y0409572D01*
X0138353Y0428076D01*
X0310479Y0428076D01*
X0313826Y0424729D01*
X0313826Y0406225D01*
X0311582Y0403981D01*
X0128471Y0403981D01*
X0119141Y0394650D01*
X0119311Y0394821D02*
X0089810Y0394821D01*
X0089810Y0393623D02*
X0106538Y0393623D01*
X0105340Y0392424D02*
X0089810Y0392424D01*
X0090558Y0391226D02*
X0104141Y0391226D01*
X0089810Y0396020D02*
X0120510Y0396020D01*
X0121708Y0397218D02*
X0089810Y0397218D01*
X0089810Y0398417D02*
X0122907Y0398417D01*
X0124106Y0399615D02*
X0089810Y0399615D01*
X0089810Y0400814D02*
X0125304Y0400814D01*
X0126503Y0402012D02*
X0089810Y0402012D01*
X0089810Y0403211D02*
X0127701Y0403211D01*
X0120680Y0410402D02*
X0313826Y0410402D01*
X0313826Y0411600D02*
X0121878Y0411600D01*
X0123077Y0412799D02*
X0313826Y0412799D01*
X0313826Y0413997D02*
X0124275Y0413997D01*
X0125474Y0415196D02*
X0313826Y0415196D01*
X0313826Y0416394D02*
X0126672Y0416394D01*
X0127871Y0417593D02*
X0313826Y0417593D01*
X0313826Y0418791D02*
X0129069Y0418791D01*
X0130268Y0419990D02*
X0313826Y0419990D01*
X0313826Y0421188D02*
X0131466Y0421188D01*
X0132665Y0422387D02*
X0313826Y0422387D01*
X0313826Y0423585D02*
X0133863Y0423585D01*
X0135062Y0424784D02*
X0313771Y0424784D01*
X0312573Y0425982D02*
X0136260Y0425982D01*
X0137459Y0427181D02*
X0311374Y0427181D01*
X0313826Y0409203D02*
X0092276Y0409203D01*
X0091078Y0408005D02*
X0313826Y0408005D01*
X0313826Y0406806D02*
X0089879Y0406806D01*
X0089810Y0405608D02*
X0313208Y0405608D01*
X0312010Y0404409D02*
X0089810Y0404409D01*
X0112925Y0326506D02*
X0118595Y0326506D01*
X0117354Y0325308D02*
X0111727Y0325308D01*
X0110528Y0324109D02*
X0116858Y0324109D01*
X0116856Y0322910D02*
X0109330Y0322910D01*
X0108131Y0321712D02*
X0117256Y0321712D01*
X0118248Y0320513D02*
X0106933Y0320513D01*
X0228826Y0274970D02*
X0259968Y0274970D01*
X0259968Y0273772D02*
X0228826Y0273772D01*
X0228826Y0272573D02*
X0259968Y0272573D01*
X0259968Y0271375D02*
X0228826Y0271375D01*
X0228826Y0270176D02*
X0259968Y0270176D01*
X0259968Y0268977D02*
X0228826Y0268977D01*
X0228826Y0267779D02*
X0259968Y0267779D01*
X0258984Y0266580D02*
X0229061Y0266580D01*
X0230260Y0265382D02*
X0257786Y0265382D01*
X0241779Y0221383D02*
X0233038Y0221383D01*
X0230164Y0218509D01*
X0230164Y0185044D01*
X0232684Y0182524D01*
X0272842Y0182524D01*
X0274416Y0184099D01*
X0274416Y0193587D01*
X0273393Y0194611D01*
X0251936Y0194611D01*
X0246149Y0200398D01*
X0246149Y0217013D01*
X0241779Y0221383D01*
X0242124Y0221037D02*
X0232693Y0221037D01*
X0231494Y0219839D02*
X0243323Y0219839D01*
X0244521Y0218640D02*
X0230296Y0218640D01*
X0230164Y0217441D02*
X0245720Y0217441D01*
X0246149Y0216243D02*
X0230164Y0216243D01*
X0230164Y0215044D02*
X0246149Y0215044D01*
X0246149Y0213846D02*
X0230164Y0213846D01*
X0230164Y0212647D02*
X0246149Y0212647D01*
X0246149Y0211449D02*
X0230164Y0211449D01*
X0230164Y0210250D02*
X0246149Y0210250D01*
X0246149Y0209052D02*
X0230164Y0209052D01*
X0230164Y0207853D02*
X0246149Y0207853D01*
X0246149Y0206655D02*
X0230164Y0206655D01*
X0230164Y0205456D02*
X0237898Y0205456D01*
X0238428Y0205676D02*
X0237110Y0205130D01*
X0236102Y0204122D01*
X0235557Y0202804D01*
X0235557Y0201378D01*
X0236102Y0200061D01*
X0237110Y0199053D01*
X0238428Y0198507D01*
X0239854Y0198507D01*
X0241171Y0199053D01*
X0242179Y0200061D01*
X0242725Y0201378D01*
X0242725Y0202804D01*
X0242179Y0204122D01*
X0241171Y0205130D01*
X0239854Y0205676D01*
X0238428Y0205676D01*
X0240383Y0205456D02*
X0246149Y0205456D01*
X0246149Y0204258D02*
X0242043Y0204258D01*
X0242619Y0203059D02*
X0246149Y0203059D01*
X0246149Y0201861D02*
X0242725Y0201861D01*
X0242428Y0200662D02*
X0246149Y0200662D01*
X0247083Y0199464D02*
X0241582Y0199464D01*
X0236699Y0199464D02*
X0230164Y0199464D01*
X0230164Y0200662D02*
X0235853Y0200662D01*
X0235557Y0201861D02*
X0230164Y0201861D01*
X0230164Y0203059D02*
X0235662Y0203059D01*
X0236238Y0204258D02*
X0230164Y0204258D01*
X0230164Y0198265D02*
X0248282Y0198265D01*
X0249480Y0197067D02*
X0230164Y0197067D01*
X0230164Y0195868D02*
X0250679Y0195868D01*
X0251877Y0194670D02*
X0230164Y0194670D01*
X0230164Y0193471D02*
X0256475Y0193471D01*
X0256481Y0193476D02*
X0255472Y0192468D01*
X0254927Y0191151D01*
X0254927Y0189725D01*
X0255472Y0188408D01*
X0256481Y0187399D01*
X0257798Y0186854D01*
X0259224Y0186854D01*
X0260541Y0187399D01*
X0261549Y0188408D01*
X0262095Y0189725D01*
X0262095Y0191151D01*
X0261549Y0192468D01*
X0260541Y0193476D01*
X0259224Y0194022D01*
X0257798Y0194022D01*
X0256481Y0193476D01*
X0255391Y0192273D02*
X0230164Y0192273D01*
X0230164Y0191074D02*
X0254927Y0191074D01*
X0254927Y0189876D02*
X0230164Y0189876D01*
X0230164Y0188677D02*
X0255361Y0188677D01*
X0256401Y0187479D02*
X0230164Y0187479D01*
X0230164Y0186280D02*
X0274416Y0186280D01*
X0274416Y0185082D02*
X0230164Y0185082D01*
X0231325Y0183883D02*
X0274200Y0183883D01*
X0273002Y0182685D02*
X0232524Y0182685D01*
X0232487Y0174690D02*
X0247015Y0174690D01*
X0248747Y0172958D01*
X0248747Y0159060D01*
X0250322Y0157485D01*
X0258196Y0157485D01*
X0260637Y0155044D01*
X0260637Y0139454D01*
X0259495Y0138312D01*
X0231424Y0138312D01*
X0230361Y0139375D01*
X0230361Y0172564D01*
X0232487Y0174690D01*
X0232092Y0174295D02*
X0247410Y0174295D01*
X0248608Y0173097D02*
X0230894Y0173097D01*
X0230361Y0171898D02*
X0248747Y0171898D01*
X0248747Y0170700D02*
X0230361Y0170700D01*
X0230361Y0169501D02*
X0248747Y0169501D01*
X0248747Y0168303D02*
X0230361Y0168303D01*
X0230361Y0167104D02*
X0248747Y0167104D01*
X0248747Y0165906D02*
X0230361Y0165906D01*
X0230361Y0164707D02*
X0248747Y0164707D01*
X0248747Y0163508D02*
X0230361Y0163508D01*
X0230361Y0162310D02*
X0248747Y0162310D01*
X0248747Y0161111D02*
X0230361Y0161111D01*
X0230361Y0159913D02*
X0248747Y0159913D01*
X0249093Y0158714D02*
X0230361Y0158714D01*
X0230361Y0157516D02*
X0239323Y0157516D01*
X0239647Y0157840D02*
X0238667Y0156860D01*
X0238137Y0155580D01*
X0238137Y0154194D01*
X0238667Y0152913D01*
X0239647Y0151933D01*
X0240928Y0151402D01*
X0242314Y0151402D01*
X0243595Y0151933D01*
X0244575Y0152913D01*
X0245105Y0154194D01*
X0245105Y0155580D01*
X0244575Y0156860D01*
X0243595Y0157840D01*
X0242314Y0158371D01*
X0240928Y0158371D01*
X0239647Y0157840D01*
X0238442Y0156317D02*
X0230361Y0156317D01*
X0230361Y0155119D02*
X0238137Y0155119D01*
X0238250Y0153920D02*
X0230361Y0153920D01*
X0230361Y0152722D02*
X0238858Y0152722D01*
X0240636Y0151523D02*
X0230361Y0151523D01*
X0230361Y0150325D02*
X0260637Y0150325D01*
X0260637Y0151523D02*
X0242606Y0151523D01*
X0244384Y0152722D02*
X0260637Y0152722D01*
X0260637Y0153920D02*
X0244992Y0153920D01*
X0245105Y0155119D02*
X0260562Y0155119D01*
X0259364Y0156317D02*
X0244800Y0156317D01*
X0243919Y0157516D02*
X0250291Y0157516D01*
X0260637Y0149126D02*
X0230361Y0149126D01*
X0230361Y0147928D02*
X0260637Y0147928D01*
X0260637Y0146729D02*
X0230361Y0146729D01*
X0230361Y0145531D02*
X0260637Y0145531D01*
X0260637Y0144332D02*
X0230361Y0144332D01*
X0230361Y0143134D02*
X0260637Y0143134D01*
X0260637Y0141935D02*
X0230361Y0141935D01*
X0230361Y0140737D02*
X0260637Y0140737D01*
X0260637Y0139538D02*
X0230361Y0139538D01*
X0231396Y0138340D02*
X0259523Y0138340D01*
X0263865Y0138340D02*
X0313038Y0138340D01*
X0313038Y0139538D02*
X0263865Y0139538D01*
X0263865Y0140737D02*
X0313038Y0140737D01*
X0313038Y0141935D02*
X0263865Y0141935D01*
X0263865Y0143134D02*
X0313038Y0143134D01*
X0313038Y0144332D02*
X0263865Y0144332D01*
X0263865Y0145531D02*
X0313038Y0145531D01*
X0313038Y0146729D02*
X0263865Y0146729D01*
X0263865Y0147928D02*
X0313038Y0147928D01*
X0313038Y0149126D02*
X0263865Y0149126D01*
X0263865Y0150325D02*
X0312098Y0150325D01*
X0311410Y0151523D02*
X0263865Y0151523D01*
X0263865Y0152722D02*
X0311226Y0152722D01*
X0311443Y0153920D02*
X0263865Y0153920D01*
X0263865Y0155119D02*
X0312178Y0155119D01*
X0315020Y0156317D02*
X0263865Y0156317D01*
X0263865Y0157516D02*
X0316189Y0157516D01*
X0317417Y0158714D02*
X0263865Y0158714D01*
X0263865Y0159913D02*
X0318616Y0159913D01*
X0319814Y0161111D02*
X0264814Y0161111D01*
X0279653Y0180162D02*
X0277527Y0182288D01*
X0277527Y0194572D01*
X0274338Y0197761D01*
X0268078Y0197761D01*
X0266070Y0199769D01*
X0266070Y0208706D01*
X0268275Y0210910D01*
X0295361Y0210910D01*
X0297920Y0208351D01*
X0297920Y0182013D01*
X0296070Y0180162D01*
X0279653Y0180162D01*
X0279527Y0180288D02*
X0296195Y0180288D01*
X0297394Y0181486D02*
X0278329Y0181486D01*
X0277527Y0182685D02*
X0297920Y0182685D01*
X0297920Y0183883D02*
X0277527Y0183883D01*
X0277527Y0185082D02*
X0297920Y0185082D01*
X0297920Y0186280D02*
X0277527Y0186280D01*
X0277527Y0187479D02*
X0297920Y0187479D01*
X0297920Y0188677D02*
X0277527Y0188677D01*
X0277527Y0189876D02*
X0297920Y0189876D01*
X0297920Y0191074D02*
X0277527Y0191074D01*
X0277527Y0192273D02*
X0297920Y0192273D01*
X0297920Y0193471D02*
X0277527Y0193471D01*
X0277429Y0194670D02*
X0297920Y0194670D01*
X0297920Y0195868D02*
X0276230Y0195868D01*
X0275032Y0197067D02*
X0297920Y0197067D01*
X0297920Y0198265D02*
X0267573Y0198265D01*
X0266375Y0199464D02*
X0297920Y0199464D01*
X0297920Y0200662D02*
X0266070Y0200662D01*
X0266070Y0201861D02*
X0297920Y0201861D01*
X0297920Y0203059D02*
X0266070Y0203059D01*
X0266070Y0204258D02*
X0297920Y0204258D01*
X0297920Y0205456D02*
X0266070Y0205456D01*
X0266070Y0206655D02*
X0297920Y0206655D01*
X0297920Y0207853D02*
X0266070Y0207853D01*
X0266416Y0209052D02*
X0297220Y0209052D01*
X0296021Y0210250D02*
X0267615Y0210250D01*
X0274416Y0193471D02*
X0260546Y0193471D01*
X0261630Y0192273D02*
X0274416Y0192273D01*
X0274416Y0191074D02*
X0262095Y0191074D01*
X0262095Y0189876D02*
X0274416Y0189876D01*
X0274416Y0188677D02*
X0261661Y0188677D01*
X0260621Y0187479D02*
X0274416Y0187479D01*
X0300952Y0187479D02*
X0368023Y0187479D01*
X0367313Y0188189D02*
X0368900Y0186603D01*
X0370972Y0185744D01*
X0373215Y0185744D01*
X0375288Y0186603D01*
X0376874Y0188189D01*
X0377732Y0190261D01*
X0377732Y0192504D01*
X0376874Y0194577D01*
X0375288Y0196163D01*
X0373215Y0197021D01*
X0370972Y0197021D01*
X0368900Y0196163D01*
X0367313Y0194577D01*
X0366455Y0192504D01*
X0366455Y0190261D01*
X0367313Y0188189D01*
X0367111Y0188677D02*
X0300952Y0188677D01*
X0300952Y0189876D02*
X0366615Y0189876D01*
X0366455Y0191074D02*
X0300952Y0191074D01*
X0300952Y0192273D02*
X0366455Y0192273D01*
X0366855Y0193471D02*
X0300952Y0193471D01*
X0300952Y0194670D02*
X0367406Y0194670D01*
X0368605Y0195868D02*
X0300952Y0195868D01*
X0300952Y0197067D02*
X0388983Y0197067D01*
X0388983Y0198265D02*
X0300952Y0198265D01*
X0300952Y0199464D02*
X0388983Y0199464D01*
X0388983Y0200662D02*
X0300952Y0200662D01*
X0300952Y0201861D02*
X0388983Y0201861D01*
X0388983Y0203059D02*
X0300952Y0203059D01*
X0300952Y0186280D02*
X0369678Y0186280D01*
X0374509Y0186280D02*
X0388983Y0186280D01*
X0388983Y0185082D02*
X0300952Y0185082D01*
X0300952Y0183883D02*
X0388983Y0183883D01*
X0388983Y0182685D02*
X0300952Y0182685D01*
X0300952Y0181486D02*
X0388983Y0181486D01*
X0388983Y0180288D02*
X0300952Y0180288D01*
X0300952Y0179089D02*
X0388983Y0179089D01*
X0388983Y0177891D02*
X0300952Y0177891D01*
X0300952Y0176692D02*
X0388983Y0176692D01*
X0388983Y0175494D02*
X0300952Y0175494D01*
X0300952Y0174295D02*
X0370236Y0174295D01*
X0369287Y0173097D02*
X0300952Y0173097D01*
X0300952Y0171898D02*
X0368962Y0171898D01*
X0369088Y0170700D02*
X0300952Y0170700D01*
X0300952Y0169501D02*
X0367293Y0169501D01*
X0366661Y0168303D02*
X0300952Y0168303D01*
X0300952Y0167104D02*
X0366560Y0167104D01*
X0366911Y0165906D02*
X0299766Y0165906D01*
X0298567Y0164707D02*
X0367897Y0164707D01*
X0371801Y0164707D02*
X0372268Y0164707D01*
X0374316Y0163508D02*
X0297369Y0163508D01*
X0296170Y0162310D02*
X0374542Y0162310D01*
X0382067Y0168303D02*
X0388974Y0168303D01*
X0388983Y0169501D02*
X0381343Y0169501D01*
X0380611Y0170700D02*
X0388983Y0170700D01*
X0388983Y0171898D02*
X0380737Y0171898D01*
X0380412Y0173097D02*
X0388983Y0173097D01*
X0388983Y0174295D02*
X0379462Y0174295D01*
X0375433Y0174295D02*
X0374266Y0174295D01*
X0383614Y0167104D02*
X0385950Y0167104D01*
X0390579Y0164707D02*
X0394887Y0164707D01*
X0394887Y0164930D02*
X0394887Y0163504D01*
X0395433Y0162187D01*
X0396441Y0161179D01*
X0397759Y0160633D01*
X0399184Y0160633D01*
X0400502Y0161179D01*
X0401510Y0162187D01*
X0402056Y0163504D01*
X0402056Y0164930D01*
X0401510Y0166248D01*
X0400502Y0167256D01*
X0399184Y0167802D01*
X0397759Y0167802D01*
X0396441Y0167256D01*
X0395433Y0166248D01*
X0394887Y0164930D01*
X0395291Y0165906D02*
X0391223Y0165906D01*
X0392212Y0167104D02*
X0396289Y0167104D01*
X0395849Y0170700D02*
X0430337Y0170700D01*
X0430084Y0170088D02*
X0430084Y0168662D01*
X0430630Y0167345D01*
X0431638Y0166336D01*
X0432955Y0165791D01*
X0434381Y0165791D01*
X0435699Y0166336D01*
X0436707Y0167345D01*
X0437253Y0168662D01*
X0437253Y0170088D01*
X0436707Y0171405D01*
X0435699Y0172413D01*
X0434381Y0172959D01*
X0432955Y0172959D01*
X0431638Y0172413D01*
X0430630Y0171405D01*
X0430084Y0170088D01*
X0430084Y0169501D02*
X0392212Y0169501D01*
X0392212Y0168303D02*
X0430233Y0168303D01*
X0430870Y0167104D02*
X0413134Y0167104D01*
X0413120Y0167118D02*
X0411803Y0167664D01*
X0410377Y0167664D01*
X0409059Y0167118D01*
X0408051Y0166110D01*
X0407505Y0164793D01*
X0407505Y0163367D01*
X0408051Y0162049D01*
X0409059Y0161041D01*
X0410377Y0160495D01*
X0411803Y0160495D01*
X0413120Y0161041D01*
X0414128Y0162049D01*
X0414674Y0163367D01*
X0414674Y0164793D01*
X0414128Y0166110D01*
X0413120Y0167118D01*
X0414213Y0165906D02*
X0432678Y0165906D01*
X0434659Y0165906D02*
X0451345Y0165906D01*
X0451345Y0167104D02*
X0436466Y0167104D01*
X0437104Y0168303D02*
X0451345Y0168303D01*
X0451345Y0169501D02*
X0437253Y0169501D01*
X0436999Y0170700D02*
X0451345Y0170700D01*
X0451345Y0171898D02*
X0436214Y0171898D01*
X0431123Y0171898D02*
X0396641Y0171898D01*
X0396898Y0173097D02*
X0451345Y0173097D01*
X0451345Y0174295D02*
X0396754Y0174295D01*
X0396122Y0175494D02*
X0451345Y0175494D01*
X0451345Y0176692D02*
X0394329Y0176692D01*
X0392299Y0176692D02*
X0392212Y0176692D01*
X0392212Y0177891D02*
X0451345Y0177891D01*
X0451345Y0179089D02*
X0392212Y0179089D01*
X0392212Y0180288D02*
X0451345Y0180288D01*
X0451345Y0181486D02*
X0392212Y0181486D01*
X0392212Y0182685D02*
X0444651Y0182685D01*
X0445042Y0182523D02*
X0446468Y0182523D01*
X0447785Y0183069D01*
X0448794Y0184077D01*
X0449339Y0185394D01*
X0449339Y0186820D01*
X0448794Y0188137D01*
X0447785Y0189146D01*
X0446468Y0189691D01*
X0445042Y0189691D01*
X0443725Y0189146D01*
X0442716Y0188137D01*
X0442171Y0186820D01*
X0442171Y0185394D01*
X0442716Y0184077D01*
X0443725Y0183069D01*
X0445042Y0182523D01*
X0446858Y0182685D02*
X0451345Y0182685D01*
X0451345Y0183883D02*
X0448600Y0183883D01*
X0449210Y0185082D02*
X0451345Y0185082D01*
X0451345Y0186280D02*
X0449339Y0186280D01*
X0449066Y0187479D02*
X0451345Y0187479D01*
X0451345Y0188677D02*
X0448254Y0188677D01*
X0447766Y0191074D02*
X0413022Y0191074D01*
X0413400Y0190697D02*
X0412392Y0191705D01*
X0411074Y0192250D01*
X0409648Y0192250D01*
X0408331Y0191705D01*
X0407323Y0190697D01*
X0406777Y0189379D01*
X0406777Y0187953D01*
X0407323Y0186636D01*
X0408331Y0185628D01*
X0409648Y0185082D01*
X0411074Y0185082D01*
X0412392Y0185628D01*
X0413400Y0186636D01*
X0413945Y0187953D01*
X0413945Y0189379D01*
X0413400Y0190697D01*
X0413740Y0189876D02*
X0451345Y0189876D01*
X0446779Y0192273D02*
X0402523Y0192273D01*
X0402177Y0192129D02*
X0403494Y0192675D01*
X0404502Y0193683D01*
X0405048Y0195000D01*
X0405048Y0196426D01*
X0404502Y0197744D01*
X0403494Y0198752D01*
X0402177Y0199298D01*
X0400751Y0199298D01*
X0399433Y0198752D01*
X0398425Y0197744D01*
X0397879Y0196426D01*
X0397879Y0195000D01*
X0398425Y0193683D01*
X0399433Y0192675D01*
X0400751Y0192129D01*
X0402177Y0192129D01*
X0400404Y0192273D02*
X0392212Y0192273D01*
X0392212Y0193471D02*
X0398637Y0193471D01*
X0398016Y0194670D02*
X0392212Y0194670D01*
X0392212Y0195868D02*
X0397879Y0195868D01*
X0398145Y0197067D02*
X0392212Y0197067D01*
X0392212Y0198265D02*
X0398947Y0198265D01*
X0403981Y0198265D02*
X0426383Y0198265D01*
X0426383Y0198474D02*
X0426383Y0197048D01*
X0426929Y0195730D01*
X0427937Y0194722D01*
X0429255Y0194176D01*
X0430680Y0194176D01*
X0431998Y0194722D01*
X0433006Y0195730D01*
X0433552Y0197048D01*
X0433552Y0198474D01*
X0433006Y0199791D01*
X0431998Y0200799D01*
X0430680Y0201345D01*
X0429802Y0201345D01*
X0429896Y0201439D01*
X0430442Y0202756D01*
X0430442Y0204182D01*
X0429896Y0205500D01*
X0428888Y0206508D01*
X0427570Y0207054D01*
X0426144Y0207054D01*
X0424827Y0206508D01*
X0423819Y0205500D01*
X0423273Y0204182D01*
X0423273Y0202756D01*
X0423819Y0201439D01*
X0424827Y0200431D01*
X0426144Y0199885D01*
X0427023Y0199885D01*
X0426929Y0199791D01*
X0426383Y0198474D01*
X0426793Y0199464D02*
X0392212Y0199464D01*
X0392212Y0200662D02*
X0424595Y0200662D01*
X0423644Y0201861D02*
X0392212Y0201861D01*
X0392212Y0203059D02*
X0423273Y0203059D01*
X0423304Y0204258D02*
X0392212Y0204258D01*
X0392212Y0205456D02*
X0423801Y0205456D01*
X0425182Y0206655D02*
X0392212Y0206655D01*
X0392212Y0207853D02*
X0451345Y0207853D01*
X0451345Y0206655D02*
X0428533Y0206655D01*
X0429914Y0205456D02*
X0451345Y0205456D01*
X0451345Y0204258D02*
X0430410Y0204258D01*
X0430442Y0203059D02*
X0451345Y0203059D01*
X0451345Y0201861D02*
X0430071Y0201861D01*
X0432135Y0200662D02*
X0451345Y0200662D01*
X0451345Y0199464D02*
X0433142Y0199464D01*
X0433552Y0198265D02*
X0451345Y0198265D01*
X0448146Y0197067D02*
X0433552Y0197067D01*
X0433063Y0195868D02*
X0446886Y0195868D01*
X0446390Y0194670D02*
X0431871Y0194670D01*
X0428064Y0194670D02*
X0404911Y0194670D01*
X0405048Y0195868D02*
X0426872Y0195868D01*
X0426383Y0197067D02*
X0404783Y0197067D01*
X0404290Y0193471D02*
X0446383Y0193471D01*
X0443256Y0188677D02*
X0413945Y0188677D01*
X0413749Y0187479D02*
X0442443Y0187479D01*
X0442171Y0186280D02*
X0413044Y0186280D01*
X0407678Y0186280D02*
X0392212Y0186280D01*
X0392212Y0185082D02*
X0442300Y0185082D01*
X0442910Y0183883D02*
X0392212Y0183883D01*
X0392212Y0187479D02*
X0406974Y0187479D01*
X0406777Y0188677D02*
X0392212Y0188677D01*
X0392212Y0189876D02*
X0406983Y0189876D01*
X0407700Y0191074D02*
X0392212Y0191074D01*
X0388983Y0191074D02*
X0377732Y0191074D01*
X0377732Y0192273D02*
X0388983Y0192273D01*
X0388983Y0193471D02*
X0377332Y0193471D01*
X0376781Y0194670D02*
X0388983Y0194670D01*
X0388983Y0195868D02*
X0375582Y0195868D01*
X0377572Y0189876D02*
X0388983Y0189876D01*
X0388983Y0188677D02*
X0377076Y0188677D01*
X0376164Y0187479D02*
X0388983Y0187479D01*
X0400654Y0167104D02*
X0409045Y0167104D01*
X0407966Y0165906D02*
X0401652Y0165906D01*
X0402056Y0164707D02*
X0407505Y0164707D01*
X0407505Y0163508D02*
X0402056Y0163508D01*
X0401561Y0162310D02*
X0407943Y0162310D01*
X0408989Y0161111D02*
X0400339Y0161111D01*
X0396604Y0161111D02*
X0388672Y0161111D01*
X0390109Y0162310D02*
X0395382Y0162310D01*
X0394887Y0163508D02*
X0390579Y0163508D01*
X0385230Y0159913D02*
X0451345Y0159913D01*
X0451345Y0161111D02*
X0413190Y0161111D01*
X0414236Y0162310D02*
X0451345Y0162310D01*
X0451345Y0163508D02*
X0414674Y0163508D01*
X0414674Y0164707D02*
X0451345Y0164707D01*
X0451345Y0158714D02*
X0321945Y0158714D01*
X0320746Y0157516D02*
X0436629Y0157516D01*
X0437129Y0157723D02*
X0435811Y0157177D01*
X0434803Y0156169D01*
X0434257Y0154852D01*
X0434257Y0153426D01*
X0434803Y0152108D01*
X0435811Y0151100D01*
X0437129Y0150554D01*
X0438555Y0150554D01*
X0439872Y0151100D01*
X0440880Y0152108D01*
X0441426Y0153426D01*
X0441426Y0154852D01*
X0440880Y0156169D01*
X0439872Y0157177D01*
X0438555Y0157723D01*
X0437129Y0157723D01*
X0439054Y0157516D02*
X0451345Y0157516D01*
X0451345Y0156317D02*
X0440732Y0156317D01*
X0441315Y0155119D02*
X0451345Y0155119D01*
X0451345Y0153920D02*
X0441426Y0153920D01*
X0441134Y0152722D02*
X0451345Y0152722D01*
X0451345Y0151523D02*
X0440295Y0151523D01*
X0435388Y0151523D02*
X0316306Y0151523D01*
X0316306Y0150325D02*
X0392542Y0150325D01*
X0391067Y0149126D02*
X0316306Y0149126D01*
X0316306Y0147928D02*
X0390568Y0147928D01*
X0390517Y0146729D02*
X0316306Y0146729D01*
X0316306Y0145531D02*
X0358597Y0145531D01*
X0356943Y0144332D02*
X0316306Y0144332D01*
X0316306Y0143134D02*
X0356369Y0143134D01*
X0356265Y0141935D02*
X0316306Y0141935D01*
X0316306Y0140737D02*
X0356564Y0140737D01*
X0357412Y0139538D02*
X0316306Y0139538D01*
X0313038Y0137141D02*
X0263865Y0137141D01*
X0263865Y0135943D02*
X0313038Y0135943D01*
X0313038Y0134744D02*
X0263865Y0134744D01*
X0263865Y0133546D02*
X0296751Y0133546D01*
X0295407Y0132347D02*
X0263865Y0132347D01*
X0264847Y0131149D02*
X0294911Y0131149D01*
X0294887Y0129950D02*
X0266046Y0129950D01*
X0300192Y0133546D02*
X0313038Y0133546D01*
X0312389Y0132347D02*
X0301536Y0132347D01*
X0302032Y0131149D02*
X0311190Y0131149D01*
X0309992Y0129950D02*
X0302056Y0129950D01*
X0310301Y0126355D02*
X0334516Y0126355D01*
X0333565Y0125156D02*
X0311229Y0125156D01*
X0311583Y0123958D02*
X0333194Y0123958D01*
X0333226Y0122759D02*
X0311535Y0122759D01*
X0311039Y0121561D02*
X0333722Y0121561D01*
X0335104Y0120362D02*
X0309578Y0120362D01*
X0316306Y0152722D02*
X0434549Y0152722D01*
X0434257Y0153920D02*
X0317151Y0153920D01*
X0318349Y0155119D02*
X0434368Y0155119D01*
X0434951Y0156317D02*
X0319548Y0156317D01*
X0361102Y0145531D02*
X0390868Y0145531D01*
X0391792Y0144332D02*
X0362756Y0144332D01*
X0395661Y0150325D02*
X0451345Y0150325D01*
X0451345Y0149126D02*
X0402805Y0149126D01*
X0403604Y0147928D02*
X0451345Y0147928D01*
X0451220Y0146729D02*
X0403867Y0146729D01*
X0403728Y0145531D02*
X0450021Y0145531D01*
X0448823Y0144332D02*
X0403104Y0144332D01*
X0397461Y0144332D02*
X0396411Y0144332D01*
X0397135Y0149126D02*
X0397760Y0149126D01*
X0392212Y0209052D02*
X0451345Y0209052D01*
X0451345Y0210250D02*
X0392212Y0210250D01*
X0392212Y0211449D02*
X0451345Y0211449D01*
X0451345Y0212647D02*
X0392212Y0212647D01*
X0219220Y0212647D02*
X0165468Y0212647D01*
X0165468Y0213846D02*
X0219220Y0213846D01*
X0219220Y0215044D02*
X0165150Y0215044D01*
X0165129Y0211449D02*
X0219220Y0211449D01*
X0219220Y0210250D02*
X0164537Y0210250D01*
X0163339Y0209052D02*
X0219220Y0209052D01*
X0219220Y0207853D02*
X0162552Y0207853D01*
X0164177Y0206655D02*
X0219220Y0206655D01*
X0219220Y0205456D02*
X0164980Y0205456D01*
X0165468Y0204258D02*
X0219220Y0204258D01*
X0219220Y0203059D02*
X0165468Y0203059D01*
X0165299Y0201861D02*
X0219220Y0201861D01*
X0219220Y0200662D02*
X0164803Y0200662D01*
X0163751Y0199464D02*
X0219220Y0199464D01*
D20*
X0267448Y0207406D03*
X0272802Y0207328D03*
X0278393Y0207446D03*
X0283786Y0207367D03*
X0286700Y0202800D03*
X0289692Y0199021D03*
X0292330Y0203548D03*
X0289416Y0207406D03*
X0294849Y0207879D03*
X0295086Y0199375D03*
X0283983Y0197052D03*
X0278314Y0196304D03*
X0279220Y0191147D03*
X0284849Y0191265D03*
X0286739Y0184257D03*
X0281306Y0184611D03*
X0292842Y0183351D03*
X0281109Y0202210D03*
X0275637Y0202328D03*
X0269968Y0202131D03*
X0292212Y0133981D03*
X0292605Y0123430D03*
X0369849Y0167406D03*
X0374220Y0167406D03*
X0372251Y0171658D03*
X0377448Y0171658D03*
X0378944Y0167249D03*
X0377605Y0163509D03*
X0382369Y0164060D03*
X0387290Y0164099D03*
X0413786Y0115595D03*
D21*
X0109062Y0211580D02*
X0095716Y0211580D01*
X0095716Y0201580D01*
X0086542Y0177446D02*
X0092408Y0171580D01*
X0095716Y0171580D01*
X0086542Y0177446D02*
X0086542Y0356265D01*
X0094023Y0363745D01*
X0101503Y0363745D01*
D22*
X0108157Y0363745D01*
X0114928Y0370517D01*
X0134220Y0370517D01*
X0122448Y0374493D02*
X0118905Y0374493D01*
X0120322Y0375871D02*
X0113550Y0369099D01*
M02*
