G75*
%MOIN*%
%OFA0B0*%
%FSLAX25Y25*%
%IPPOS*%
%LPD*%
%AMOC8*
5,1,8,0,0,1.08239X$1,22.5*
%
%ADD10C,0.00300*%
%ADD11R,0.07283X0.26772*%
%ADD12R,0.04331X0.04331*%
%ADD13R,0.07087X0.05906*%
%ADD14R,0.05906X0.11417*%
%ADD15OC8,0.12400*%
%ADD16C,0.12400*%
%ADD17R,0.06496X0.06496*%
%ADD18R,0.20394X0.27559*%
%ADD19R,0.05906X0.08858*%
%ADD20R,0.27559X0.20394*%
%ADD21R,0.08858X0.05906*%
%ADD22R,0.07874X0.04724*%
%ADD23R,0.05906X0.07087*%
%ADD24R,0.06299X0.07098*%
%ADD25R,0.08661X0.02362*%
%ADD26R,0.04724X0.01181*%
%ADD27C,0.05200*%
%ADD28R,0.06299X0.07087*%
%ADD29R,0.07087X0.06299*%
%ADD30C,0.21000*%
%ADD31C,0.08250*%
%ADD32R,0.21654X0.07283*%
%ADD33OC8,0.10000*%
%ADD34R,0.07098X0.06299*%
%ADD35C,0.04000*%
%ADD36C,0.03569*%
%ADD37C,0.01200*%
%ADD38C,0.02400*%
%ADD39C,0.03200*%
%ADD40C,0.01600*%
%ADD41C,0.02978*%
%ADD42C,0.02000*%
%ADD43C,0.01000*%
%ADD44C,0.00600*%
%ADD45C,0.05000*%
D10*
X0381938Y0399304D02*
X0381938Y0403004D01*
X0382965Y0403004D01*
X0383021Y0403002D01*
X0383077Y0402996D01*
X0383132Y0402987D01*
X0383187Y0402974D01*
X0383240Y0402957D01*
X0383292Y0402936D01*
X0383343Y0402912D01*
X0383392Y0402884D01*
X0383439Y0402854D01*
X0383484Y0402820D01*
X0383526Y0402783D01*
X0383566Y0402743D01*
X0383603Y0402701D01*
X0383637Y0402656D01*
X0383667Y0402609D01*
X0383695Y0402560D01*
X0383719Y0402509D01*
X0383740Y0402457D01*
X0383757Y0402404D01*
X0383770Y0402349D01*
X0383779Y0402294D01*
X0383785Y0402238D01*
X0383787Y0402182D01*
X0383785Y0402126D01*
X0383779Y0402070D01*
X0383770Y0402015D01*
X0383757Y0401960D01*
X0383740Y0401907D01*
X0383719Y0401855D01*
X0383695Y0401804D01*
X0383667Y0401755D01*
X0383637Y0401708D01*
X0383603Y0401663D01*
X0383566Y0401621D01*
X0383526Y0401581D01*
X0383484Y0401544D01*
X0383439Y0401510D01*
X0383392Y0401480D01*
X0383343Y0401452D01*
X0383292Y0401428D01*
X0383240Y0401407D01*
X0383187Y0401390D01*
X0383132Y0401377D01*
X0383077Y0401368D01*
X0383021Y0401362D01*
X0382965Y0401360D01*
X0381938Y0401360D01*
X0382965Y0401360D02*
X0383028Y0401358D01*
X0383091Y0401352D01*
X0383154Y0401342D01*
X0383216Y0401329D01*
X0383277Y0401312D01*
X0383336Y0401291D01*
X0383395Y0401266D01*
X0383451Y0401238D01*
X0383506Y0401206D01*
X0383559Y0401171D01*
X0383609Y0401133D01*
X0383658Y0401092D01*
X0383703Y0401048D01*
X0383746Y0401001D01*
X0383785Y0400952D01*
X0383822Y0400900D01*
X0383855Y0400846D01*
X0383885Y0400790D01*
X0383912Y0400733D01*
X0383935Y0400674D01*
X0383954Y0400613D01*
X0383969Y0400552D01*
X0383981Y0400490D01*
X0383989Y0400427D01*
X0383993Y0400364D01*
X0383993Y0400300D01*
X0383989Y0400237D01*
X0383981Y0400174D01*
X0383969Y0400112D01*
X0383954Y0400051D01*
X0383935Y0399990D01*
X0383912Y0399931D01*
X0383885Y0399874D01*
X0383855Y0399818D01*
X0383822Y0399764D01*
X0383785Y0399712D01*
X0383746Y0399663D01*
X0383703Y0399616D01*
X0383658Y0399572D01*
X0383609Y0399531D01*
X0383559Y0399493D01*
X0383506Y0399458D01*
X0383451Y0399426D01*
X0383395Y0399398D01*
X0383336Y0399373D01*
X0383277Y0399352D01*
X0383216Y0399335D01*
X0383154Y0399322D01*
X0383091Y0399312D01*
X0383028Y0399306D01*
X0382965Y0399304D01*
X0381938Y0399304D01*
X0385366Y0400332D02*
X0385366Y0401977D01*
X0385368Y0402040D01*
X0385374Y0402103D01*
X0385384Y0402166D01*
X0385397Y0402228D01*
X0385414Y0402289D01*
X0385435Y0402348D01*
X0385460Y0402407D01*
X0385488Y0402463D01*
X0385520Y0402518D01*
X0385555Y0402571D01*
X0385593Y0402621D01*
X0385634Y0402670D01*
X0385678Y0402715D01*
X0385725Y0402758D01*
X0385774Y0402797D01*
X0385826Y0402834D01*
X0385880Y0402867D01*
X0385936Y0402897D01*
X0385993Y0402924D01*
X0386052Y0402947D01*
X0386113Y0402966D01*
X0386174Y0402981D01*
X0386236Y0402993D01*
X0386299Y0403001D01*
X0386362Y0403005D01*
X0386426Y0403005D01*
X0386489Y0403001D01*
X0386552Y0402993D01*
X0386614Y0402981D01*
X0386675Y0402966D01*
X0386736Y0402947D01*
X0386795Y0402924D01*
X0386852Y0402897D01*
X0386908Y0402867D01*
X0386962Y0402834D01*
X0387014Y0402797D01*
X0387063Y0402758D01*
X0387110Y0402715D01*
X0387154Y0402670D01*
X0387195Y0402621D01*
X0387233Y0402571D01*
X0387268Y0402518D01*
X0387300Y0402463D01*
X0387328Y0402407D01*
X0387353Y0402348D01*
X0387374Y0402289D01*
X0387391Y0402228D01*
X0387404Y0402166D01*
X0387414Y0402103D01*
X0387420Y0402040D01*
X0387422Y0401977D01*
X0387421Y0401977D02*
X0387421Y0400332D01*
X0387422Y0400332D02*
X0387420Y0400269D01*
X0387414Y0400206D01*
X0387404Y0400143D01*
X0387391Y0400081D01*
X0387374Y0400020D01*
X0387353Y0399961D01*
X0387328Y0399902D01*
X0387300Y0399846D01*
X0387268Y0399791D01*
X0387233Y0399738D01*
X0387195Y0399688D01*
X0387154Y0399639D01*
X0387110Y0399594D01*
X0387063Y0399551D01*
X0387014Y0399512D01*
X0386962Y0399475D01*
X0386908Y0399442D01*
X0386852Y0399412D01*
X0386795Y0399385D01*
X0386736Y0399362D01*
X0386675Y0399343D01*
X0386614Y0399328D01*
X0386552Y0399316D01*
X0386489Y0399308D01*
X0386426Y0399304D01*
X0386362Y0399304D01*
X0386299Y0399308D01*
X0386236Y0399316D01*
X0386174Y0399328D01*
X0386113Y0399343D01*
X0386052Y0399362D01*
X0385993Y0399385D01*
X0385936Y0399412D01*
X0385880Y0399442D01*
X0385826Y0399475D01*
X0385774Y0399512D01*
X0385725Y0399551D01*
X0385678Y0399594D01*
X0385634Y0399639D01*
X0385593Y0399688D01*
X0385555Y0399738D01*
X0385520Y0399791D01*
X0385488Y0399846D01*
X0385460Y0399902D01*
X0385435Y0399961D01*
X0385414Y0400020D01*
X0385397Y0400081D01*
X0385384Y0400143D01*
X0385374Y0400206D01*
X0385368Y0400269D01*
X0385366Y0400332D01*
X0388726Y0403004D02*
X0390781Y0403004D01*
X0389754Y0403004D02*
X0389754Y0399304D01*
X0392874Y0399304D02*
X0392874Y0403004D01*
X0393901Y0403004D02*
X0391846Y0403004D01*
X0395206Y0401977D02*
X0395206Y0400332D01*
X0395208Y0400269D01*
X0395214Y0400206D01*
X0395224Y0400143D01*
X0395237Y0400081D01*
X0395254Y0400020D01*
X0395275Y0399961D01*
X0395300Y0399902D01*
X0395328Y0399846D01*
X0395360Y0399791D01*
X0395395Y0399738D01*
X0395433Y0399688D01*
X0395474Y0399639D01*
X0395518Y0399594D01*
X0395565Y0399551D01*
X0395614Y0399512D01*
X0395666Y0399475D01*
X0395720Y0399442D01*
X0395776Y0399412D01*
X0395833Y0399385D01*
X0395892Y0399362D01*
X0395953Y0399343D01*
X0396014Y0399328D01*
X0396076Y0399316D01*
X0396139Y0399308D01*
X0396202Y0399304D01*
X0396266Y0399304D01*
X0396329Y0399308D01*
X0396392Y0399316D01*
X0396454Y0399328D01*
X0396515Y0399343D01*
X0396576Y0399362D01*
X0396635Y0399385D01*
X0396692Y0399412D01*
X0396748Y0399442D01*
X0396802Y0399475D01*
X0396854Y0399512D01*
X0396903Y0399551D01*
X0396950Y0399594D01*
X0396994Y0399639D01*
X0397035Y0399688D01*
X0397073Y0399738D01*
X0397108Y0399791D01*
X0397140Y0399846D01*
X0397168Y0399902D01*
X0397193Y0399961D01*
X0397214Y0400020D01*
X0397231Y0400081D01*
X0397244Y0400143D01*
X0397254Y0400206D01*
X0397260Y0400269D01*
X0397262Y0400332D01*
X0397261Y0400332D02*
X0397261Y0401977D01*
X0397262Y0401977D02*
X0397260Y0402040D01*
X0397254Y0402103D01*
X0397244Y0402166D01*
X0397231Y0402228D01*
X0397214Y0402289D01*
X0397193Y0402348D01*
X0397168Y0402407D01*
X0397140Y0402463D01*
X0397108Y0402518D01*
X0397073Y0402571D01*
X0397035Y0402621D01*
X0396994Y0402670D01*
X0396950Y0402715D01*
X0396903Y0402758D01*
X0396854Y0402797D01*
X0396802Y0402834D01*
X0396748Y0402867D01*
X0396692Y0402897D01*
X0396635Y0402924D01*
X0396576Y0402947D01*
X0396515Y0402966D01*
X0396454Y0402981D01*
X0396392Y0402993D01*
X0396329Y0403001D01*
X0396266Y0403005D01*
X0396202Y0403005D01*
X0396139Y0403001D01*
X0396076Y0402993D01*
X0396014Y0402981D01*
X0395953Y0402966D01*
X0395892Y0402947D01*
X0395833Y0402924D01*
X0395776Y0402897D01*
X0395720Y0402867D01*
X0395666Y0402834D01*
X0395614Y0402797D01*
X0395565Y0402758D01*
X0395518Y0402715D01*
X0395474Y0402670D01*
X0395433Y0402621D01*
X0395395Y0402571D01*
X0395360Y0402518D01*
X0395328Y0402463D01*
X0395300Y0402407D01*
X0395275Y0402348D01*
X0395254Y0402289D01*
X0395237Y0402228D01*
X0395224Y0402166D01*
X0395214Y0402103D01*
X0395208Y0402040D01*
X0395206Y0401977D01*
X0398960Y0403004D02*
X0400194Y0400949D01*
X0401427Y0403004D01*
X0401427Y0399304D01*
X0398960Y0399304D02*
X0398960Y0403004D01*
X0405173Y0403004D02*
X0405173Y0399304D01*
X0406817Y0399304D01*
X0407960Y0399304D02*
X0409194Y0403004D01*
X0410427Y0399304D01*
X0410119Y0400229D02*
X0408269Y0400229D01*
X0411560Y0403004D02*
X0412793Y0401257D01*
X0412793Y0399304D01*
X0412793Y0401257D02*
X0414027Y0403004D01*
X0415493Y0403004D02*
X0415493Y0399304D01*
X0417137Y0399304D01*
X0418628Y0399304D02*
X0418628Y0403004D01*
X0419656Y0403004D01*
X0419656Y0403005D02*
X0419719Y0403003D01*
X0419782Y0402997D01*
X0419845Y0402987D01*
X0419907Y0402974D01*
X0419968Y0402957D01*
X0420027Y0402936D01*
X0420086Y0402911D01*
X0420142Y0402883D01*
X0420197Y0402851D01*
X0420250Y0402816D01*
X0420300Y0402778D01*
X0420349Y0402737D01*
X0420394Y0402693D01*
X0420437Y0402646D01*
X0420476Y0402597D01*
X0420513Y0402545D01*
X0420546Y0402491D01*
X0420576Y0402435D01*
X0420603Y0402378D01*
X0420626Y0402319D01*
X0420645Y0402258D01*
X0420660Y0402197D01*
X0420672Y0402135D01*
X0420680Y0402072D01*
X0420684Y0402009D01*
X0420684Y0401945D01*
X0420680Y0401882D01*
X0420672Y0401819D01*
X0420660Y0401757D01*
X0420645Y0401696D01*
X0420626Y0401635D01*
X0420603Y0401576D01*
X0420576Y0401519D01*
X0420546Y0401463D01*
X0420513Y0401409D01*
X0420476Y0401357D01*
X0420437Y0401308D01*
X0420394Y0401261D01*
X0420349Y0401217D01*
X0420300Y0401176D01*
X0420250Y0401138D01*
X0420197Y0401103D01*
X0420142Y0401071D01*
X0420086Y0401043D01*
X0420027Y0401018D01*
X0419968Y0400997D01*
X0419907Y0400980D01*
X0419845Y0400967D01*
X0419782Y0400957D01*
X0419719Y0400951D01*
X0419656Y0400949D01*
X0418628Y0400949D01*
X0419861Y0400949D02*
X0420684Y0399304D01*
X0416726Y0401360D02*
X0415493Y0401360D01*
X0415493Y0403004D02*
X0417137Y0403004D01*
D11*
X0332763Y0308784D03*
X0312684Y0308784D03*
X0312212Y0219414D03*
X0332290Y0219414D03*
D12*
X0331149Y0152328D03*
X0324456Y0152328D03*
X0311857Y0146343D03*
X0305164Y0146343D03*
X0305164Y0139650D03*
X0311857Y0139650D03*
X0311857Y0132761D03*
X0305164Y0132761D03*
X0318708Y0130832D03*
X0325401Y0130832D03*
X0325401Y0123942D03*
X0318708Y0123942D03*
X0394574Y0140871D03*
X0401267Y0140871D03*
X0180282Y0167800D03*
X0180282Y0174493D03*
X0167842Y0153273D03*
X0167842Y0146580D03*
X0167920Y0204454D03*
X0167920Y0211147D03*
X0180440Y0223627D03*
X0180440Y0230320D03*
X0167645Y0265950D03*
X0167645Y0272643D03*
X0178983Y0288469D03*
X0178983Y0295162D03*
X0167802Y0325910D03*
X0167802Y0332603D03*
X0178668Y0345477D03*
X0178668Y0352170D03*
D13*
X0169771Y0346698D03*
X0169771Y0358115D03*
X0138531Y0353024D03*
X0138531Y0341631D03*
X0138531Y0304166D03*
X0138531Y0292773D03*
X0170164Y0297800D03*
X0170164Y0286383D03*
X0230528Y0308048D03*
X0241315Y0308048D03*
X0241315Y0319442D03*
X0230528Y0319442D03*
X0286238Y0301292D03*
X0286238Y0289898D03*
X0170479Y0236186D03*
X0170479Y0224769D03*
X0231158Y0192670D03*
X0241906Y0192631D03*
X0241906Y0181237D03*
X0231158Y0181276D03*
X0287025Y0174442D03*
X0287025Y0163048D03*
X0170282Y0166422D03*
X0170282Y0177839D03*
X0411660Y0227576D03*
X0411660Y0238969D03*
X0411700Y0250135D03*
X0411700Y0261528D03*
X0411700Y0272103D03*
X0411700Y0283497D03*
D14*
X0350716Y0356737D03*
X0338905Y0356737D03*
X0339220Y0194650D03*
X0351031Y0194650D03*
D15*
X0371031Y0209036D03*
X0371031Y0317036D03*
X0243471Y0386166D03*
X0172369Y0385733D03*
D16*
X0172369Y0415733D03*
X0243471Y0416166D03*
D17*
X0159790Y0355044D03*
X0159790Y0345044D03*
X0159790Y0335044D03*
X0159790Y0325044D03*
X0159790Y0295241D03*
X0159790Y0285241D03*
X0159790Y0275241D03*
X0159790Y0265241D03*
X0160420Y0233273D03*
X0160420Y0223273D03*
X0160420Y0213273D03*
X0160420Y0203273D03*
X0160696Y0175084D03*
X0160696Y0165084D03*
X0160696Y0155084D03*
X0160696Y0145084D03*
D18*
X0275657Y0196028D03*
X0274869Y0322839D03*
D19*
X0251877Y0313489D03*
X0251877Y0332190D03*
X0252664Y0205379D03*
X0252664Y0186678D03*
D20*
X0264869Y0152524D03*
X0264082Y0279336D03*
D21*
X0273432Y0302328D03*
X0254731Y0302328D03*
X0255519Y0175517D03*
X0274220Y0175517D03*
D22*
X0207408Y0154178D03*
X0207408Y0143902D03*
X0177881Y0143902D03*
X0177881Y0154178D03*
X0177960Y0202052D03*
X0177960Y0212328D03*
X0207487Y0212328D03*
X0207487Y0202052D03*
X0206857Y0264060D03*
X0206857Y0274336D03*
X0177330Y0274336D03*
X0177330Y0264060D03*
X0177566Y0324060D03*
X0177566Y0334336D03*
X0207094Y0334336D03*
X0207094Y0324060D03*
D23*
X0252617Y0345044D03*
X0264011Y0345044D03*
X0139405Y0330398D03*
X0128011Y0330398D03*
X0128011Y0315241D03*
X0139405Y0315241D03*
X0139405Y0281658D03*
X0128011Y0281658D03*
X0128011Y0364414D03*
X0139405Y0364414D03*
X0254074Y0218194D03*
X0265468Y0218194D03*
D24*
X0311653Y0390458D03*
X0322849Y0390458D03*
X0331613Y0390398D03*
X0342810Y0390398D03*
X0342928Y0410418D03*
X0331731Y0410418D03*
X0322849Y0410497D03*
X0311653Y0410497D03*
D25*
X0220125Y0366599D03*
X0220125Y0361599D03*
X0220125Y0356599D03*
X0220125Y0351599D03*
X0199653Y0351599D03*
X0199653Y0356599D03*
X0199653Y0361599D03*
X0199653Y0366599D03*
D26*
X0320349Y0145336D03*
X0320349Y0142776D03*
X0320349Y0140217D03*
X0320349Y0137658D03*
X0336983Y0137658D03*
X0336983Y0140217D03*
X0336983Y0142776D03*
X0336983Y0145336D03*
D27*
X0098316Y0151580D02*
X0093116Y0151580D01*
X0093116Y0161580D02*
X0098316Y0161580D01*
X0098316Y0171580D02*
X0093116Y0171580D01*
X0093116Y0181580D02*
X0098316Y0181580D01*
X0098316Y0191580D02*
X0093116Y0191580D01*
X0093116Y0201580D02*
X0098316Y0201580D01*
X0098316Y0211580D02*
X0093116Y0211580D01*
X0093116Y0221580D02*
X0098316Y0221580D01*
D28*
X0274416Y0217406D03*
X0285440Y0217406D03*
X0340007Y0183784D03*
X0351031Y0183784D03*
X0351109Y0173509D03*
X0340086Y0173509D03*
X0339456Y0334099D03*
X0350479Y0334099D03*
X0350401Y0345044D03*
X0339377Y0345044D03*
X0284141Y0344296D03*
X0273117Y0344296D03*
D29*
X0241906Y0298981D03*
X0232457Y0298981D03*
X0232457Y0287958D03*
X0241906Y0287958D03*
X0286238Y0280832D03*
X0286238Y0269808D03*
X0242654Y0172170D03*
X0233205Y0172170D03*
X0233205Y0161147D03*
X0242654Y0161147D03*
X0287025Y0153902D03*
X0287025Y0142879D03*
D30*
X0441660Y0120359D03*
X0096779Y0120359D03*
X0096779Y0427210D03*
X0441660Y0427210D03*
D31*
X0441691Y0281343D02*
X0433441Y0281343D01*
X0433441Y0261343D02*
X0441691Y0261343D01*
X0105628Y0333745D02*
X0097378Y0333745D01*
X0097378Y0363745D02*
X0105628Y0363745D01*
X0105628Y0393745D02*
X0097378Y0393745D01*
D32*
X0143944Y0387150D03*
X0143944Y0407229D03*
X0191503Y0411127D03*
X0191503Y0391048D03*
X0225086Y0391245D03*
X0225086Y0411324D03*
X0262251Y0411245D03*
X0262251Y0391166D03*
X0295794Y0390458D03*
X0295794Y0410536D03*
D33*
X0293432Y0337013D03*
X0372172Y0337013D03*
X0372094Y0191383D03*
X0293353Y0191383D03*
D34*
X0118590Y0385863D03*
X0118590Y0397060D03*
X0160401Y0401745D03*
X0160401Y0390548D03*
X0208235Y0395312D03*
X0208235Y0406509D03*
X0279220Y0405564D03*
X0279220Y0394367D03*
D35*
X0178668Y0352170D02*
X0175794Y0355044D01*
X0169574Y0355044D01*
X0169771Y0355241D01*
X0169771Y0358115D01*
X0169574Y0355044D02*
X0159790Y0355044D01*
X0159830Y0355005D01*
X0159594Y0345241D02*
X0157094Y0345241D01*
X0152212Y0340359D01*
X0152212Y0285084D01*
X0152133Y0285084D01*
X0152133Y0223233D01*
X0152172Y0223273D01*
X0160420Y0223273D01*
X0170046Y0223273D01*
X0170479Y0223706D01*
X0170479Y0224769D01*
X0170046Y0223273D02*
X0180086Y0223273D01*
X0180440Y0223627D01*
X0180440Y0230320D02*
X0177487Y0233273D01*
X0171070Y0233273D01*
X0171070Y0235595D01*
X0170479Y0236186D01*
X0171070Y0233273D02*
X0160420Y0233273D01*
X0152133Y0223233D02*
X0152133Y0170084D01*
X0157133Y0165084D01*
X0160696Y0165084D01*
X0160223Y0164611D01*
X0160696Y0165084D02*
X0161365Y0165753D01*
X0169889Y0165753D01*
X0170282Y0166147D01*
X0170282Y0166422D01*
X0169889Y0165753D02*
X0178235Y0165753D01*
X0180282Y0167800D01*
X0180282Y0174493D02*
X0179692Y0175084D01*
X0168511Y0175084D01*
X0170282Y0176855D01*
X0170282Y0177839D01*
X0168511Y0175084D02*
X0160696Y0175084D01*
X0180204Y0174572D02*
X0180282Y0174493D01*
X0176975Y0155084D02*
X0168038Y0155084D01*
X0167842Y0154887D01*
X0167842Y0153273D01*
X0168038Y0155084D02*
X0160696Y0155084D01*
X0160696Y0145084D02*
X0161759Y0144021D01*
X0167802Y0144021D01*
X0167842Y0144060D01*
X0167842Y0146580D01*
X0167802Y0144021D02*
X0177763Y0144021D01*
X0177881Y0143902D01*
X0177881Y0154178D02*
X0176975Y0155084D01*
X0177960Y0202052D02*
X0167842Y0202052D01*
X0167920Y0202131D01*
X0167920Y0204454D01*
X0167842Y0202052D02*
X0161641Y0202052D01*
X0160420Y0203273D01*
X0167920Y0211147D02*
X0167842Y0211225D01*
X0167842Y0213273D01*
X0177015Y0213273D01*
X0177960Y0212328D01*
X0167842Y0213273D02*
X0160420Y0213273D01*
X0115676Y0211776D02*
X0105873Y0221580D01*
X0095716Y0221580D01*
X0115676Y0211776D02*
X0115676Y0142997D01*
X0142999Y0115674D01*
X0142999Y0115556D01*
X0095716Y0151580D02*
X0091944Y0151580D01*
X0086628Y0156896D01*
X0086628Y0315950D01*
X0087337Y0315241D01*
X0128011Y0315241D01*
X0139405Y0315241D02*
X0139405Y0305040D01*
X0138531Y0304166D01*
X0138491Y0304206D01*
X0138531Y0292773D02*
X0139405Y0291898D01*
X0139405Y0281658D01*
X0152212Y0285084D02*
X0159633Y0285084D01*
X0159790Y0285241D01*
X0169731Y0285241D01*
X0170164Y0285674D01*
X0170164Y0286383D01*
X0169731Y0285241D02*
X0175755Y0285241D01*
X0178983Y0288469D01*
X0178983Y0295162D02*
X0169298Y0295162D01*
X0170164Y0296028D01*
X0170164Y0297800D01*
X0169298Y0295162D02*
X0159869Y0295162D01*
X0159790Y0295241D01*
X0159790Y0275241D02*
X0168038Y0275241D01*
X0167645Y0274847D01*
X0167645Y0272643D01*
X0168038Y0275241D02*
X0176424Y0275241D01*
X0177330Y0274336D01*
X0167645Y0265950D02*
X0167645Y0264217D01*
X0167487Y0264060D01*
X0177330Y0264060D01*
X0167487Y0264060D02*
X0160971Y0264060D01*
X0159790Y0265241D01*
X0086628Y0315950D02*
X0086628Y0386469D01*
X0093905Y0393745D01*
X0101503Y0393745D01*
X0102172Y0364414D02*
X0101503Y0363745D01*
X0102172Y0364414D02*
X0128011Y0364414D01*
X0139405Y0364414D02*
X0139405Y0353898D01*
X0138531Y0353024D01*
X0138531Y0341631D02*
X0139405Y0340757D01*
X0139405Y0330398D01*
X0159790Y0335044D02*
X0167881Y0335044D01*
X0167802Y0334965D01*
X0167802Y0332603D01*
X0167881Y0335044D02*
X0176857Y0335044D01*
X0177566Y0334336D01*
X0177566Y0324060D02*
X0167015Y0324060D01*
X0167802Y0324847D01*
X0167802Y0325910D01*
X0167015Y0324060D02*
X0160775Y0324060D01*
X0159790Y0325044D01*
X0159790Y0345044D02*
X0159594Y0345241D01*
X0159790Y0345044D02*
X0169377Y0345044D01*
X0169377Y0346304D01*
X0169771Y0346698D01*
X0169377Y0345044D02*
X0178235Y0345044D01*
X0178668Y0345477D01*
X0241906Y0287958D02*
X0242654Y0287210D01*
X0254534Y0287210D01*
X0257015Y0284729D01*
X0242693Y0287170D02*
X0241906Y0287958D01*
X0266857Y0271265D02*
X0271745Y0276152D01*
X0278088Y0269808D01*
X0286238Y0269808D01*
X0286238Y0280832D02*
X0286238Y0289898D01*
X0286238Y0301292D02*
X0285203Y0302328D01*
X0273432Y0302328D01*
X0265468Y0218194D02*
X0266255Y0217406D01*
X0274416Y0217406D01*
X0253235Y0204611D02*
X0252664Y0205182D01*
X0252664Y0205379D01*
X0265873Y0153981D02*
X0270637Y0153981D01*
X0269534Y0152524D02*
X0264869Y0152524D01*
X0286592Y0143312D02*
X0287025Y0142879D01*
X0307997Y0126280D02*
X0311857Y0130141D01*
X0311857Y0132761D01*
X0307997Y0126280D02*
X0307997Y0123590D01*
X0307999Y0123587D01*
X0411306Y0239206D02*
X0411660Y0238969D01*
X0411070Y0261253D02*
X0411700Y0261528D01*
D36*
X0384653Y0262170D03*
X0388196Y0244257D03*
X0390164Y0283863D03*
X0408983Y0290084D03*
X0431050Y0319591D03*
X0429515Y0340615D03*
X0415755Y0345989D03*
X0409731Y0339847D03*
X0364908Y0390812D03*
X0326345Y0383351D03*
X0314101Y0383587D03*
X0307172Y0383587D03*
X0301109Y0383548D03*
X0294456Y0383548D03*
X0287251Y0383548D03*
X0280873Y0383509D03*
X0274101Y0383469D03*
X0267448Y0383430D03*
X0261424Y0383430D03*
X0254456Y0383430D03*
X0248078Y0372446D03*
X0251936Y0369021D03*
X0249141Y0364729D03*
X0244653Y0367879D03*
X0240479Y0364296D03*
X0236897Y0368233D03*
X0233668Y0364336D03*
X0230125Y0367879D03*
X0227487Y0364139D03*
X0225794Y0372446D03*
X0219495Y0372446D03*
X0209220Y0367958D03*
X0199534Y0370674D03*
X0192448Y0370910D03*
X0191542Y0383036D03*
X0197802Y0383036D03*
X0204692Y0383036D03*
X0183865Y0383076D03*
X0162330Y0379650D03*
X0155125Y0379690D03*
X0147015Y0379650D03*
X0139259Y0379650D03*
X0130558Y0379611D03*
X0143590Y0417249D03*
X0150401Y0424099D03*
X0157251Y0417249D03*
X0164062Y0423981D03*
X0180361Y0424139D03*
X0185952Y0418666D03*
X0191424Y0424099D03*
X0196345Y0419178D03*
X0201306Y0424099D03*
X0206385Y0419060D03*
X0211149Y0423745D03*
X0216385Y0418548D03*
X0221975Y0424178D03*
X0227645Y0418548D03*
X0232763Y0423745D03*
X0253708Y0424021D03*
X0259141Y0419296D03*
X0264298Y0423942D03*
X0271070Y0419414D03*
X0276503Y0424336D03*
X0285952Y0403587D03*
X0292487Y0403824D03*
X0299377Y0403942D03*
X0299023Y0363627D03*
X0293078Y0363233D03*
X0289968Y0358194D03*
X0286975Y0363391D03*
X0283590Y0358194D03*
X0279692Y0362761D03*
X0280046Y0352800D03*
X0286739Y0352761D03*
X0293196Y0352761D03*
X0299180Y0352721D03*
X0296267Y0358194D03*
X0265519Y0359532D03*
X0265755Y0352958D03*
X0244731Y0355241D03*
X0241975Y0349650D03*
X0245007Y0344060D03*
X0237605Y0344060D03*
X0234613Y0350005D03*
X0237763Y0355241D03*
X0230637Y0355280D03*
X0227487Y0349808D03*
X0230794Y0344178D03*
X0221031Y0346186D03*
X0210401Y0350438D03*
X0205282Y0347013D03*
X0198944Y0339887D03*
X0222842Y0320792D03*
X0239685Y0327003D03*
X0237920Y0336147D03*
X0242251Y0336186D03*
X0267251Y0333902D03*
X0270046Y0328981D03*
X0273078Y0333902D03*
X0276188Y0329139D03*
X0279141Y0333863D03*
X0282448Y0329296D03*
X0279574Y0324493D03*
X0282763Y0320123D03*
X0281031Y0313981D03*
X0285834Y0310438D03*
X0290243Y0314729D03*
X0294062Y0319217D03*
X0289456Y0323469D03*
X0293708Y0328706D03*
X0294613Y0309847D03*
X0271779Y0312485D03*
X0266975Y0312485D03*
X0269298Y0317603D03*
X0257857Y0310613D03*
X0255479Y0296422D03*
X0257015Y0284729D03*
X0252723Y0281107D03*
X0257527Y0278784D03*
X0257566Y0273391D03*
X0253117Y0270320D03*
X0247763Y0267367D03*
X0245991Y0272328D03*
X0239692Y0272170D03*
X0240991Y0267210D03*
X0233629Y0267131D03*
X0227979Y0262623D03*
X0217881Y0270753D03*
X0207369Y0282682D03*
X0225812Y0286469D03*
X0239653Y0280753D03*
X0251542Y0275595D03*
X0266739Y0272249D03*
X0271031Y0277210D03*
X0274574Y0272091D03*
X0275637Y0281737D03*
X0270834Y0285713D03*
X0266031Y0281343D03*
X0280912Y0238076D03*
X0286857Y0238351D03*
X0292802Y0238115D03*
X0298865Y0238509D03*
X0296857Y0232918D03*
X0290204Y0232564D03*
X0284062Y0232485D03*
X0287212Y0226698D03*
X0292842Y0226658D03*
X0299495Y0226698D03*
X0281109Y0226580D03*
X0267566Y0226461D03*
X0267605Y0233706D03*
X0247172Y0233036D03*
X0244849Y0228115D03*
X0241227Y0232997D03*
X0238117Y0228076D03*
X0234692Y0232761D03*
X0231660Y0228036D03*
X0228471Y0233036D03*
X0231503Y0237997D03*
X0237920Y0237997D03*
X0244495Y0238194D03*
X0224692Y0238391D03*
X0224534Y0227643D03*
X0233511Y0218587D03*
X0237723Y0218587D03*
X0239141Y0202091D03*
X0223983Y0198784D03*
X0201424Y0220832D03*
X0187960Y0195595D03*
X0187664Y0184513D03*
X0187802Y0178430D03*
X0186660Y0162406D03*
X0188393Y0156658D03*
X0208432Y0162721D03*
X0214456Y0152210D03*
X0225125Y0160477D03*
X0241621Y0154887D03*
X0240952Y0145713D03*
X0237290Y0141265D03*
X0233432Y0145635D03*
X0246267Y0141186D03*
X0247999Y0146540D03*
X0252645Y0151068D03*
X0257015Y0146895D03*
X0253629Y0142170D03*
X0266739Y0144572D03*
X0271779Y0147564D03*
X0275794Y0144611D03*
X0276267Y0151501D03*
X0272251Y0155241D03*
X0276031Y0159729D03*
X0267330Y0159847D03*
X0257566Y0155517D03*
X0252527Y0158036D03*
X0266818Y0152406D03*
X0256936Y0169493D03*
X0267251Y0185674D03*
X0272448Y0185674D03*
X0269653Y0190950D03*
X0258511Y0190438D03*
X0314810Y0152682D03*
X0318786Y0155044D03*
X0319023Y0150674D03*
X0330794Y0134336D03*
X0336779Y0123548D03*
X0313235Y0123902D03*
X0307999Y0123587D03*
X0301621Y0125871D03*
X0298471Y0130379D03*
X0346601Y0166836D03*
X0332527Y0174769D03*
X0332448Y0182013D03*
X0332448Y0190162D03*
X0326267Y0193981D03*
X0332684Y0197485D03*
X0393314Y0173233D03*
X0398471Y0164217D03*
X0411090Y0164080D03*
X0400282Y0146580D03*
X0394101Y0147091D03*
X0394495Y0134769D03*
X0384259Y0134647D03*
X0378629Y0126501D03*
X0359849Y0142170D03*
X0421227Y0117603D03*
X0437842Y0154139D03*
X0435086Y0162328D03*
X0433668Y0169375D03*
X0433511Y0180832D03*
X0445755Y0186107D03*
X0449968Y0193942D03*
X0429968Y0197761D03*
X0426857Y0203469D03*
X0410361Y0188666D03*
X0401464Y0195713D03*
X0227605Y0134060D03*
X0142999Y0115556D03*
X0130164Y0118784D03*
X0128393Y0223194D03*
X0127881Y0227761D03*
X0123393Y0227879D03*
X0123511Y0223036D03*
X0097696Y0238233D03*
X0097759Y0243131D03*
X0097684Y0248154D03*
X0097326Y0253131D03*
X0097326Y0258210D03*
X0097172Y0263469D03*
X0112566Y0274139D03*
X0138471Y0268391D03*
X0186306Y0289847D03*
X0186739Y0298233D03*
X0186345Y0304611D03*
X0186345Y0312839D03*
X0187094Y0283194D03*
X0206897Y0258076D03*
X0120440Y0323391D03*
X0233117Y0372485D03*
X0240716Y0372446D03*
X0325991Y0337958D03*
X0332487Y0333706D03*
X0332448Y0342918D03*
X0332527Y0351776D03*
X0332487Y0360320D03*
D37*
X0121070Y0144296D02*
X0157647Y0107719D01*
X0397950Y0107594D01*
X0429259Y0138902D01*
X0429259Y0194894D01*
X0428800Y0197560D01*
X0429968Y0197761D01*
X0430907Y0197039D01*
X0429259Y0194894D01*
X0429259Y0197052D01*
X0429968Y0197761D01*
X0425991Y0200672D02*
X0425756Y0203373D01*
X0426857Y0203469D01*
X0427776Y0202633D01*
X0425991Y0200672D01*
X0425991Y0139414D01*
X0396660Y0110084D01*
X0158721Y0110084D01*
X0132369Y0136436D01*
X0132369Y0230753D01*
X0119991Y0243131D01*
X0100712Y0243131D01*
X0098234Y0242046D01*
X0097759Y0243131D01*
X0098234Y0244216D01*
X0100712Y0243131D01*
X0097759Y0243131D01*
X0098171Y0239318D02*
X0097696Y0238233D01*
X0098171Y0237148D01*
X0100649Y0238233D01*
X0098171Y0239318D01*
X0097696Y0238233D02*
X0100649Y0238233D01*
X0102684Y0238233D01*
X0121070Y0219847D01*
X0121070Y0144296D01*
X0134771Y0137485D02*
X0159731Y0112524D01*
X0395086Y0112524D01*
X0423314Y0140753D01*
X0423314Y0334257D01*
X0417723Y0339847D01*
X0412684Y0339847D01*
X0410206Y0338762D01*
X0409731Y0339847D01*
X0410206Y0340932D01*
X0412684Y0339847D01*
X0409731Y0339847D01*
X0376818Y0338706D02*
X0376818Y0332485D01*
X0374771Y0330438D01*
X0361109Y0330438D01*
X0355716Y0325044D01*
X0355716Y0301540D01*
X0351660Y0297485D01*
X0332763Y0297485D01*
X0329771Y0300477D01*
X0329771Y0314887D01*
X0332645Y0317761D01*
X0344731Y0317761D01*
X0347920Y0320950D01*
X0347920Y0363036D01*
X0348944Y0364060D01*
X0356857Y0364060D01*
X0358275Y0362643D01*
X0358275Y0345792D01*
X0362802Y0341265D01*
X0374259Y0341265D01*
X0376818Y0338706D01*
X0376818Y0338491D02*
X0347920Y0338491D01*
X0347920Y0337293D02*
X0376818Y0337293D01*
X0376818Y0336094D02*
X0347920Y0336094D01*
X0347920Y0334896D02*
X0376818Y0334896D01*
X0376818Y0333697D02*
X0347920Y0333697D01*
X0347920Y0332499D02*
X0376818Y0332499D01*
X0375633Y0331300D02*
X0347920Y0331300D01*
X0347920Y0330102D02*
X0360773Y0330102D01*
X0359574Y0328903D02*
X0347920Y0328903D01*
X0347920Y0327705D02*
X0358376Y0327705D01*
X0357177Y0326506D02*
X0347920Y0326506D01*
X0347920Y0325308D02*
X0355979Y0325308D01*
X0355716Y0324109D02*
X0347920Y0324109D01*
X0347920Y0322910D02*
X0355716Y0322910D01*
X0355716Y0321712D02*
X0347920Y0321712D01*
X0347484Y0320513D02*
X0355716Y0320513D01*
X0355716Y0319315D02*
X0346286Y0319315D01*
X0345087Y0318116D02*
X0355716Y0318116D01*
X0355716Y0316918D02*
X0331802Y0316918D01*
X0330603Y0315719D02*
X0355716Y0315719D01*
X0355716Y0314521D02*
X0329771Y0314521D01*
X0329771Y0313322D02*
X0355716Y0313322D01*
X0355716Y0312124D02*
X0329771Y0312124D01*
X0329771Y0310925D02*
X0355716Y0310925D01*
X0355716Y0309727D02*
X0329771Y0309727D01*
X0329771Y0308528D02*
X0355716Y0308528D01*
X0355716Y0307330D02*
X0329771Y0307330D01*
X0329771Y0306131D02*
X0355716Y0306131D01*
X0355716Y0304933D02*
X0329771Y0304933D01*
X0329771Y0303734D02*
X0355716Y0303734D01*
X0355716Y0302536D02*
X0329771Y0302536D01*
X0329771Y0301337D02*
X0355513Y0301337D01*
X0354314Y0300139D02*
X0330109Y0300139D01*
X0331308Y0298940D02*
X0353116Y0298940D01*
X0351917Y0297742D02*
X0332506Y0297742D01*
X0316070Y0305517D02*
X0314298Y0303745D01*
X0310991Y0303745D01*
X0309653Y0305084D01*
X0309653Y0338548D01*
X0313786Y0342682D01*
X0326345Y0342682D01*
X0329731Y0346068D01*
X0329731Y0361855D01*
X0332015Y0364139D01*
X0340046Y0364139D01*
X0341897Y0362288D01*
X0341897Y0333627D01*
X0338117Y0329847D01*
X0322842Y0329847D01*
X0316070Y0323076D01*
X0316070Y0305517D01*
X0316070Y0306131D02*
X0309653Y0306131D01*
X0309653Y0307330D02*
X0316070Y0307330D01*
X0316070Y0308528D02*
X0309653Y0308528D01*
X0309653Y0309727D02*
X0316070Y0309727D01*
X0316070Y0310925D02*
X0309653Y0310925D01*
X0309653Y0312124D02*
X0316070Y0312124D01*
X0316070Y0313322D02*
X0309653Y0313322D01*
X0309653Y0314521D02*
X0316070Y0314521D01*
X0316070Y0315719D02*
X0309653Y0315719D01*
X0309653Y0316918D02*
X0316070Y0316918D01*
X0316070Y0318116D02*
X0309653Y0318116D01*
X0309653Y0319315D02*
X0316070Y0319315D01*
X0316070Y0320513D02*
X0309653Y0320513D01*
X0309653Y0321712D02*
X0316070Y0321712D01*
X0316070Y0322910D02*
X0309653Y0322910D01*
X0309653Y0324109D02*
X0317103Y0324109D01*
X0318302Y0325308D02*
X0309653Y0325308D01*
X0309653Y0326506D02*
X0319500Y0326506D01*
X0320699Y0327705D02*
X0309653Y0327705D01*
X0309653Y0328903D02*
X0321897Y0328903D01*
X0309653Y0330102D02*
X0338371Y0330102D01*
X0339570Y0331300D02*
X0309653Y0331300D01*
X0309653Y0332499D02*
X0340768Y0332499D01*
X0341897Y0333697D02*
X0309653Y0333697D01*
X0309653Y0334896D02*
X0341897Y0334896D01*
X0341897Y0336094D02*
X0309653Y0336094D01*
X0309653Y0337293D02*
X0341897Y0337293D01*
X0341897Y0338491D02*
X0309653Y0338491D01*
X0310794Y0339690D02*
X0341897Y0339690D01*
X0341897Y0340888D02*
X0311993Y0340888D01*
X0313191Y0342087D02*
X0341897Y0342087D01*
X0341897Y0343285D02*
X0326949Y0343285D01*
X0328147Y0344484D02*
X0341897Y0344484D01*
X0341897Y0345682D02*
X0329346Y0345682D01*
X0329731Y0346881D02*
X0341897Y0346881D01*
X0341897Y0348079D02*
X0329731Y0348079D01*
X0329731Y0349278D02*
X0341897Y0349278D01*
X0341897Y0350476D02*
X0329731Y0350476D01*
X0329731Y0351675D02*
X0341897Y0351675D01*
X0341897Y0352873D02*
X0329731Y0352873D01*
X0329731Y0354072D02*
X0341897Y0354072D01*
X0341897Y0355270D02*
X0329731Y0355270D01*
X0329731Y0356469D02*
X0341897Y0356469D01*
X0341897Y0357667D02*
X0329731Y0357667D01*
X0329731Y0358866D02*
X0341897Y0358866D01*
X0341897Y0360064D02*
X0329731Y0360064D01*
X0329731Y0361263D02*
X0341897Y0361263D01*
X0341724Y0362461D02*
X0330337Y0362461D01*
X0331536Y0363660D02*
X0340525Y0363660D01*
X0347920Y0362461D02*
X0358275Y0362461D01*
X0358275Y0361263D02*
X0347920Y0361263D01*
X0347920Y0360064D02*
X0358275Y0360064D01*
X0358275Y0358866D02*
X0347920Y0358866D01*
X0347920Y0357667D02*
X0358275Y0357667D01*
X0358275Y0356469D02*
X0347920Y0356469D01*
X0347920Y0355270D02*
X0358275Y0355270D01*
X0358275Y0354072D02*
X0347920Y0354072D01*
X0347920Y0352873D02*
X0358275Y0352873D01*
X0358275Y0351675D02*
X0347920Y0351675D01*
X0347920Y0350476D02*
X0358275Y0350476D01*
X0358275Y0349278D02*
X0347920Y0349278D01*
X0347920Y0348079D02*
X0358275Y0348079D01*
X0358275Y0346881D02*
X0347920Y0346881D01*
X0347920Y0345682D02*
X0358385Y0345682D01*
X0359583Y0344484D02*
X0347920Y0344484D01*
X0347920Y0343285D02*
X0360782Y0343285D01*
X0361980Y0342087D02*
X0347920Y0342087D01*
X0347920Y0340888D02*
X0374635Y0340888D01*
X0375834Y0339690D02*
X0347920Y0339690D01*
X0348544Y0363660D02*
X0357257Y0363660D01*
X0324101Y0389206D02*
X0322849Y0390458D01*
X0316149Y0390027D02*
X0124793Y0390027D01*
X0123595Y0388829D02*
X0316149Y0388829D01*
X0316149Y0387630D02*
X0122396Y0387630D01*
X0121975Y0387210D02*
X0117172Y0387210D01*
X0116149Y0386186D01*
X0116149Y0377761D01*
X0118708Y0375202D01*
X0210952Y0375202D01*
X0215479Y0379729D01*
X0314771Y0379729D01*
X0316149Y0381107D01*
X0316149Y0392721D01*
X0314534Y0394336D01*
X0129101Y0394336D01*
X0121975Y0387210D01*
X0116394Y0386432D02*
X0316149Y0386432D01*
X0316149Y0385233D02*
X0116149Y0385233D01*
X0116149Y0384035D02*
X0316149Y0384035D01*
X0316149Y0382836D02*
X0116149Y0382836D01*
X0116149Y0381638D02*
X0316149Y0381638D01*
X0315481Y0380439D02*
X0116149Y0380439D01*
X0116149Y0379241D02*
X0214991Y0379241D01*
X0213792Y0378042D02*
X0116149Y0378042D01*
X0117066Y0376844D02*
X0212594Y0376844D01*
X0211395Y0375645D02*
X0118264Y0375645D01*
X0125992Y0391226D02*
X0316149Y0391226D01*
X0316149Y0392424D02*
X0127190Y0392424D01*
X0128389Y0393623D02*
X0315247Y0393623D01*
X0311582Y0403981D02*
X0128432Y0403981D01*
X0119101Y0394650D01*
X0111503Y0394650D01*
X0107212Y0390359D01*
X0091424Y0390359D01*
X0089810Y0391973D01*
X0089810Y0406698D01*
X0092684Y0409572D01*
X0119849Y0409572D01*
X0138353Y0428076D01*
X0310479Y0428076D01*
X0313786Y0424769D01*
X0313786Y0406186D01*
X0311582Y0403981D01*
X0312010Y0404409D02*
X0089810Y0404409D01*
X0089810Y0403211D02*
X0127662Y0403211D01*
X0126463Y0402012D02*
X0089810Y0402012D01*
X0089810Y0400814D02*
X0125265Y0400814D01*
X0124066Y0399615D02*
X0089810Y0399615D01*
X0089810Y0398417D02*
X0122868Y0398417D01*
X0121669Y0397218D02*
X0089810Y0397218D01*
X0089810Y0396020D02*
X0120471Y0396020D01*
X0119272Y0394821D02*
X0089810Y0394821D01*
X0089810Y0393623D02*
X0110475Y0393623D01*
X0109277Y0392424D02*
X0089810Y0392424D01*
X0090558Y0391226D02*
X0108078Y0391226D01*
X0089810Y0405608D02*
X0313208Y0405608D01*
X0313786Y0406806D02*
X0089919Y0406806D01*
X0091117Y0408005D02*
X0313786Y0408005D01*
X0313786Y0409203D02*
X0092316Y0409203D01*
X0120680Y0410402D02*
X0313786Y0410402D01*
X0313786Y0411600D02*
X0121878Y0411600D01*
X0123077Y0412799D02*
X0313786Y0412799D01*
X0313786Y0413997D02*
X0124275Y0413997D01*
X0125474Y0415196D02*
X0313786Y0415196D01*
X0313786Y0416394D02*
X0126672Y0416394D01*
X0127871Y0417593D02*
X0313786Y0417593D01*
X0313786Y0418791D02*
X0129069Y0418791D01*
X0130268Y0419990D02*
X0313786Y0419990D01*
X0313786Y0421188D02*
X0131466Y0421188D01*
X0132665Y0422387D02*
X0313786Y0422387D01*
X0313786Y0423585D02*
X0133863Y0423585D01*
X0135062Y0424784D02*
X0313771Y0424784D01*
X0312573Y0425982D02*
X0136260Y0425982D01*
X0137459Y0427181D02*
X0311374Y0427181D01*
X0255912Y0374217D02*
X0253966Y0376164D01*
X0251843Y0374041D01*
X0238093Y0374041D01*
X0237390Y0374744D01*
X0237390Y0374744D01*
X0235593Y0376540D01*
X0218511Y0376540D01*
X0215322Y0373351D01*
X0215322Y0362446D01*
X0216739Y0361028D01*
X0253786Y0361028D01*
X0255912Y0363154D01*
X0255912Y0374217D01*
X0255683Y0374446D02*
X0252248Y0374446D01*
X0253446Y0375645D02*
X0254485Y0375645D01*
X0255912Y0373248D02*
X0215322Y0373248D01*
X0215322Y0372049D02*
X0255912Y0372049D01*
X0255912Y0370851D02*
X0215322Y0370851D01*
X0215322Y0369652D02*
X0255912Y0369652D01*
X0255912Y0368454D02*
X0215322Y0368454D01*
X0215322Y0367255D02*
X0255912Y0367255D01*
X0255912Y0366057D02*
X0215322Y0366057D01*
X0215322Y0364858D02*
X0255912Y0364858D01*
X0255912Y0363660D02*
X0215322Y0363660D01*
X0215322Y0362461D02*
X0255219Y0362461D01*
X0254021Y0361263D02*
X0216505Y0361263D01*
X0217212Y0357170D02*
X0254101Y0357170D01*
X0255755Y0355517D01*
X0255755Y0343706D01*
X0252251Y0340202D01*
X0218235Y0340202D01*
X0215361Y0343076D01*
X0215361Y0355320D01*
X0217212Y0357170D01*
X0216510Y0356469D02*
X0254803Y0356469D01*
X0255755Y0355270D02*
X0215361Y0355270D01*
X0215361Y0354072D02*
X0255755Y0354072D01*
X0255755Y0352873D02*
X0215361Y0352873D01*
X0215361Y0351675D02*
X0255755Y0351675D01*
X0255755Y0350476D02*
X0215361Y0350476D01*
X0215361Y0349278D02*
X0255755Y0349278D01*
X0255755Y0348079D02*
X0215361Y0348079D01*
X0215361Y0346881D02*
X0255755Y0346881D01*
X0255755Y0345682D02*
X0215361Y0345682D01*
X0215361Y0344484D02*
X0255755Y0344484D01*
X0255335Y0343285D02*
X0215361Y0343285D01*
X0216350Y0342087D02*
X0254136Y0342087D01*
X0252938Y0340888D02*
X0217549Y0340888D01*
X0206464Y0347099D02*
X0206267Y0349797D01*
X0204418Y0347822D01*
X0205282Y0347013D01*
X0206464Y0347099D01*
X0206267Y0347997D02*
X0205282Y0347013D01*
X0206267Y0347997D02*
X0206267Y0349797D01*
X0206267Y0354399D01*
X0204066Y0356599D01*
X0199653Y0356599D01*
X0199653Y0361599D02*
X0195105Y0361599D01*
X0192920Y0363784D01*
X0192448Y0364257D01*
X0192448Y0367958D01*
X0191363Y0370435D01*
X0192448Y0370910D01*
X0193533Y0370435D01*
X0192448Y0367958D01*
X0192448Y0370910D01*
X0199534Y0370674D02*
X0199968Y0370241D01*
X0199653Y0369926D01*
X0192920Y0363784D02*
X0157172Y0363784D01*
X0147408Y0354021D01*
X0147408Y0274414D01*
X0141424Y0268430D01*
X0138961Y0267312D01*
X0138471Y0268391D01*
X0138932Y0269482D01*
X0141424Y0268430D01*
X0141306Y0268312D01*
X0138550Y0268312D01*
X0138471Y0268391D01*
X0128011Y0255859D02*
X0146975Y0236895D01*
X0146975Y0142485D01*
X0164692Y0124769D01*
X0285834Y0124769D01*
X0290282Y0129217D01*
X0298701Y0129217D01*
X0298701Y0130379D01*
X0298471Y0130379D01*
X0301621Y0126776D02*
X0301621Y0125871D01*
X0301621Y0126776D02*
X0291267Y0126776D01*
X0286818Y0122328D01*
X0163668Y0122328D01*
X0144534Y0141461D01*
X0144534Y0235832D01*
X0112566Y0267800D01*
X0112566Y0274139D01*
X0113432Y0263469D02*
X0100125Y0263469D01*
X0097647Y0262385D01*
X0097172Y0263469D01*
X0097647Y0264554D01*
X0100125Y0263469D01*
X0097172Y0263469D01*
X0097801Y0259294D02*
X0097326Y0258210D01*
X0097801Y0257125D01*
X0100279Y0258210D01*
X0097801Y0259294D01*
X0097326Y0258210D02*
X0100279Y0258210D01*
X0115227Y0258210D01*
X0139660Y0233776D01*
X0139660Y0139477D01*
X0161693Y0117444D01*
X0391503Y0117446D01*
X0393078Y0117446D01*
X0411149Y0135517D01*
X0411149Y0161127D01*
X0410014Y0163583D01*
X0411090Y0164080D01*
X0412184Y0163626D01*
X0411149Y0161127D01*
X0411149Y0164021D01*
X0411090Y0164080D01*
X0399556Y0163742D02*
X0398471Y0164217D01*
X0397387Y0163742D01*
X0398471Y0161265D01*
X0399556Y0163742D01*
X0398471Y0164217D02*
X0398471Y0161265D01*
X0398471Y0161068D01*
X0406660Y0152879D01*
X0406660Y0134769D01*
X0391779Y0119887D01*
X0162684Y0119887D01*
X0142094Y0140477D01*
X0142094Y0234808D01*
X0113432Y0263469D01*
X0116881Y0253131D02*
X0100279Y0253131D01*
X0097801Y0252046D01*
X0097326Y0253131D01*
X0097801Y0254216D01*
X0100279Y0253131D01*
X0097326Y0253131D01*
X0098168Y0249235D02*
X0097684Y0248154D01*
X0098150Y0247066D01*
X0100637Y0248131D01*
X0098168Y0249235D01*
X0097684Y0248154D02*
X0097708Y0248131D01*
X0100637Y0248131D01*
X0118416Y0248131D01*
X0134771Y0231776D01*
X0134771Y0137485D01*
X0137223Y0138458D02*
X0137223Y0232789D01*
X0116881Y0253131D01*
X0128011Y0255859D02*
X0128011Y0281658D01*
X0121070Y0323391D02*
X0120440Y0323391D01*
X0121070Y0323391D02*
X0121070Y0323458D01*
X0128011Y0330398D01*
X0207094Y0324060D02*
X0207369Y0324336D01*
X0224866Y0324336D01*
X0237017Y0324336D01*
X0237597Y0324915D01*
X0238582Y0327434D01*
X0239685Y0327003D01*
X0240116Y0325900D01*
X0237597Y0324915D01*
X0239685Y0327003D01*
X0239150Y0326469D01*
X0224866Y0324336D02*
X0224027Y0323496D01*
X0224026Y0320792D01*
X0222842Y0320792D01*
X0222039Y0321663D01*
X0224027Y0323496D01*
X0222842Y0322311D01*
X0222842Y0320792D01*
X0228038Y0310398D02*
X0227566Y0309926D01*
X0227566Y0296698D01*
X0227842Y0296422D01*
X0243865Y0296422D01*
X0244968Y0297524D01*
X0244968Y0310202D01*
X0244771Y0310398D01*
X0228038Y0310398D01*
X0227566Y0309727D02*
X0244968Y0309727D01*
X0244968Y0308528D02*
X0227566Y0308528D01*
X0227566Y0307330D02*
X0244968Y0307330D01*
X0244968Y0306131D02*
X0227566Y0306131D01*
X0227566Y0304933D02*
X0244968Y0304933D01*
X0244968Y0303734D02*
X0227566Y0303734D01*
X0227566Y0302536D02*
X0244968Y0302536D01*
X0244968Y0301337D02*
X0227566Y0301337D01*
X0227566Y0300139D02*
X0244968Y0300139D01*
X0244968Y0298940D02*
X0227566Y0298940D01*
X0227566Y0297742D02*
X0244968Y0297742D01*
X0243986Y0296543D02*
X0227720Y0296543D01*
X0230488Y0289926D02*
X0232457Y0287958D01*
X0250912Y0287249D02*
X0250912Y0270871D01*
X0252015Y0269769D01*
X0276070Y0269769D01*
X0276975Y0270674D01*
X0276975Y0287446D01*
X0275991Y0288430D01*
X0252094Y0288430D01*
X0250912Y0287249D01*
X0250912Y0286955D02*
X0276975Y0286955D01*
X0276975Y0285757D02*
X0250912Y0285757D01*
X0250912Y0284558D02*
X0276975Y0284558D01*
X0276975Y0283360D02*
X0250912Y0283360D01*
X0250912Y0282161D02*
X0276975Y0282161D01*
X0276975Y0280963D02*
X0250912Y0280963D01*
X0250912Y0279764D02*
X0276975Y0279764D01*
X0276975Y0278566D02*
X0250912Y0278566D01*
X0250912Y0277367D02*
X0276975Y0277367D01*
X0276975Y0276169D02*
X0250912Y0276169D01*
X0250912Y0274970D02*
X0276975Y0274970D01*
X0276975Y0273772D02*
X0250912Y0273772D01*
X0250912Y0272573D02*
X0276975Y0272573D01*
X0276975Y0271375D02*
X0250912Y0271375D01*
X0251607Y0270176D02*
X0276477Y0270176D01*
X0271031Y0277210D02*
X0267389Y0277210D01*
X0276267Y0288154D02*
X0251817Y0288154D01*
X0269416Y0301383D02*
X0269416Y0333036D01*
X0272094Y0335713D01*
X0279141Y0335713D01*
X0281109Y0337682D01*
X0281109Y0346737D01*
X0282290Y0347918D01*
X0294731Y0347918D01*
X0297842Y0344808D01*
X0297842Y0301635D01*
X0295031Y0298824D01*
X0271975Y0298824D01*
X0269416Y0301383D01*
X0269462Y0301337D02*
X0297544Y0301337D01*
X0297842Y0302536D02*
X0269416Y0302536D01*
X0269416Y0303734D02*
X0297842Y0303734D01*
X0297842Y0304933D02*
X0269416Y0304933D01*
X0269416Y0306131D02*
X0297842Y0306131D01*
X0297842Y0307330D02*
X0269416Y0307330D01*
X0269416Y0308528D02*
X0297842Y0308528D01*
X0297842Y0309727D02*
X0269416Y0309727D01*
X0269416Y0310925D02*
X0297842Y0310925D01*
X0297842Y0312124D02*
X0269416Y0312124D01*
X0269416Y0313322D02*
X0297842Y0313322D01*
X0297842Y0314521D02*
X0269416Y0314521D01*
X0269416Y0315719D02*
X0297842Y0315719D01*
X0297842Y0316918D02*
X0269416Y0316918D01*
X0269416Y0318116D02*
X0297842Y0318116D01*
X0297842Y0319315D02*
X0269416Y0319315D01*
X0269416Y0320513D02*
X0297842Y0320513D01*
X0297842Y0321712D02*
X0269416Y0321712D01*
X0269416Y0322910D02*
X0297842Y0322910D01*
X0297842Y0324109D02*
X0269416Y0324109D01*
X0269416Y0325308D02*
X0297842Y0325308D01*
X0297842Y0326506D02*
X0269416Y0326506D01*
X0269416Y0327705D02*
X0297842Y0327705D01*
X0297842Y0328903D02*
X0269416Y0328903D01*
X0269416Y0330102D02*
X0297842Y0330102D01*
X0297842Y0331300D02*
X0269416Y0331300D01*
X0269416Y0332499D02*
X0297842Y0332499D01*
X0297842Y0333697D02*
X0270077Y0333697D01*
X0271276Y0334896D02*
X0297842Y0334896D01*
X0297842Y0336094D02*
X0279521Y0336094D01*
X0280720Y0337293D02*
X0297842Y0337293D01*
X0297842Y0338491D02*
X0281109Y0338491D01*
X0281109Y0339690D02*
X0297842Y0339690D01*
X0297842Y0340888D02*
X0281109Y0340888D01*
X0281109Y0342087D02*
X0297842Y0342087D01*
X0297842Y0343285D02*
X0281109Y0343285D01*
X0281109Y0344484D02*
X0297842Y0344484D01*
X0296967Y0345682D02*
X0281109Y0345682D01*
X0281253Y0346881D02*
X0295769Y0346881D01*
X0252625Y0313489D02*
X0251877Y0313489D01*
X0270660Y0300139D02*
X0296346Y0300139D01*
X0295147Y0298940D02*
X0271859Y0298940D01*
X0309803Y0304933D02*
X0315486Y0304933D01*
X0389733Y0282760D02*
X0390164Y0283863D01*
X0391267Y0284294D01*
X0392252Y0281775D01*
X0389733Y0282760D01*
X0390164Y0283863D02*
X0392252Y0281775D01*
X0396109Y0277918D01*
X0418235Y0277918D01*
X0420873Y0275280D01*
X0420873Y0141776D01*
X0394062Y0114965D01*
X0160716Y0114965D01*
X0137223Y0138458D01*
X0207094Y0143587D02*
X0207408Y0143902D01*
X0233314Y0145753D02*
X0233432Y0145635D01*
X0232684Y0160626D02*
X0233205Y0161147D01*
X0232802Y0160744D01*
X0228511Y0169611D02*
X0228235Y0169887D01*
X0228235Y0182210D01*
X0229613Y0183587D01*
X0245322Y0183587D01*
X0245597Y0183312D01*
X0245597Y0171107D01*
X0244101Y0169611D01*
X0228511Y0169611D01*
X0228235Y0170700D02*
X0245190Y0170700D01*
X0245597Y0171898D02*
X0228235Y0171898D01*
X0228235Y0173097D02*
X0245597Y0173097D01*
X0245597Y0174295D02*
X0228235Y0174295D01*
X0228235Y0175494D02*
X0245597Y0175494D01*
X0245597Y0176692D02*
X0228235Y0176692D01*
X0228235Y0177891D02*
X0245597Y0177891D01*
X0245597Y0179089D02*
X0228235Y0179089D01*
X0228235Y0180288D02*
X0245597Y0180288D01*
X0245597Y0181486D02*
X0228235Y0181486D01*
X0228710Y0182685D02*
X0245597Y0182685D01*
X0247920Y0198745D02*
X0245952Y0200713D01*
X0245952Y0222249D01*
X0242645Y0225556D01*
X0223747Y0225556D01*
X0221739Y0227564D01*
X0221739Y0239217D01*
X0223786Y0241265D01*
X0256818Y0241265D01*
X0259023Y0239060D01*
X0259023Y0226343D01*
X0256739Y0224060D01*
X0256739Y0212328D01*
X0255086Y0210674D01*
X0255086Y0201225D01*
X0252605Y0198745D01*
X0247920Y0198745D01*
X0247201Y0199464D02*
X0253324Y0199464D01*
X0254523Y0200662D02*
X0246003Y0200662D01*
X0245952Y0201861D02*
X0255086Y0201861D01*
X0255086Y0203059D02*
X0245952Y0203059D01*
X0245952Y0204258D02*
X0255086Y0204258D01*
X0255086Y0205456D02*
X0245952Y0205456D01*
X0245952Y0206655D02*
X0255086Y0206655D01*
X0255086Y0207853D02*
X0245952Y0207853D01*
X0245952Y0209052D02*
X0255086Y0209052D01*
X0255086Y0210250D02*
X0245952Y0210250D01*
X0245952Y0211449D02*
X0255860Y0211449D01*
X0256739Y0212647D02*
X0245952Y0212647D01*
X0245952Y0213846D02*
X0256739Y0213846D01*
X0256739Y0215044D02*
X0245952Y0215044D01*
X0245952Y0216243D02*
X0256739Y0216243D01*
X0256739Y0217441D02*
X0245952Y0217441D01*
X0245952Y0218640D02*
X0256739Y0218640D01*
X0256739Y0219839D02*
X0245952Y0219839D01*
X0245952Y0221037D02*
X0256739Y0221037D01*
X0256739Y0222236D02*
X0245952Y0222236D01*
X0244767Y0223434D02*
X0256739Y0223434D01*
X0257312Y0224633D02*
X0243568Y0224633D01*
X0258510Y0225831D02*
X0223472Y0225831D01*
X0222273Y0227030D02*
X0259023Y0227030D01*
X0259023Y0228228D02*
X0221739Y0228228D01*
X0221739Y0229427D02*
X0259023Y0229427D01*
X0259023Y0230625D02*
X0221739Y0230625D01*
X0221739Y0231824D02*
X0259023Y0231824D01*
X0259023Y0233022D02*
X0221739Y0233022D01*
X0221739Y0234221D02*
X0259023Y0234221D01*
X0259023Y0235419D02*
X0221739Y0235419D01*
X0221739Y0236618D02*
X0259023Y0236618D01*
X0259023Y0237816D02*
X0221739Y0237816D01*
X0221739Y0239015D02*
X0259023Y0239015D01*
X0257869Y0240213D02*
X0222735Y0240213D01*
X0209574Y0273233D02*
X0208471Y0274336D01*
X0206857Y0274336D01*
X0282881Y0218706D02*
X0284495Y0220320D01*
X0290125Y0220320D01*
X0297920Y0212524D01*
X0297920Y0175556D01*
X0294416Y0172052D01*
X0271503Y0172052D01*
X0270401Y0173154D01*
X0270401Y0207131D01*
X0272172Y0208902D01*
X0279810Y0208902D01*
X0282881Y0211973D01*
X0282881Y0218706D01*
X0282881Y0218640D02*
X0291805Y0218640D01*
X0293003Y0217441D02*
X0282881Y0217441D01*
X0282881Y0216243D02*
X0294202Y0216243D01*
X0295400Y0215044D02*
X0282881Y0215044D01*
X0282881Y0213846D02*
X0296599Y0213846D01*
X0297797Y0212647D02*
X0282881Y0212647D01*
X0282357Y0211449D02*
X0297920Y0211449D01*
X0297920Y0210250D02*
X0281158Y0210250D01*
X0279960Y0209052D02*
X0297920Y0209052D01*
X0297920Y0207853D02*
X0271123Y0207853D01*
X0270401Y0206655D02*
X0297920Y0206655D01*
X0297920Y0205456D02*
X0270401Y0205456D01*
X0270401Y0204258D02*
X0297920Y0204258D01*
X0297920Y0203059D02*
X0270401Y0203059D01*
X0270401Y0201861D02*
X0297920Y0201861D01*
X0297920Y0200662D02*
X0270401Y0200662D01*
X0270401Y0199464D02*
X0297920Y0199464D01*
X0297920Y0198265D02*
X0270401Y0198265D01*
X0270401Y0197067D02*
X0297920Y0197067D01*
X0297920Y0195868D02*
X0270401Y0195868D01*
X0270401Y0194670D02*
X0297920Y0194670D01*
X0297920Y0193471D02*
X0270401Y0193471D01*
X0270401Y0192273D02*
X0297920Y0192273D01*
X0297920Y0191074D02*
X0270401Y0191074D01*
X0270401Y0189876D02*
X0297920Y0189876D01*
X0297920Y0188677D02*
X0270401Y0188677D01*
X0270401Y0187479D02*
X0297920Y0187479D01*
X0297920Y0186280D02*
X0270401Y0186280D01*
X0270401Y0185082D02*
X0297920Y0185082D01*
X0297920Y0183883D02*
X0270401Y0183883D01*
X0270401Y0182685D02*
X0297920Y0182685D01*
X0297920Y0181486D02*
X0270401Y0181486D01*
X0270401Y0180288D02*
X0297920Y0180288D01*
X0297920Y0179089D02*
X0270401Y0179089D01*
X0270401Y0177891D02*
X0297920Y0177891D01*
X0297920Y0176692D02*
X0270401Y0176692D01*
X0270401Y0175494D02*
X0297858Y0175494D01*
X0296659Y0174295D02*
X0270401Y0174295D01*
X0270458Y0173097D02*
X0295461Y0173097D01*
X0278038Y0160084D02*
X0278038Y0148194D01*
X0280794Y0145438D01*
X0288511Y0145438D01*
X0289810Y0144139D01*
X0289810Y0141855D01*
X0288196Y0140241D01*
X0253983Y0140241D01*
X0251700Y0142524D01*
X0251700Y0159650D01*
X0253668Y0161619D01*
X0276503Y0161619D01*
X0278038Y0160084D01*
X0278038Y0159913D02*
X0251962Y0159913D01*
X0251700Y0158714D02*
X0278038Y0158714D01*
X0278038Y0157516D02*
X0251700Y0157516D01*
X0251700Y0156317D02*
X0278038Y0156317D01*
X0278038Y0155119D02*
X0251700Y0155119D01*
X0251700Y0153920D02*
X0278038Y0153920D01*
X0278038Y0152722D02*
X0251700Y0152722D01*
X0251700Y0151523D02*
X0278038Y0151523D01*
X0278038Y0150325D02*
X0251700Y0150325D01*
X0251700Y0149126D02*
X0278038Y0149126D01*
X0278304Y0147928D02*
X0251700Y0147928D01*
X0251700Y0146729D02*
X0279503Y0146729D01*
X0280701Y0145531D02*
X0251700Y0145531D01*
X0251700Y0144332D02*
X0289616Y0144332D01*
X0289810Y0143134D02*
X0251700Y0143134D01*
X0252289Y0141935D02*
X0289810Y0141935D01*
X0288692Y0140737D02*
X0253488Y0140737D01*
X0264869Y0152524D02*
X0261877Y0155517D01*
X0257566Y0155517D01*
X0253161Y0161111D02*
X0277010Y0161111D01*
X0266818Y0152406D02*
X0266700Y0152524D01*
X0264869Y0152524D01*
X0310519Y0152722D02*
X0325873Y0152722D01*
X0325873Y0153920D02*
X0310519Y0153920D01*
X0310519Y0155119D02*
X0325873Y0155119D01*
X0325873Y0156107D02*
X0325873Y0151383D01*
X0325007Y0150517D01*
X0311739Y0150517D01*
X0310519Y0151737D01*
X0310519Y0155674D01*
X0312015Y0157170D01*
X0324810Y0157170D01*
X0325873Y0156107D01*
X0325663Y0156317D02*
X0311162Y0156317D01*
X0312330Y0152328D02*
X0314456Y0152328D01*
X0314810Y0152682D01*
X0315151Y0151548D01*
X0317741Y0152328D01*
X0315412Y0153702D01*
X0314810Y0152682D01*
X0314456Y0152328D02*
X0317741Y0152328D01*
X0324456Y0152328D01*
X0324456Y0149442D01*
X0320349Y0145336D01*
X0318944Y0145336D01*
X0320349Y0142776D02*
X0317196Y0142776D01*
X0314070Y0139650D01*
X0312487Y0139650D01*
X0311857Y0139650D01*
X0318708Y0136017D02*
X0318708Y0130832D01*
X0318708Y0136017D02*
X0320349Y0137658D01*
X0320349Y0140217D01*
X0312865Y0145336D02*
X0311857Y0146343D01*
X0310732Y0151523D02*
X0325873Y0151523D01*
X0331149Y0152328D02*
X0331149Y0150084D01*
X0332842Y0148391D01*
X0332842Y0138883D01*
X0334066Y0137658D01*
X0336983Y0137658D01*
X0336983Y0132808D01*
X0332487Y0128312D01*
X0332487Y0124572D01*
X0333845Y0123214D01*
X0336184Y0124572D01*
X0336779Y0123548D01*
X0336429Y0122417D01*
X0333845Y0123214D01*
X0334298Y0122761D01*
X0336779Y0122761D01*
X0336779Y0123548D01*
X0336763Y0122364D01*
X0339467Y0122328D01*
X0337659Y0124340D01*
X0336779Y0123548D01*
X0336660Y0123666D01*
X0336779Y0122761D02*
X0336779Y0122328D01*
X0339467Y0122328D01*
X0390912Y0122328D01*
X0401267Y0132682D01*
X0401267Y0140871D01*
X0401267Y0140044D01*
X0401267Y0140871D02*
X0401424Y0141028D01*
X0401424Y0143857D02*
X0399466Y0145722D01*
X0400282Y0146580D01*
X0401467Y0146561D01*
X0401424Y0143857D01*
X0401424Y0145241D01*
X0398098Y0148567D01*
X0400661Y0147702D01*
X0400282Y0146580D01*
X0399201Y0146097D01*
X0398098Y0148567D01*
X0394731Y0151934D01*
X0394731Y0165569D01*
X0399366Y0170204D01*
X0399366Y0185978D01*
X0401936Y0188548D01*
X0407411Y0188548D01*
X0409843Y0189731D01*
X0410361Y0188666D01*
X0409930Y0187563D01*
X0407411Y0188548D01*
X0410361Y0188548D01*
X0410361Y0188666D01*
X0425991Y0200672D02*
X0425991Y0202603D01*
X0426857Y0203469D01*
X0411660Y0218706D02*
X0396936Y0203981D01*
X0396936Y0171343D01*
X0392212Y0166619D01*
X0392212Y0149360D01*
X0394631Y0148151D01*
X0394101Y0147091D01*
X0392964Y0146762D01*
X0392212Y0149360D01*
X0392212Y0148981D01*
X0394101Y0147091D01*
X0394416Y0140871D02*
X0394574Y0140871D01*
X0393392Y0135200D02*
X0394495Y0134769D01*
X0394926Y0133666D01*
X0392407Y0132681D01*
X0393392Y0135200D01*
X0394495Y0134769D02*
X0392407Y0132681D01*
X0390243Y0130517D01*
X0378420Y0130517D01*
X0366767Y0142170D01*
X0359849Y0142170D01*
X0369141Y0161068D02*
X0367999Y0162210D01*
X0367999Y0179454D01*
X0369495Y0180950D01*
X0375991Y0180950D01*
X0381424Y0186383D01*
X0381424Y0196855D01*
X0375558Y0202721D01*
X0371897Y0202721D01*
X0368353Y0206265D01*
X0368353Y0212643D01*
X0369653Y0213942D01*
X0388432Y0213942D01*
X0391424Y0210950D01*
X0391424Y0169084D01*
X0391259Y0168919D01*
X0389912Y0167572D01*
X0389912Y0161169D01*
X0389810Y0161068D01*
X0369141Y0161068D01*
X0369097Y0161111D02*
X0389854Y0161111D01*
X0389912Y0162310D02*
X0367999Y0162310D01*
X0367999Y0163508D02*
X0389912Y0163508D01*
X0389912Y0164707D02*
X0367999Y0164707D01*
X0367999Y0165906D02*
X0389912Y0165906D01*
X0389912Y0167104D02*
X0367999Y0167104D01*
X0367999Y0168303D02*
X0390643Y0168303D01*
X0391424Y0169501D02*
X0367999Y0169501D01*
X0367999Y0170700D02*
X0391424Y0170700D01*
X0391424Y0171898D02*
X0367999Y0171898D01*
X0367999Y0173097D02*
X0391424Y0173097D01*
X0391424Y0174295D02*
X0367999Y0174295D01*
X0367999Y0175494D02*
X0391424Y0175494D01*
X0391424Y0176692D02*
X0367999Y0176692D01*
X0367999Y0177891D02*
X0391424Y0177891D01*
X0391424Y0179089D02*
X0367999Y0179089D01*
X0368833Y0180288D02*
X0391424Y0180288D01*
X0391424Y0181486D02*
X0376528Y0181486D01*
X0377726Y0182685D02*
X0391424Y0182685D01*
X0391424Y0183883D02*
X0378925Y0183883D01*
X0380123Y0185082D02*
X0391424Y0185082D01*
X0391424Y0186280D02*
X0381322Y0186280D01*
X0381424Y0187479D02*
X0391424Y0187479D01*
X0391424Y0188677D02*
X0381424Y0188677D01*
X0381424Y0189876D02*
X0391424Y0189876D01*
X0391424Y0191074D02*
X0381424Y0191074D01*
X0381424Y0192273D02*
X0391424Y0192273D01*
X0391424Y0193471D02*
X0381424Y0193471D01*
X0381424Y0194670D02*
X0391424Y0194670D01*
X0391424Y0195868D02*
X0381424Y0195868D01*
X0381213Y0197067D02*
X0391424Y0197067D01*
X0391424Y0198265D02*
X0380014Y0198265D01*
X0378816Y0199464D02*
X0391424Y0199464D01*
X0391424Y0200662D02*
X0377617Y0200662D01*
X0376419Y0201861D02*
X0391424Y0201861D01*
X0391424Y0203059D02*
X0371559Y0203059D01*
X0370360Y0204258D02*
X0391424Y0204258D01*
X0391424Y0205456D02*
X0369162Y0205456D01*
X0368353Y0206655D02*
X0391424Y0206655D01*
X0391424Y0207853D02*
X0368353Y0207853D01*
X0368353Y0209052D02*
X0391424Y0209052D01*
X0391424Y0210250D02*
X0368353Y0210250D01*
X0368353Y0211449D02*
X0390925Y0211449D01*
X0389726Y0212647D02*
X0368358Y0212647D01*
X0369557Y0213846D02*
X0388528Y0213846D01*
X0411660Y0218706D02*
X0411660Y0227576D01*
X0376424Y0193942D02*
X0376424Y0187328D01*
X0374141Y0185044D01*
X0357408Y0185044D01*
X0355046Y0182682D01*
X0355046Y0172485D01*
X0353786Y0171225D01*
X0349377Y0171225D01*
X0348275Y0172328D01*
X0348275Y0206068D01*
X0343235Y0211107D01*
X0333157Y0211107D01*
X0329259Y0215005D01*
X0329259Y0229099D01*
X0331660Y0231501D01*
X0347487Y0231501D01*
X0353786Y0225202D01*
X0353786Y0198115D01*
X0356109Y0195792D01*
X0374574Y0195792D01*
X0376424Y0193942D01*
X0376424Y0193471D02*
X0348275Y0193471D01*
X0348275Y0192273D02*
X0376424Y0192273D01*
X0376424Y0191074D02*
X0348275Y0191074D01*
X0348275Y0189876D02*
X0376424Y0189876D01*
X0376424Y0188677D02*
X0348275Y0188677D01*
X0348275Y0187479D02*
X0376424Y0187479D01*
X0375377Y0186280D02*
X0348275Y0186280D01*
X0348275Y0185082D02*
X0374178Y0185082D01*
X0375696Y0194670D02*
X0348275Y0194670D01*
X0348275Y0195868D02*
X0356033Y0195868D01*
X0354835Y0197067D02*
X0348275Y0197067D01*
X0348275Y0198265D02*
X0353786Y0198265D01*
X0353786Y0199464D02*
X0348275Y0199464D01*
X0348275Y0200662D02*
X0353786Y0200662D01*
X0353786Y0201861D02*
X0348275Y0201861D01*
X0348275Y0203059D02*
X0353786Y0203059D01*
X0353786Y0204258D02*
X0348275Y0204258D01*
X0348275Y0205456D02*
X0353786Y0205456D01*
X0353786Y0206655D02*
X0347688Y0206655D01*
X0346489Y0207853D02*
X0353786Y0207853D01*
X0353786Y0209052D02*
X0345290Y0209052D01*
X0344092Y0210250D02*
X0353786Y0210250D01*
X0353786Y0211449D02*
X0332815Y0211449D01*
X0331616Y0212647D02*
X0353786Y0212647D01*
X0353786Y0213846D02*
X0330418Y0213846D01*
X0329259Y0215044D02*
X0353786Y0215044D01*
X0353786Y0216243D02*
X0329259Y0216243D01*
X0329259Y0217441D02*
X0353786Y0217441D01*
X0353786Y0218640D02*
X0329259Y0218640D01*
X0329259Y0219839D02*
X0353786Y0219839D01*
X0353786Y0221037D02*
X0329259Y0221037D01*
X0329259Y0222236D02*
X0353786Y0222236D01*
X0353786Y0223434D02*
X0329259Y0223434D01*
X0329259Y0224633D02*
X0353786Y0224633D01*
X0353157Y0225831D02*
X0329259Y0225831D01*
X0329259Y0227030D02*
X0351958Y0227030D01*
X0350760Y0228228D02*
X0329259Y0228228D01*
X0329586Y0229427D02*
X0349561Y0229427D01*
X0348363Y0230625D02*
X0330785Y0230625D01*
X0315282Y0228469D02*
X0314141Y0229611D01*
X0310046Y0229611D01*
X0308983Y0228548D01*
X0308983Y0191068D01*
X0311464Y0188587D01*
X0324023Y0188587D01*
X0327960Y0184650D01*
X0327960Y0173509D01*
X0330086Y0171383D01*
X0340952Y0171383D01*
X0342566Y0172997D01*
X0342566Y0196855D01*
X0339338Y0200084D01*
X0319456Y0200084D01*
X0315282Y0204257D01*
X0315282Y0228469D01*
X0315282Y0228228D02*
X0308983Y0228228D01*
X0308983Y0227030D02*
X0315282Y0227030D01*
X0315282Y0225831D02*
X0308983Y0225831D01*
X0308983Y0224633D02*
X0315282Y0224633D01*
X0315282Y0223434D02*
X0308983Y0223434D01*
X0308983Y0222236D02*
X0315282Y0222236D01*
X0315282Y0221037D02*
X0308983Y0221037D01*
X0308983Y0219839D02*
X0315282Y0219839D01*
X0315282Y0218640D02*
X0308983Y0218640D01*
X0308983Y0217441D02*
X0315282Y0217441D01*
X0315282Y0216243D02*
X0308983Y0216243D01*
X0308983Y0215044D02*
X0315282Y0215044D01*
X0315282Y0213846D02*
X0308983Y0213846D01*
X0308983Y0212647D02*
X0315282Y0212647D01*
X0315282Y0211449D02*
X0308983Y0211449D01*
X0308983Y0210250D02*
X0315282Y0210250D01*
X0315282Y0209052D02*
X0308983Y0209052D01*
X0308983Y0207853D02*
X0315282Y0207853D01*
X0315282Y0206655D02*
X0308983Y0206655D01*
X0308983Y0205456D02*
X0315282Y0205456D01*
X0315282Y0204258D02*
X0308983Y0204258D01*
X0308983Y0203059D02*
X0316480Y0203059D01*
X0317678Y0201861D02*
X0308983Y0201861D01*
X0308983Y0200662D02*
X0318877Y0200662D01*
X0308983Y0199464D02*
X0339957Y0199464D01*
X0341156Y0198265D02*
X0308983Y0198265D01*
X0308983Y0197067D02*
X0342354Y0197067D01*
X0342566Y0195868D02*
X0308983Y0195868D01*
X0308983Y0194670D02*
X0342566Y0194670D01*
X0342566Y0193471D02*
X0308983Y0193471D01*
X0308983Y0192273D02*
X0342566Y0192273D01*
X0342566Y0191074D02*
X0308983Y0191074D01*
X0310175Y0189876D02*
X0342566Y0189876D01*
X0342566Y0188677D02*
X0311374Y0188677D01*
X0325131Y0187479D02*
X0342566Y0187479D01*
X0342566Y0186280D02*
X0326330Y0186280D01*
X0327528Y0185082D02*
X0342566Y0185082D01*
X0342566Y0183883D02*
X0327960Y0183883D01*
X0327960Y0182685D02*
X0342566Y0182685D01*
X0342566Y0181486D02*
X0327960Y0181486D01*
X0327960Y0180288D02*
X0342566Y0180288D01*
X0342566Y0179089D02*
X0327960Y0179089D01*
X0327960Y0177891D02*
X0342566Y0177891D01*
X0342566Y0176692D02*
X0327960Y0176692D01*
X0327960Y0175494D02*
X0342566Y0175494D01*
X0342566Y0174295D02*
X0327960Y0174295D01*
X0328372Y0173097D02*
X0342566Y0173097D01*
X0341467Y0171898D02*
X0329570Y0171898D01*
X0348275Y0173097D02*
X0355046Y0173097D01*
X0355046Y0174295D02*
X0348275Y0174295D01*
X0348275Y0175494D02*
X0355046Y0175494D01*
X0355046Y0176692D02*
X0348275Y0176692D01*
X0348275Y0177891D02*
X0355046Y0177891D01*
X0355046Y0179089D02*
X0348275Y0179089D01*
X0348275Y0180288D02*
X0355046Y0180288D01*
X0355046Y0181486D02*
X0348275Y0181486D01*
X0348275Y0182685D02*
X0355049Y0182685D01*
X0356247Y0183883D02*
X0348275Y0183883D01*
X0348704Y0171898D02*
X0354459Y0171898D01*
X0336983Y0137658D02*
X0336660Y0137336D01*
X0325401Y0123942D02*
X0325242Y0123942D01*
X0290606Y0219839D02*
X0284014Y0219839D01*
X0309862Y0229427D02*
X0314325Y0229427D01*
X0237687Y0374446D02*
X0216417Y0374446D01*
X0217616Y0375645D02*
X0236489Y0375645D01*
X0095991Y0221855D02*
X0095716Y0221580D01*
D38*
X0198582Y0339394D02*
X0201207Y0337466D01*
X0199544Y0340246D01*
X0198944Y0339887D01*
X0198582Y0339394D01*
X0198944Y0339729D02*
X0201207Y0337466D01*
X0204338Y0334336D01*
X0207094Y0334336D01*
X0199653Y0351599D02*
X0179239Y0351599D01*
X0178668Y0352170D01*
X0322849Y0386847D02*
X0324258Y0385439D01*
X0326669Y0383838D01*
X0326345Y0383351D01*
X0325859Y0383028D01*
X0324258Y0385439D01*
X0326345Y0383351D01*
X0322849Y0386847D02*
X0322849Y0390458D01*
X0408983Y0290084D02*
X0408660Y0289597D01*
X0411071Y0287996D01*
X0409470Y0290407D01*
X0408983Y0290084D01*
X0411071Y0287996D01*
X0411700Y0287367D01*
X0411700Y0283497D01*
X0256936Y0174099D02*
X0256936Y0172446D01*
X0257509Y0169609D01*
X0256936Y0169493D01*
X0256363Y0169609D01*
X0256936Y0172446D01*
X0256936Y0169493D01*
X0256936Y0174099D02*
X0255519Y0175517D01*
X0346031Y0166708D02*
X0346660Y0163883D01*
X0347176Y0166731D01*
X0346601Y0166836D01*
X0346031Y0166708D01*
X0346660Y0166776D02*
X0346660Y0163883D01*
X0385908Y0135488D02*
X0387252Y0136380D01*
X0391743Y0140871D01*
X0394416Y0140871D01*
X0387334Y0136462D02*
X0385519Y0134647D01*
X0384259Y0134647D01*
X0384450Y0134519D01*
X0384376Y0134470D01*
X0384259Y0134647D01*
D39*
X0318708Y0123942D02*
X0313275Y0123942D01*
X0313235Y0123902D01*
X0311857Y0146343D02*
X0311503Y0146698D01*
X0311503Y0151501D01*
X0312330Y0152328D01*
X0287025Y0153902D02*
X0287025Y0163048D01*
X0272251Y0155241D02*
X0272251Y0152367D01*
X0265873Y0153981D02*
X0258944Y0160910D01*
X0242890Y0160910D01*
X0242654Y0161147D01*
X0233205Y0161147D01*
X0242654Y0180489D02*
X0241906Y0181237D01*
X0241866Y0181276D01*
X0241906Y0192631D02*
X0252664Y0203389D01*
X0241866Y0192670D02*
X0241906Y0192631D01*
X0241866Y0192670D02*
X0231158Y0192670D01*
X0206857Y0258115D02*
X0206857Y0264060D01*
X0206857Y0274336D02*
X0214298Y0274336D01*
X0217881Y0270753D01*
X0225812Y0264790D02*
X0227979Y0262623D01*
X0225812Y0264790D02*
X0225812Y0286469D01*
X0232457Y0287958D02*
X0241906Y0287958D01*
X0255007Y0296895D02*
X0255479Y0296422D01*
X0255007Y0296895D02*
X0255007Y0302052D01*
X0254731Y0302328D01*
X0254714Y0310652D02*
X0257818Y0310652D01*
X0257857Y0310613D01*
X0254714Y0310652D02*
X0251877Y0313489D01*
X0242790Y0319442D02*
X0241315Y0319442D01*
X0242790Y0319442D02*
X0251877Y0328528D01*
X0251877Y0332190D01*
X0264011Y0345044D02*
X0272369Y0345044D01*
X0273117Y0344296D01*
X0295794Y0390458D02*
X0311653Y0390458D01*
X0322849Y0390458D02*
X0322908Y0390398D01*
X0331613Y0390398D01*
X0342810Y0390398D02*
X0342928Y0390517D01*
X0342928Y0410418D01*
X0331731Y0410418D02*
X0331653Y0410497D01*
X0322849Y0410497D01*
X0411700Y0272103D02*
X0411700Y0261528D01*
X0411700Y0250135D02*
X0411660Y0250095D01*
X0411660Y0238969D01*
D40*
X0346601Y0166836D02*
X0346660Y0166776D01*
X0319101Y0124336D02*
X0318708Y0123942D01*
X0254239Y0186678D02*
X0252664Y0186678D01*
X0254239Y0186678D02*
X0256183Y0188622D01*
X0257681Y0190968D01*
X0258511Y0190438D01*
X0258823Y0189504D01*
X0256183Y0188622D01*
X0257999Y0190438D01*
X0258511Y0190438D01*
X0239099Y0201108D02*
X0239141Y0202091D01*
X0238555Y0202882D01*
X0236318Y0201225D01*
X0239099Y0201108D01*
X0238275Y0201225D02*
X0239141Y0202091D01*
X0238275Y0201225D02*
X0236318Y0201225D01*
X0225645Y0201225D01*
X0224935Y0198533D01*
X0223983Y0198784D01*
X0223401Y0199578D01*
X0225645Y0201225D01*
X0222920Y0201225D01*
X0223905Y0200241D01*
X0223905Y0198863D01*
X0223983Y0198784D01*
X0224566Y0199578D01*
X0222322Y0201225D01*
X0223032Y0198533D01*
X0223983Y0198784D01*
X0222920Y0201225D02*
X0222322Y0201225D01*
X0209377Y0201225D01*
X0208294Y0202308D01*
X0207743Y0202308D01*
X0207487Y0202052D01*
X0207487Y0212328D02*
X0206070Y0212328D01*
X0206897Y0258076D02*
X0206857Y0258115D01*
X0198944Y0339729D02*
X0198944Y0339887D01*
X0207408Y0154178D02*
X0210204Y0154178D01*
X0227605Y0134099D02*
X0227605Y0134060D01*
D41*
X0292212Y0133981D03*
X0292605Y0123430D03*
X0369849Y0167406D03*
X0374220Y0167406D03*
X0372251Y0171658D03*
X0377448Y0171658D03*
X0378944Y0167249D03*
X0377605Y0163509D03*
X0382369Y0164060D03*
X0387290Y0164099D03*
X0413786Y0115595D03*
X0292842Y0183351D03*
X0286739Y0184257D03*
X0281306Y0184611D03*
X0279220Y0191147D03*
X0278314Y0196304D03*
X0283983Y0197052D03*
X0284849Y0191265D03*
X0289692Y0199021D03*
X0286700Y0202800D03*
X0289416Y0207406D03*
X0292330Y0203548D03*
X0295086Y0199375D03*
X0283786Y0207367D03*
X0278393Y0207446D03*
X0272802Y0207328D03*
X0267448Y0207406D03*
X0269968Y0202131D03*
X0275637Y0202328D03*
X0281109Y0202210D03*
X0294849Y0207879D03*
D42*
X0226094Y0160210D02*
X0225125Y0160477D01*
X0224522Y0160311D01*
X0224566Y0160151D02*
X0225125Y0158121D01*
X0225322Y0157406D01*
X0226094Y0160210D01*
X0225125Y0160477D02*
X0225125Y0158121D01*
X0225322Y0157406D02*
X0225322Y0144060D01*
X0207566Y0144060D01*
X0207408Y0143902D01*
X0213796Y0151785D02*
X0214456Y0152210D01*
X0214805Y0152912D01*
X0212255Y0154178D01*
X0213796Y0151785D01*
X0214456Y0152210D02*
X0212487Y0154178D01*
X0212255Y0154178D01*
X0207408Y0154178D01*
X0225322Y0144060D02*
X0225322Y0136265D01*
X0225478Y0136108D01*
X0227980Y0134749D01*
X0227605Y0134060D01*
X0226931Y0133660D01*
X0225478Y0136108D01*
X0227527Y0134060D01*
X0227605Y0134060D01*
X0305164Y0132761D02*
X0305164Y0139650D01*
X0312487Y0139650D01*
X0311857Y0146343D02*
X0305164Y0146343D01*
X0325401Y0130832D02*
X0327988Y0133419D01*
X0330361Y0134990D01*
X0330794Y0134336D01*
X0330831Y0133552D01*
X0327988Y0133419D01*
X0328905Y0134336D01*
X0330794Y0134336D01*
X0325401Y0130832D02*
X0325401Y0123942D01*
X0399666Y0146095D02*
X0400282Y0146580D01*
X0401060Y0146680D01*
X0401424Y0143857D01*
X0399666Y0146095D01*
X0400282Y0146580D02*
X0401424Y0145438D01*
X0401424Y0143857D01*
X0401424Y0141028D01*
X0437454Y0154821D02*
X0437842Y0154139D01*
X0438523Y0153751D01*
X0439929Y0156227D01*
X0437454Y0154821D01*
X0437842Y0154139D02*
X0439929Y0156227D01*
X0447172Y0163469D01*
X0447172Y0183517D01*
X0445192Y0185561D01*
X0445755Y0186107D01*
X0446518Y0186287D01*
X0447172Y0183517D01*
X0447172Y0184690D01*
X0445755Y0186107D01*
X0207487Y0212328D02*
X0201898Y0217917D01*
X0200711Y0220505D01*
X0201424Y0220832D01*
X0202204Y0220747D01*
X0201898Y0217917D01*
X0201424Y0218391D01*
X0201424Y0220832D01*
X0199653Y0366599D02*
X0199653Y0367724D01*
X0198787Y0370436D01*
X0199534Y0370674D01*
X0200298Y0370496D01*
X0199653Y0367724D01*
X0199653Y0369926D01*
D43*
X0387252Y0136380D02*
X0385519Y0134647D01*
D44*
X0273432Y0302328D02*
X0274869Y0303765D01*
X0273983Y0317643D02*
X0273294Y0317643D01*
X0274869Y0322839D02*
X0274869Y0324119D01*
X0274534Y0323784D01*
X0253235Y0304926D02*
X0253235Y0303824D01*
X0254731Y0302328D01*
D45*
X0241315Y0319442D02*
X0230528Y0319442D01*
X0251877Y0331627D02*
X0251877Y0332190D01*
X0252271Y0332584D01*
X0252271Y0344698D01*
X0252617Y0345044D01*
X0338905Y0345517D02*
X0339377Y0345044D01*
X0339377Y0334178D01*
X0339456Y0334099D01*
X0350479Y0334099D02*
X0350479Y0344965D01*
X0350401Y0345044D01*
X0350401Y0356422D01*
X0350716Y0356737D01*
X0350716Y0339139D01*
X0353826Y0336028D01*
X0370361Y0336028D01*
X0371345Y0337013D01*
X0372172Y0337013D01*
X0338905Y0345517D02*
X0338905Y0356737D01*
X0332960Y0220084D02*
X0332290Y0219414D01*
X0351031Y0194650D02*
X0352054Y0193627D01*
X0352054Y0191304D01*
X0340007Y0183784D02*
X0339541Y0183784D01*
X0338944Y0184266D01*
X0350322Y0172721D02*
X0351109Y0173509D01*
M02*
